<svg xmlns="http://www.w3.org/2000/svg" xmlns:xlink="http://www.w3.org/1999/xlink" width="512" zoomAndPan="magnify" viewBox="0 0 384 383.999986" height="512" preserveAspectRatio="xMidYMid meet" version="1.0"><defs><clipPath id="636a6b7d4c"><path d="M 42 45.3125 L 342 45.3125 L 342 338.5625 L 42 338.5625 Z M 42 45.3125 " clip-rule="nonzero"/></clipPath></defs><g clip-path="url(#636a6b7d4c)"><path fill="#000000" d="M 220.570312 226.535156 L 154.101562 226.535156 C 152.78125 226.535156 151.6875 227.628906 151.6875 228.949219 L 151.6875 235.640625 C 151.6875 236.960938 152.78125 238.050781 154.101562 238.050781 L 220.570312 238.050781 C 221.894531 238.050781 222.984375 236.960938 222.984375 235.640625 L 222.984375 228.949219 C 222.984375 227.628906 221.890625 226.535156 220.570312 226.535156 Z M 248.734375 167.589844 C 245.902344 164.746094 250.222656 160.441406 253.0625 163.285156 L 253.691406 163.910156 C 254.878906 165.109375 254.875 167.039062 253.675781 168.226562 C 252.480469 169.417969 250.550781 169.410156 249.359375 168.214844 Z M 266.019531 81.617188 C 233.804688 81.617188 207.6875 107.726562 207.6875 139.929688 C 207.6875 172.136719 233.804688 198.242188 266.019531 198.242188 C 298.238281 198.242188 324.355469 172.136719 324.355469 139.929688 C 324.355469 107.726562 298.238281 81.617188 266.019531 81.617188 Z M 302.941406 103.027344 C 282.550781 82.644531 249.488281 82.644531 229.097656 103.027344 C 208.707031 123.410156 208.707031 156.453125 229.097656 176.835938 C 249.488281 197.21875 282.550781 197.21875 302.941406 176.835938 C 323.328125 156.453125 323.328125 123.410156 302.941406 103.027344 Z M 250.695312 114.75 C 247.847656 111.898438 252.175781 107.574219 255.027344 110.421875 L 256.21875 111.613281 C 259.070312 114.460938 254.738281 118.785156 251.894531 115.941406 Z M 299.539062 152.378906 C 296.707031 149.535156 301.027344 145.230469 303.871094 148.078125 L 305.0625 149.269531 C 306.253906 150.46875 306.246094 152.398438 305.050781 153.585938 C 303.851562 154.777344 301.921875 154.769531 300.734375 153.574219 Z M 277.421875 102.03125 C 274.570312 99.179688 278.898438 94.855469 281.75 97.703125 L 282.941406 98.894531 C 285.792969 101.742188 281.464844 106.070312 278.613281 103.222656 Z M 278.667969 186.484375 C 277.722656 190.386719 271.792969 188.957031 272.738281 185.054688 C 274.820312 176.457031 280.1875 175.867188 285.425781 175.292969 C 288.753906 174.929688 291.992188 174.574219 292.417969 168.546875 C 292.53125 166.863281 293.988281 165.589844 295.671875 165.703125 C 297.351562 165.8125 298.625 167.269531 298.515625 168.953125 C 297.738281 180.085938 291.984375 180.71875 286.078125 181.363281 C 282.941406 181.703125 279.738281 182.058594 278.667969 186.484375 Z M 287.914062 115.53125 C 287.144531 111.585938 293.136719 110.40625 293.917969 114.363281 C 295.480469 122.285156 299.796875 128.214844 306.792969 132.277344 C 310.273438 134.296875 307.207031 139.574219 303.734375 137.558594 C 295.207031 132.609375 289.828125 125.167969 287.914062 115.53125 Z M 271.195312 145.632812 C 267.1875 145.664062 267.128906 139.574219 271.148438 139.535156 C 277.898438 139.472656 283.097656 142.375 286.179688 148.355469 C 286.953125 149.855469 286.363281 151.695312 284.863281 152.464844 C 283.363281 153.238281 281.523438 152.648438 280.75 151.152344 C 278.738281 147.242188 275.617188 145.582031 271.195312 145.632812 Z M 251.523438 154.023438 C 244.871094 154.023438 239.476562 159.414062 239.476562 166.066406 C 239.476562 176.753906 252.46875 182.148438 260.039062 174.578125 C 267.617188 167.007812 262.21875 154.023438 251.523438 154.023438 Z M 255.714844 161.875 C 251.992188 158.15625 245.601562 160.804688 245.601562 166.066406 C 245.601562 171.324219 251.992188 173.972656 255.714844 170.253906 C 258.027344 167.941406 258.027344 164.1875 255.714844 161.875 Z M 262.816406 99.429688 C 273.839844 107 271.8125 123.730469 259.558594 128.601562 C 257.917969 129.257812 256.1875 129.640625 254.4375 129.753906 C 254.914062 136.746094 250.066406 143.015625 243.15625 144.296875 C 235.683594 145.683594 228.433594 140.6875 227.046875 133.222656 C 225.71875 126.074219 230.242188 119.074219 237.269531 117.308594 C 234.867188 107.992188 240.855469 98.539062 250.363281 96.777344 C 254.542969 96.003906 259.027344 96.824219 262.816406 99.429688 Z M 263.761719 111.214844 C 265.144531 118.648438 258.511719 125.011719 251.167969 123.445312 C 248.738281 122.925781 246.753906 125.382812 247.722656 127.640625 L 247.71875 127.644531 C 248.242188 128.851562 248.453125 130.175781 248.328125 131.476562 C 247.761719 137.269531 241.101562 140.398438 236.261719 137.074219 C 229.75 132.601562 233.441406 122.296875 241.359375 123.019531 C 243.832031 123.246094 245.503906 120.574219 244.273438 118.453125 L 244.277344 118.449219 C 242.238281 114.949219 242.363281 110.550781 244.691406 107.164062 C 249.976562 99.480469 262.046875 101.96875 263.761719 111.214844 Z M 266.019531 63.988281 C 224.0625 63.988281 190.046875 97.988281 190.046875 139.929688 C 190.046875 162.609375 200.105469 177.226562 200.226562 177.910156 L 194.394531 209.636719 C 193.949219 211.878906 195.933594 213.71875 198.050781 213.238281 L 228.972656 206.238281 C 234.375 209.261719 240.175781 211.640625 246.277344 213.277344 C 294.375 226.1875 341.988281 190 341.988281 139.929688 C 341.988281 97.992188 307.976562 63.988281 266.019531 63.988281 Z M 315.414062 90.558594 C 288.136719 63.292969 243.90625 63.292969 216.628906 90.558594 C 193.976562 113.203125 189.644531 148.375 206.054688 175.773438 C 206.421875 176.386719 206.574219 177.128906 206.4375 177.890625 L 201.21875 206.265625 L 228.679688 200.046875 C 229.433594 199.847656 230.261719 199.933594 230.988281 200.359375 C 258.328125 216.203125 293.015625 211.691406 315.414062 189.300781 C 342.691406 162.035156 342.691406 117.828125 315.414062 90.558594 Z M 338.777344 304.34375 C 339.847656 308.214844 333.964844 309.835938 332.894531 305.96875 C 332.511719 304.589844 332.011719 303.160156 331.316406 301.867188 L 306.691406 331.289062 C 308.082031 331.742188 309.578125 331.984375 311 332.113281 C 315 332.476562 314.445312 338.550781 310.449219 338.1875 C 306.875 337.859375 302.714844 336.847656 299.902344 334.59375 C 290.425781 327.480469 290.925781 314.683594 292.445312 301.722656 C 280.238281 305.394531 267.886719 308.027344 259.042969 300.414062 C 249.910156 292.671875 250.5625 276.398438 251.617188 268.019531 C 242.0625 270.996094 227.460938 273.695312 218.457031 266.460938 C 215.5 264.136719 213.863281 260.292969 212.875 256.734375 C 211.808594 252.867188 217.6875 251.238281 218.761719 255.109375 C 219.132812 256.460938 219.625 257.925781 220.328125 259.21875 L 245.125 229.597656 C 243.726562 229.132812 242.195312 228.90625 240.808594 228.777344 C 236.804688 228.410156 237.359375 222.34375 241.355469 222.707031 C 245.035156 223.042969 249.113281 223.984375 251.917969 226.46875 C 260.625 234.199219 260.578125 248.765625 259.3125 258.835938 C 267.222656 256.371094 283.808594 252.722656 292.714844 260.597656 C 301.480469 268.042969 301.140625 280.539062 299.710938 293.082031 C 312.414062 289.21875 324.679688 286.464844 333.414062 294.636719 C 336.128906 297.0625 337.8125 300.859375 338.777344 304.34375 Z M 327.039062 297.457031 C 324.800781 296.15625 322.195312 295.578125 319.335938 295.511719 L 298.285156 320.660156 C 298.855469 323.445312 299.886719 325.890625 301.585938 327.863281 Z M 310.535156 296.507812 C 306.800781 297.308594 302.863281 298.496094 298.898438 299.730469 C 298.371094 303.914062 297.878906 307.996094 297.738281 311.800781 Z M 252.785156 261.199219 C 253.199219 258.894531 253.875 254.335938 253.875 249.332031 L 241.296875 264.363281 C 246.21875 263.480469 250.582031 262.011719 252.785156 261.199219 Z M 253.0625 240.785156 C 252.464844 238.019531 251.492188 235.425781 249.972656 233.328125 L 224.851562 263.34375 C 227.183594 264.46875 229.90625 264.972656 232.738281 265.066406 Z M 258.148438 265.664062 C 257.734375 267.96875 257.058594 272.527344 257.058594 277.535156 L 269.640625 262.503906 C 264.714844 263.382812 260.351562 264.851562 258.148438 265.664062 Z M 257.871094 286.082031 C 258.464844 288.851562 259.441406 291.441406 260.957031 293.542969 L 286.082031 263.527344 C 283.746094 262.402344 281.027344 261.898438 278.195312 261.804688 Z M 265.625 297.488281 C 267.972656 298.664062 270.648438 299.15625 273.550781 299.164062 L 293.875 274.890625 C 293.351562 272.050781 292.386719 269.523438 290.796875 267.417969 Z M 282.433594 298.070312 C 285.941406 297.304688 289.601562 296.222656 293.273438 295.082031 C 293.757812 291.214844 294.195312 287.417969 294.347656 283.84375 Z M 105.566406 83.433594 L 97.066406 67.941406 C 89.328125 67.21875 87.714844 57.277344 94.578125 53.519531 L 106.917969 46.753906 C 113.808594 42.988281 121.273438 49.722656 117.734375 56.609375 L 126.238281 72.109375 C 129.355469 71.933594 132.457031 73.523438 134.054688 76.4375 L 179.144531 158.636719 C 180.640625 161.367188 180.445312 164.59375 178.90625 167.082031 L 183.757812 175.921875 C 191.496094 176.640625 193.105469 186.582031 186.242188 190.339844 L 174.078125 197.007812 C 167.347656 200.96875 159.453125 194.320312 163.089844 187.253906 L 158.472656 178.839844 C 155.171875 179.246094 151.789062 177.644531 150.101562 174.5625 L 148.023438 170.777344 L 143.222656 173.40625 C 140.675781 174.804688 137.484375 173.800781 136.160156 171.203125 L 126.664062 153.890625 C 125.703125 155.636719 124.480469 157.285156 122.996094 158.769531 C 117.375 164.390625 109.414062 166.257812 102.242188 164.363281 C 76.691406 183.199219 73.679688 220.542969 96.335938 243.191406 C 116.632812 263.480469 148.964844 263.289062 169.097656 244.179688 L 154.101562 244.179688 C 149.398438 244.179688 145.5625 240.347656 145.5625 235.648438 L 145.5625 228.957031 C 145.5625 224.257812 149.398438 220.421875 154.101562 220.421875 L 220.570312 220.421875 C 225.269531 220.421875 229.105469 224.253906 229.105469 228.957031 L 229.105469 235.648438 C 229.105469 240.347656 225.269531 244.179688 220.570312 244.179688 L 203.234375 244.179688 C 191.078125 271.410156 165.074219 290.445312 135.101562 293.570312 L 135.101562 308.335938 L 205.308594 308.335938 C 210.808594 308.335938 215.300781 312.824219 215.300781 318.328125 L 215.300781 325.929688 C 215.300781 331.433594 210.808594 335.921875 205.308594 335.921875 L 63.890625 335.921875 C 58.386719 335.921875 53.898438 331.433594 53.898438 325.929688 L 53.898438 318.328125 C 53.898438 312.824219 58.386719 308.335938 63.890625 308.335938 L 93.121094 308.335938 L 98.402344 289.296875 C 64.96875 277.617188 42.011719 245.871094 42.011719 209.789062 C 42.011719 177.773438 60.058594 148.964844 88.09375 134.695312 C 89.136719 132.375 90.609375 130.203125 92.511719 128.296875 C 97.085938 123.726562 103.203125 121.640625 109.1875 122.035156 L 100.25 105.75 C 98.898438 103.277344 99.800781 100.132812 102.277344 98.777344 L 107.078125 96.144531 C 105.144531 92.613281 103.148438 90.039062 104.3125 86.011719 C 104.578125 85.089844 105.003906 84.21875 105.566406 83.433594 Z M 120.488281 74.335938 L 111.46875 57.90625 L 111.472656 57.90625 C 110.851562 56.773438 110.996094 55.320312 111.9375 54.332031 C 113.453125 52.738281 111.726562 51.085938 109.84375 52.121094 L 97.515625 58.878906 C 95.601562 59.929688 96.125 62.234375 98.21875 61.835938 C 99.5 61.570312 100.855469 62.152344 101.519531 63.359375 L 110.535156 79.796875 Z M 164.113281 176.410156 L 169.351562 185.957031 C 170.019531 187.179688 169.769531 188.664062 168.824219 189.597656 C 167.425781 191.078125 169.050781 192.800781 170.976562 191.746094 L 183.304688 184.988281 C 185.195312 183.949219 184.742188 181.613281 182.558594 182.039062 C 181.199219 182.296875 179.882812 181.617188 179.277344 180.457031 L 174.066406 170.960938 Z M 122.9375 146.367188 C 122.929688 145.953125 123.1875 144.941406 123.1875 143.53125 C 123.1875 134.871094 116.074219 128.101562 107.757812 128.101562 C 94.050781 128.101562 87.148438 144.746094 96.84375 154.4375 C 105.714844 163.308594 120.804688 158.289062 122.9375 146.367188 Z M 129.1875 145.785156 L 141.140625 167.578125 L 147.761719 163.949219 C 149.238281 163.136719 151.097656 163.675781 151.910156 165.15625 L 155.457031 171.617188 C 156.050781 172.699219 157.421875 173.109375 158.492188 172.523438 L 172.910156 164.617188 C 173.992188 164.023438 174.375 162.65625 173.785156 161.578125 L 128.691406 79.375 C 128.101562 78.292969 126.730469 77.878906 125.65625 78.46875 L 111.238281 86.371094 C 110.15625 86.964844 109.773438 88.332031 110.367188 89.414062 L 113.910156 95.875 C 114.71875 97.355469 114.179688 99.210938 112.703125 100.023438 L 106.078125 103.65625 L 117.375 124.238281 C 119.402344 125.25 121.308594 126.601562 123 128.289062 C 127.78125 133.078125 129.84375 139.546875 129.1875 145.785156 Z M 107.753906 139.625 C 104.28125 139.625 102.535156 143.839844 104.988281 146.292969 C 107.441406 148.746094 111.660156 147.003906 111.660156 143.53125 C 111.660156 141.371094 109.914062 139.625 107.753906 139.625 Z M 100.664062 136.441406 C 96.746094 140.355469 96.746094 146.703125 100.664062 150.617188 C 106.964844 156.917969 117.785156 152.429688 117.785156 143.53125 C 117.785156 134.628906 106.96875 130.140625 100.664062 136.441406 Z M 95.921875 161.542969 C 69.949219 183.125 67.449219 222.96875 92.003906 247.511719 C 116.136719 271.636719 155.515625 269.875 177.5 244.175781 L 196.488281 244.175781 C 184.875 267.890625 161.679688 284.472656 135.101562 287.425781 L 135.101562 283.074219 C 135.101562 278.375 133.1875 274.109375 130.097656 271.023438 C 121.074219 262.003906 105.015625 265.484375 101.328125 278.78125 L 100.042969 283.40625 C 69.269531 272.480469 48.136719 243.144531 48.136719 209.785156 C 48.136719 181.90625 62.921875 156.574219 86.222656 142.675781 C 85.929688 150.066406 89.503906 157.316406 95.921875 161.542969 Z M 117.738281 283.042969 C 115.917969 283.042969 115.917969 285.808594 117.738281 285.808594 C 119.558594 285.804688 119.558594 283.042969 117.738281 283.042969 Z M 112.429688 279.121094 C 109.5 282.050781 109.5 286.800781 112.429688 289.730469 C 117.148438 294.445312 125.238281 291.085938 125.238281 284.425781 C 125.238281 277.769531 117.148438 274.40625 112.429688 279.121094 Z M 128.976562 308.335938 L 128.976562 283.074219 C 128.976562 273.703125 118.074219 269.03125 111.175781 274.378906 C 109.304688 275.832031 107.898438 277.917969 107.207031 280.410156 L 99.453125 308.335938 Z M 205.308594 314.457031 L 63.890625 314.457031 C 61.765625 314.457031 60.019531 316.199219 60.019531 318.324219 L 60.019531 325.925781 C 60.019531 328.050781 61.765625 329.796875 63.890625 329.796875 L 205.304688 329.796875 C 207.425781 329.796875 209.171875 328.050781 209.171875 325.925781 L 209.171875 318.324219 C 209.175781 316.203125 207.429688 314.457031 205.308594 314.457031 Z M 205.308594 314.457031 " fill-opacity="1" fill-rule="evenodd"/></g></svg>