<svg xmlns="http://www.w3.org/2000/svg" xmlns:xlink="http://www.w3.org/1999/xlink" width="512" zoomAndPan="magnify" viewBox="0 0 384 383.999986" height="512" preserveAspectRatio="xMidYMid meet" version="1.0"><path fill="#000000" d="M 133.203125 98.09375 C 132.109375 98.09375 131.515625 98.351562 131.4375 98.546875 C 131.429688 98.554688 131.210938 99.148438 132.640625 100.890625 C 135.445312 104.285156 139.035156 107.476562 143.304688 110.375 C 149.824219 114.800781 156.945312 118.226562 164.46875 120.5625 C 166.632812 121.234375 168.554688 121.210938 168.933594 120.515625 C 169.269531 119.90625 168.671875 118.53125 167.40625 117.003906 C 159.238281 107.152344 147.308594 100.304688 134.679688 98.226562 C 134.117188 98.132812 133.625 98.09375 133.203125 98.09375 Z M 167.257812 126.042969 C 165.953125 126.042969 164.523438 125.808594 162.996094 125.332031 C 154.992188 122.859375 147.425781 119.210938 140.496094 114.503906 C 135.835938 111.34375 131.898438 107.828125 128.785156 104.066406 C 126.558594 101.367188 125.894531 98.859375 126.816406 96.632812 C 127.988281 93.800781 131.15625 92.582031 135.5 93.300781 C 149.292969 95.574219 162.332031 103.050781 171.253906 113.816406 C 174.757812 118.058594 174.3125 121.101562 173.324219 122.914062 C 172.191406 124.972656 170.035156 126.042969 167.257812 126.042969 " fill-opacity="1" fill-rule="nonzero"/><path fill="#000000" d="M 166.5 139.667969 C 166.023438 139.667969 165.546875 139.644531 165.070312 139.605469 C 153.90625 138.636719 143.492188 134.628906 134.960938 128.042969 C 133.867188 127.199219 133.664062 125.628906 134.507812 124.535156 C 135.359375 123.445312 136.917969 123.242188 138.011719 124.082031 C 145.789062 130.09375 155.296875 133.742188 165.507812 134.628906 C 169.714844 134.988281 173.902344 132.984375 176.375 129.390625 C 180.464844 123.46875 179.554688 117.011719 173.683594 110.21875 C 161.660156 96.285156 150.308594 90.078125 133.210938 88.054688 C 126.621094 87.265625 121.875 92.519531 119.058594 97.0625 C 116.847656 100.632812 117.347656 105.566406 120.285156 109.0625 C 122.164062 111.3125 124.28125 113.371094 126.550781 115.183594 C 127.628906 116.042969 127.808594 117.613281 126.941406 118.695312 C 126.082031 119.773438 124.515625 119.953125 123.4375 119.085938 C 120.898438 117.066406 118.550781 114.777344 116.449219 112.265625 C 112.085938 107.058594 111.429688 99.890625 114.820312 94.425781 C 119.957031 86.15625 126.519531 82.238281 133.796875 83.097656 C 152.042969 85.246094 164.695312 92.160156 177.46875 106.957031 C 184.800781 115.441406 185.875 124.417969 180.488281 132.226562 C 177.273438 136.902344 172.003906 139.667969 166.5 139.667969 " fill-opacity="1" fill-rule="nonzero"/><path fill="#000000" d="M 82.265625 271.367188 C 77.027344 271.367188 71.726562 269.875 67.210938 266.902344 C 59.085938 261.523438 53.910156 251.5 54.042969 241.375 C 54.175781 231.472656 58.820312 222.503906 62.917969 214.589844 L 93.226562 155.933594 C 93.25 155.878906 93.273438 155.835938 93.296875 155.789062 L 116.824219 110.289062 C 117.457031 109.0625 118.972656 108.578125 120.191406 109.21875 C 121.421875 109.851562 121.898438 111.359375 121.265625 112.585938 L 97.800781 157.957031 C 97.785156 158.003906 97.761719 158.042969 97.738281 158.097656 L 67.359375 216.875 C 63.511719 224.308594 59.15625 232.722656 59.039062 241.445312 C 58.929688 249.914062 63.222656 258.265625 69.96875 262.734375 C 76.902344 267.300781 86.480469 267.550781 93.257812 263.351562 C 99.820312 259.265625 103.6875 251.71875 107.097656 245.050781 C 116.894531 225.878906 126.699219 206.710938 136.503906 187.539062 L 146.976562 167.082031 C 147 167.035156 147.023438 166.996094 147.046875 166.957031 C 147.480469 166.0625 147.949219 165.171875 148.410156 164.273438 C 148.433594 164.234375 148.449219 164.179688 148.472656 164.140625 C 153.273438 154.742188 158.066406 145.363281 162.886719 135.972656 C 163.507812 134.738281 165.015625 134.257812 166.242188 134.886719 C 167.476562 135.511719 167.960938 137.019531 167.328125 138.246094 C 162.542969 147.589844 157.773438 156.917969 153 166.273438 C 152.96875 166.328125 152.945312 166.390625 152.914062 166.445312 C 152.417969 167.394531 151.925781 168.355469 151.449219 169.308594 C 151.417969 169.378906 151.386719 169.433594 151.347656 169.496094 L 140.957031 189.816406 C 131.148438 208.984375 121.34375 228.15625 111.546875 247.324219 C 108.019531 254.207031 103.640625 262.78125 95.886719 267.589844 C 91.828125 270.117188 87.066406 271.367188 82.265625 271.367188 " fill-opacity="1" fill-rule="nonzero"/><path fill="#000000" d="M 150.699219 167.785156 C 150.675781 167.785156 150.644531 167.785156 150.613281 167.785156 C 149.269531 167.738281 148.199219 166.644531 148.199219 165.304688 L 148.199219 165.273438 C 148.378906 162.8125 145.445312 160.457031 142.648438 159.003906 C 130.894531 152.945312 116.683594 151.101562 103.6875 153.953125 C 101.265625 154.492188 99.453125 155.320312 98.582031 156.292969 C 97.660156 157.324219 96.074219 157.410156 95.050781 156.488281 C 94.019531 155.570312 93.933594 153.992188 94.855469 152.960938 C 96.464844 151.164062 99.070312 149.855469 102.609375 149.074219 C 116.730469 145.972656 132.164062 147.980469 144.945312 154.570312 C 150.488281 157.441406 153.492188 161.40625 153.195312 165.460938 C 153.09375 166.761719 152.011719 167.785156 150.699219 167.785156 " fill-opacity="1" fill-rule="nonzero"/><path fill="#000000" d="M 132.820312 173.28125 C 122.21875 173.28125 111.632812 171.292969 101.765625 167.394531 C 99.828125 166.632812 97.628906 165.671875 95.855469 164.03125 C 93.621094 161.9375 92.578125 159.152344 93.046875 156.558594 C 93.054688 156.527344 93.0625 156.496094 93.070312 156.457031 C 93.164062 155.964844 93.410156 155.5 93.761719 155.140625 C 94.738281 154.164062 96.324219 154.164062 97.300781 155.140625 C 97.941406 155.789062 98.160156 156.699219 97.949219 157.519531 C 97.824219 158.394531 98.332031 159.503906 99.257812 160.371094 C 100.390625 161.414062 102.03125 162.125 103.609375 162.757812 C 115.527344 167.457031 128.574219 169.214844 141.347656 167.824219 C 143.390625 167.613281 146.15625 167.316406 147.503906 166.375 C 147.949219 165.953125 148.550781 165.695312 149.207031 165.695312 C 150.589844 165.695312 151.707031 166.808594 151.707031 168.191406 C 151.707031 168.988281 151.332031 169.707031 150.753906 170.167969 C 148.324219 172.109375 144.601562 172.507812 141.875 172.796875 C 138.871094 173.125 135.851562 173.28125 132.820312 173.28125 " fill-opacity="1" fill-rule="nonzero"/><path fill="#000000" d="M 118.277344 186.609375 C 117.566406 186.609375 116.847656 186.859375 116.363281 187.328125 C 115.488281 188.199219 115.371094 189.878906 116.128906 190.855469 C 116.878906 191.832031 118.535156 192.152344 119.597656 191.535156 C 120.144531 191.214844 120.984375 190.246094 121.054688 189.183594 C 121.070312 188.910156 121.132812 188.09375 119.902344 187.125 C 119.457031 186.78125 118.871094 186.609375 118.277344 186.609375 Z M 118.355469 196.84375 C 115.996094 196.84375 113.632812 195.804688 112.171875 193.898438 C 109.890625 190.949219 110.195312 186.398438 112.851562 183.773438 C 115.503906 181.152344 120.058594 180.894531 122.984375 183.195312 C 125.117188 184.875 126.199219 187.117188 126.042969 189.519531 C 125.847656 192.417969 123.9375 194.78125 122.132812 195.84375 C 120.976562 196.515625 119.667969 196.84375 118.355469 196.84375 " fill-opacity="1" fill-rule="nonzero"/><path fill="#000000" d="M 95.691406 201.542969 C 94.339844 201.542969 92.921875 202.300781 92.328125 203.496094 C 91.53125 205.09375 92.242188 207.460938 93.800781 208.367188 C 95.371094 209.289062 97.792969 208.765625 98.867188 207.273438 C 99.34375 206.632812 99.734375 205.523438 99.429688 204.355469 C 99.148438 203.277344 98.339844 202.425781 97.019531 201.824219 C 96.605469 201.628906 96.152344 201.542969 95.691406 201.542969 Z M 95.621094 213.832031 C 94.113281 213.832031 92.609375 213.457031 91.28125 212.683594 C 87.449219 210.441406 85.878906 205.210938 87.855469 201.261719 C 89.867188 197.226562 95.027344 195.40625 99.101562 197.28125 C 101.773438 198.507812 103.609375 200.574219 104.261719 203.089844 C 104.894531 205.515625 104.394531 208.179688 102.914062 210.214844 C 101.21875 212.550781 98.417969 213.832031 95.621094 213.832031 " fill-opacity="1" fill-rule="nonzero"/><path fill="#000000" d="M 83.378906 232.933594 C 80.875 232.933594 78.390625 234.832031 77.757812 237.257812 C 77.121094 239.757812 78.476562 242.746094 80.789062 243.910156 C 82.515625 244.777344 84.785156 244.683594 86.433594 243.683594 C 87.605469 242.964844 89.507812 241.242188 88.992188 237.796875 C 88.617188 235.238281 86.207031 233.058594 83.613281 232.941406 C 83.535156 232.933594 83.457031 232.933594 83.378906 232.933594 Z M 83.386719 249.492188 C 81.71875 249.492188 80.039062 249.125 78.546875 248.375 C 74.097656 246.136719 71.6875 240.820312 72.925781 236.011719 C 74.152344 231.25 78.945312 227.742188 83.855469 227.945312 C 88.78125 228.179688 93.21875 232.183594 93.933594 237.0625 C 94.605469 241.59375 92.78125 245.660156 89.039062 247.945312 C 87.355469 248.976562 85.371094 249.492188 83.386719 249.492188 " fill-opacity="1" fill-rule="nonzero"/><path fill="#000000" d="M 156.914062 48.207031 C 156.695312 48.207031 156.476562 48.222656 156.257812 48.261719 C 154.03125 48.628906 152.183594 50.933594 152.300781 53.191406 C 152.417969 55.4375 154.492188 57.539062 156.75 57.671875 C 158.019531 57.757812 159.949219 57.109375 161.019531 55.773438 C 161.886719 54.703125 162.074219 53.355469 161.589844 51.644531 C 161.035156 49.691406 158.949219 48.207031 156.914062 48.207031 Z M 156.929688 62.675781 C 156.765625 62.675781 156.601562 62.667969 156.445312 62.660156 C 151.660156 62.371094 147.550781 58.242188 147.300781 53.449219 C 147.0625 48.652344 150.707031 44.117188 155.4375 43.335938 C 160.167969 42.558594 165.085938 45.671875 166.398438 50.285156 C 167.3125 53.515625 166.789062 56.578125 164.914062 58.910156 C 162.792969 61.542969 159.472656 62.675781 156.929688 62.675781 " fill-opacity="1" fill-rule="nonzero"/><path fill="#000000" d="M 188.453125 82.160156 L 188.476562 82.160156 Z M 180.355469 75.65625 C 177.492188 75.65625 174.679688 78.101562 174.320312 80.996094 C 173.957031 84.011719 176.265625 87.289062 179.28125 88.007812 C 180.738281 88.351562 182.167969 88.101562 183.308594 87.296875 C 184.777344 86.257812 185.695312 84.394531 185.96875 81.886719 C 186.125 80.519531 185.632812 79.046875 184.636719 77.828125 C 183.597656 76.578125 182.183594 75.789062 180.753906 75.671875 C 180.621094 75.65625 180.488281 75.65625 180.355469 75.65625 Z M 180.519531 93.152344 C 179.722656 93.152344 178.921875 93.058594 178.125 92.863281 C 172.613281 91.550781 168.679688 85.953125 169.363281 80.390625 C 170.066406 74.667969 175.46875 70.222656 181.160156 70.691406 C 183.925781 70.917969 186.59375 72.363281 188.484375 74.652344 C 190.34375 76.898438 191.238281 79.742188 190.933594 82.433594 C 190.378906 87.453125 188.046875 90.070312 186.1875 91.378906 C 184.535156 92.542969 182.558594 93.152344 180.519531 93.152344 " fill-opacity="1" fill-rule="nonzero"/><path fill="#000000" d="M 225.628906 95.332031 C 225.019531 95.332031 224.410156 95.410156 223.816406 95.566406 C 219.953125 96.566406 217.167969 100.898438 217.859375 104.824219 C 218.546875 108.765625 222.640625 111.875 226.621094 111.507812 C 228.640625 111.320312 231.375 110.039062 232.945312 107.601562 C 234.214844 105.621094 234.417969 103.316406 233.527344 100.765625 C 233.527344 100.757812 233.527344 100.757812 233.527344 100.757812 C 232.421875 97.5625 229 95.332031 225.628906 95.332031 Z M 225.980469 116.535156 C 219.835938 116.535156 214.003906 111.796875 212.933594 105.691406 C 211.796875 99.226562 216.207031 92.371094 222.5625 90.726562 C 228.90625 89.078125 236.097656 92.917969 238.253906 99.125 C 240.015625 104.199219 238.621094 108.007812 237.144531 110.3125 C 234.972656 113.683594 231.023438 116.113281 227.089844 116.480469 C 226.722656 116.519531 226.347656 116.535156 225.980469 116.535156 " fill-opacity="1" fill-rule="nonzero"/><path fill="#000000" d="M 257.355469 62.542969 C 256.386719 62.542969 255.457031 62.761719 254.65625 63.183594 C 253.296875 63.902344 252.21875 65.265625 251.703125 66.9375 C 251.1875 68.609375 251.3125 70.347656 252.03125 71.707031 C 252.757812 73.066406 254.132812 74.144531 255.800781 74.652344 C 257.472656 75.15625 259.207031 75.03125 260.570312 74.308594 C 262.367188 73.347656 265.367188 70.003906 263.179688 65.820312 C 262.460938 64.453125 261.09375 63.378906 259.425781 62.863281 C 258.738281 62.652344 258.035156 62.542969 257.355469 62.542969 Z M 257.832031 79.953125 C 256.667969 79.953125 255.488281 79.78125 254.34375 79.429688 C 251.414062 78.53125 248.964844 76.578125 247.621094 74.050781 C 246.277344 71.527344 246.027344 68.398438 246.925781 65.46875 C 247.832031 62.542969 249.796875 60.097656 252.328125 58.765625 C 254.851562 57.429688 257.980469 57.179688 260.90625 58.09375 C 263.835938 58.996094 266.269531 60.964844 267.597656 63.503906 C 271.1875 70.347656 267.027344 76.515625 262.921875 78.710938 C 261.390625 79.53125 259.628906 79.953125 257.832031 79.953125 " fill-opacity="1" fill-rule="nonzero"/><path fill="#000000" d="M 260.113281 98.6875 C 260.082031 98.6875 260.050781 98.6875 260.019531 98.6875 C 258.738281 98.710938 257.628906 99.242188 257.050781 100.101562 C 256.480469 100.960938 256.410156 102.183594 256.878906 103.378906 C 257.339844 104.574219 258.222656 105.433594 259.222656 105.675781 C 260.300781 105.941406 262.382812 105.089844 263.351562 103.636719 C 264.109375 102.503906 264.007812 101.320312 263.039062 99.984375 C 262.445312 99.171875 261.351562 98.6875 260.113281 98.6875 Z M 259.628906 110.71875 C 259.089844 110.71875 258.550781 110.65625 258.042969 110.539062 C 255.449219 109.90625 253.28125 107.90625 252.21875 105.191406 C 251.164062 102.480469 251.421875 99.539062 252.90625 97.320312 C 254.390625 95.105469 257.011719 93.746094 259.925781 93.691406 C 262.804688 93.574219 265.507812 94.894531 267.074219 97.046875 C 269.292969 100.09375 269.449219 103.503906 267.503906 106.417969 C 265.765625 109.023438 262.53125 110.71875 259.628906 110.71875 " fill-opacity="1" fill-rule="nonzero"/><path fill="#000000" d="M 233.800781 154.734375 C 231.875 154.734375 229.84375 154.515625 227.910156 153.71875 C 224.300781 152.242188 221.1875 148.191406 222.226562 143.984375 C 223.089844 140.46875 226.285156 138.527344 228.976562 137.222656 C 243.320312 130.273438 259.300781 127.058594 275.226562 127.933594 C 281.386719 128.269531 285.34375 130.765625 286.078125 134.769531 C 286.773438 138.566406 284.289062 142.15625 279.097656 144.882812 C 270.261719 149.511719 260.773438 152.648438 250.90625 154.210938 C 249.542969 154.429688 248.269531 153.492188 248.050781 152.125 C 247.839844 150.765625 248.769531 149.488281 250.125 149.277344 C 259.457031 147.800781 268.425781 144.835938 276.777344 140.453125 C 277.902344 139.859375 281.550781 137.777344 281.160156 135.667969 C 280.832031 133.875 277.613281 133.070312 274.953125 132.921875 C 259.878906 132.101562 244.738281 135.136719 231.15625 141.71875 C 229.445312 142.546875 227.441406 143.6875 227.074219 145.175781 C 226.707031 146.675781 228.21875 148.449219 229.804688 149.097656 C 232 149.988281 234.800781 149.753906 237.285156 149.542969 C 238.636719 149.441406 239.867188 150.441406 239.984375 151.8125 C 240.101562 153.1875 239.085938 154.398438 237.707031 154.515625 C 236.503906 154.625 235.175781 154.734375 233.800781 154.734375 " fill-opacity="1" fill-rule="nonzero"/><path fill="#000000" d="M 270.308594 123.558594 C 255.417969 123.558594 240.523438 127.042969 226.753906 133.78125 C 223.597656 135.324219 220.335938 137.121094 217.890625 139.726562 C 215.753906 142.015625 214.652344 144.71875 214.621094 147.753906 C 214.613281 148.621094 214.761719 149.582031 215.082031 150.6875 L 215.925781 153.65625 C 217.089844 157.777344 220.421875 160.996094 224.621094 162.054688 C 241.5625 166.34375 274.117188 161.144531 287.957031 148.957031 C 292.472656 144.992188 294.476562 140.6875 293.929688 136.183594 C 293.929688 136.175781 293.929688 136.175781 293.929688 136.175781 L 293.90625 135.941406 C 293.34375 131.34375 290.339844 127.417969 286.054688 125.683594 C 283.757812 124.753906 281.363281 124.167969 278.941406 123.949219 C 276.070312 123.691406 273.1875 123.558594 270.308594 123.558594 Z M 238.605469 168.527344 C 232.945312 168.527344 227.714844 167.996094 223.394531 166.894531 C 217.46875 165.398438 212.761719 160.855469 211.117188 155.023438 L 210.273438 152.0625 C 209.820312 150.484375 209.609375 149.058594 209.625 147.699219 C 209.664062 143.375 211.226562 139.542969 214.246094 136.316406 C 217.253906 133.109375 221.140625 130.96875 224.558594 129.296875 C 241.8125 120.84375 260.773438 117.285156 279.394531 118.976562 C 282.304688 119.242188 285.179688 119.9375 287.925781 121.054688 C 293.890625 123.46875 298.085938 128.9375 298.863281 135.332031 L 298.894531 135.582031 C 299.636719 141.742188 297 147.660156 291.261719 152.710938 C 279.566406 163 256.816406 168.527344 238.605469 168.527344 " fill-opacity="1" fill-rule="nonzero"/><path fill="#000000" d="M 289.253906 341.386719 C 280.191406 341.386719 271.632812 338.40625 265.59375 332.988281 C 256.035156 324.414062 253.109375 310.605469 250.96875 300.519531 C 241.40625 255.410156 231.828125 210.269531 222.25 165.15625 C 221.960938 163.804688 222.816406 162.476562 224.167969 162.1875 C 225.511719 161.898438 226.847656 162.765625 227.136719 164.117188 C 236.714844 209.234375 246.292969 254.371094 255.855469 299.488281 C 258.441406 311.683594 261.210938 322.347656 268.925781 329.261719 C 275.164062 334.84375 284.648438 337.375 294.320312 336.03125 C 306.046875 334.40625 316.164062 327.21875 320.097656 317.722656 C 324.230469 307.808594 322.042969 296.613281 318.992188 284.070312 L 300.605469 208.304688 C 300.503906 207.921875 300.410156 207.515625 300.324219 207.101562 C 300.316406 207.078125 300.308594 207.046875 300.300781 207.023438 L 286.867188 151.703125 C 286.546875 150.363281 287.363281 149.011719 288.707031 148.683594 C 290.050781 148.355469 291.402344 149.183594 291.722656 150.523438 L 305.132812 205.765625 C 305.148438 205.820312 305.164062 205.867188 305.171875 205.921875 C 305.265625 206.3125 305.351562 206.695312 305.453125 207.085938 L 323.847656 282.890625 C 326.359375 293.242188 329.8125 307.410156 324.714844 319.644531 C 320.113281 330.738281 308.453125 339.113281 295.007812 340.980469 C 293.078125 341.246094 291.152344 341.386719 289.253906 341.386719 " fill-opacity="1" fill-rule="nonzero"/><path fill="#000000" d="M 300.660156 208.492188 Z M 269.488281 198.851562 C 261.273438 198.851562 253.34375 199.964844 245.957031 202.191406 C 243.539062 202.902344 241.0625 203.785156 239.25 205.359375 C 237.878906 206.539062 236.675781 208.53125 237.074219 210.355469 C 237.332031 211.597656 238.339844 212.832031 239.828125 213.746094 C 241.460938 214.753906 243.5 215.3125 245.277344 215.757812 C 260.59375 219.648438 275.726562 219.84375 289.042969 216.3125 C 291.449219 215.679688 294.203125 214.824219 296.4375 213.277344 C 298.488281 211.878906 300.800781 210.050781 300.589844 208.257812 C 300.589844 208.242188 300.589844 208.226562 300.589844 208.226562 C 300.550781 208.03125 300.527344 207.84375 300.535156 207.648438 C 300.464844 207.515625 300.402344 207.375 300.355469 207.226562 C 299.847656 205.84375 298.675781 204.507812 297.140625 203.566406 C 295.203125 202.355469 292.90625 201.707031 290.042969 201.097656 C 283.101562 199.597656 276.203125 198.851562 269.488281 198.851562 Z M 269.019531 223.824219 C 260.898438 223.824219 252.5 222.746094 244.0625 220.605469 C 241.929688 220.078125 239.453125 219.382812 237.214844 218.007812 C 234.511719 216.34375 232.726562 214.003906 232.1875 211.394531 C 231.453125 207.984375 232.90625 204.222656 235.988281 201.574219 C 238.511719 199.378906 241.71875 198.234375 244.519531 197.398438 C 258.761719 193.121094 274.859375 192.707031 291.089844 196.210938 C 294.007812 196.835938 297.085938 197.640625 299.769531 199.316406 C 302.308594 200.878906 304.195312 203.113281 305.078125 205.59375 C 305.085938 205.617188 305.09375 205.648438 305.101562 205.671875 C 305.1875 205.929688 305.234375 206.203125 305.234375 206.46875 C 305.234375 206.492188 305.234375 206.507812 305.234375 206.53125 C 305.304688 206.65625 305.359375 206.789062 305.40625 206.929688 C 305.460938 207.101562 305.523438 207.4375 305.546875 207.617188 C 306.148438 212.699219 301.332031 215.984375 299.269531 217.390625 C 296.414062 219.375 293.140625 220.398438 290.316406 221.144531 C 283.578125 222.933594 276.414062 223.824219 269.019531 223.824219 " fill-opacity="1" fill-rule="nonzero"/><path fill="#000000" d="M 267.355469 244.707031 C 264.695312 244.707031 261.96875 246.503906 261.15625 249.046875 C 260.191406 252.070312 262.023438 255.808594 265.015625 256.886719 C 267.996094 257.972656 271.796875 256.269531 272.992188 253.324219 C 273.625 251.75 273.515625 249.742188 272.703125 248.09375 C 272.15625 246.980469 271.050781 245.519531 268.855469 244.902344 C 268.363281 244.769531 267.863281 244.707031 267.355469 244.707031 Z M 266.863281 262.195312 C 265.664062 262.203125 264.460938 262 263.3125 261.585938 C 257.863281 259.617188 254.632812 253.035156 256.394531 247.515625 C 258.175781 242 264.617188 238.515625 270.207031 240.09375 C 273.296875 240.96875 275.78125 243.019531 277.191406 245.894531 C 278.628906 248.820312 278.792969 252.296875 277.621094 255.199219 C 275.914062 259.445312 271.375 262.195312 266.863281 262.195312 " fill-opacity="1" fill-rule="nonzero"/><path fill="#000000" d="M 297.59375 259.09375 C 297.367188 259.09375 297.140625 259.125 296.929688 259.1875 C 295.664062 259.546875 294.710938 261.070312 294.929688 262.375 C 295.15625 263.675781 296.546875 264.808594 297.882812 264.707031 C 298.652344 264.660156 299.769531 264.105469 300.292969 263.273438 C 300.707031 262.601562 300.714844 261.804688 300.316406 260.820312 C 299.894531 259.804688 298.707031 259.09375 297.59375 259.09375 Z M 297.75 269.703125 C 294.054688 269.703125 290.644531 266.878906 290.011719 263.226562 C 289.355469 259.414062 291.839844 255.457031 295.546875 254.386719 C 299.246094 253.308594 303.472656 255.355469 304.9375 258.921875 C 305.953125 261.398438 305.804688 263.878906 304.523438 265.917969 C 303.003906 268.355469 300.246094 269.5625 298.191406 269.695312 C 298.046875 269.703125 297.898438 269.703125 297.75 269.703125 " fill-opacity="1" fill-rule="nonzero"/><path fill="#000000" d="M 272.664062 282.359375 C 271.835938 282.359375 270.988281 282.664062 270.457031 283.257812 C 269.488281 284.351562 269.566406 286.363281 270.621094 287.402344 C 271.664062 288.433594 273.734375 288.496094 274.859375 287.519531 C 275.453125 287.011719 275.804688 286.246094 275.8125 285.472656 C 275.8125 284.59375 275.351562 283.726562 274.492188 282.976562 C 274.007812 282.554688 273.34375 282.359375 272.664062 282.359375 Z M 272.8125 293.234375 C 270.730469 293.234375 268.644531 292.46875 267.113281 290.960938 C 264.164062 288.058594 263.984375 283.015625 266.722656 279.9375 C 269.488281 276.839844 274.648438 276.496094 277.761719 279.199219 C 277.761719 279.199219 277.761719 279.199219 277.761719 279.207031 C 279.730469 280.914062 280.816406 283.148438 280.808594 285.488281 C 280.800781 287.699219 279.792969 289.878906 278.113281 291.3125 C 276.613281 292.59375 274.710938 293.234375 272.8125 293.234375 " fill-opacity="1" fill-rule="nonzero"/><path fill="#000000" d="M 296.132812 297.027344 C 295.796875 297.027344 295.453125 297.058594 295.117188 297.121094 C 292.953125 297.511719 291.058594 299.175781 290.386719 301.269531 C 289.714844 303.359375 290.300781 305.820312 291.832031 307.386719 C 293.679688 309.277344 296.914062 309.730469 299.183594 308.410156 C 300.503906 307.652344 302.011719 306.015625 302.386719 304.070312 C 302.691406 302.507812 302.222656 300.925781 300.996094 299.363281 C 299.855469 297.902344 297.992188 297.027344 296.132812 297.027344 Z M 296.273438 314.148438 C 293.3125 314.148438 290.355469 313.015625 288.261719 310.886719 C 285.421875 307.980469 284.390625 303.609375 285.625 299.746094 C 286.867188 295.882812 290.246094 292.921875 294.234375 292.203125 C 298.230469 291.484375 302.433594 293.085938 304.929688 296.277344 C 307.617188 299.707031 307.695312 302.929688 307.289062 305.023438 C 306.570312 308.746094 303.914062 311.449219 301.683594 312.742188 C 300.035156 313.6875 298.152344 314.148438 296.273438 314.148438 " fill-opacity="1" fill-rule="nonzero"/></svg>