<svg xmlns="http://www.w3.org/2000/svg" xmlns:xlink="http://www.w3.org/1999/xlink" width="512" zoomAndPan="magnify" viewBox="0 0 384 383.999986" height="512" preserveAspectRatio="xMidYMid meet" version="1.0"><path fill="#000000" d="M 192.003906 321.578125 C 189.867188 321.578125 187.847656 320.605469 186.511719 318.933594 C 170.652344 299.09375 144.253906 280.730469 59.246094 280.730469 C 49.414062 280.730469 42 272.789062 42 262.253906 L 42 79.667969 C 42 70.144531 49.71875 62.421875 59.203125 62.421875 C 132.207031 62.75 174.253906 77.9375 192 111.140625 C 209.75 77.9375 251.785156 62.75 324.726562 62.421875 C 334.28125 62.421875 342 70.140625 342 79.628906 L 342 263.484375 C 342 272.992188 334.265625 280.726562 324.753906 280.726562 C 239.765625 280.726562 213.363281 299.089844 197.488281 318.933594 C 196.160156 320.605469 194.140625 321.578125 192.003906 321.578125 Z M 59.214844 76.484375 C 57.472656 76.484375 56.0625 77.894531 56.0625 79.628906 L 56.0625 262.253906 C 56.0625 263.289062 56.292969 266.667969 59.246094 266.667969 C 127.542969 266.667969 166.957031 277.542969 192.003906 303.859375 C 217.066406 277.542969 256.476562 266.667969 324.757812 266.667969 C 326.515625 266.667969 327.941406 265.242188 327.941406 263.488281 L 327.941406 79.667969 C 327.941406 77.894531 326.53125 76.484375 324.796875 76.484375 C 247.386719 76.832031 208.535156 94.09375 198.816406 132.453125 C 198.027344 135.570312 195.21875 137.757812 192 137.757812 C 188.785156 137.757812 185.976562 135.570312 185.183594 132.453125 C 175.46875 94.09375 136.617188 76.832031 59.214844 76.484375 Z M 59.214844 76.484375 " fill-opacity="1" fill-rule="evenodd"/><path fill="#000000" d="M 192.003906 321.578125 C 188.121094 321.578125 184.972656 318.429688 184.972656 314.546875 L 184.972656 175.671875 C 184.972656 171.789062 188.121094 168.640625 192.003906 168.640625 C 195.890625 168.640625 199.035156 171.789062 199.035156 175.671875 L 199.035156 314.542969 C 199.035156 318.429688 195.886719 321.578125 192.003906 321.578125 Z M 192.003906 321.578125 " fill-opacity="1" fill-rule="evenodd"/></svg>