<svg xmlns="http://www.w3.org/2000/svg" xmlns:xlink="http://www.w3.org/1999/xlink" width="512" zoomAndPan="magnify" viewBox="0 0 384 383.999986" height="512" preserveAspectRatio="xMidYMid meet" version="1.0"><defs><clipPath id="f7b704eb19"><path d="M 145 129 L 342 129 L 342 345.785156 L 145 345.785156 Z M 145 129 " clip-rule="nonzero"/></clipPath><clipPath id="94653339a8"><path d="M 42 38.285156 L 204 38.285156 L 204 255 L 42 255 Z M 42 38.285156 " clip-rule="nonzero"/></clipPath></defs><g clip-path="url(#f7b704eb19)"><path fill="#000000" d="M 336.050781 130.398438 C 335.128906 129.777344 333.972656 129.597656 332.90625 129.925781 L 222.90625 163.457031 C 221.40625 163.914062 220.359375 165.273438 220.292969 166.84375 C 219.746094 180.644531 219.652344 196.890625 219.554688 214.097656 C 219.394531 242.257812 219.214844 272.96875 216.863281 295.773438 C 212.082031 288.167969 203.75 282.554688 194.183594 280.851562 C 182.683594 278.800781 170.9375 280.824219 161.972656 286.402344 C 153.625 291.597656 145.207031 302.164062 145.199219 314.050781 C 145.199219 322.171875 147.945312 329.292969 153.367188 335.226562 C 157.140625 339.359375 162.617188 342.367188 169.632812 344.167969 C 173.796875 345.230469 178 345.753906 182.117188 345.753906 C 191.453125 345.753906 200.339844 343.070312 207.257812 337.960938 C 211.601562 334.746094 215.054688 330.566406 217.429688 325.929688 C 218.027344 325.519531 218.515625 324.921875 218.789062 324.1875 C 226.398438 303.847656 226.675781 258.449219 226.925781 214.46875 C 249.703125 184.726562 331.652344 181.453125 332.484375 181.421875 C 332.789062 181.410156 333.09375 181.359375 333.375 181.273438 C 334.5625 206.878906 335.125 235.535156 333.542969 256.214844 C 328.730469 248.777344 320.5 243.304688 311.078125 241.628906 C 299.574219 239.578125 287.832031 241.605469 278.863281 247.183594 C 270.519531 252.378906 262.101562 262.941406 262.09375 274.828125 C 262.09375 282.941406 264.839844 290.070312 270.261719 296.007812 C 274.035156 300.136719 279.511719 303.148438 286.527344 304.945312 C 290.6875 306.011719 294.890625 306.535156 299.007812 306.535156 C 308.34375 306.535156 317.230469 303.855469 324.148438 298.738281 C 329.164062 295.035156 332.992188 290.035156 335.351562 284.53125 C 348.375 258.78125 338.082031 138.261719 337.640625 133.132812 C 337.566406 132.03125 336.976562 131.023438 336.050781 130.398438 Z M 202.882812 332.019531 C 194.683594 338.078125 182.941406 339.941406 171.476562 337.007812 C 165.875 335.570312 161.613281 333.292969 158.828125 330.242188 C 154.628906 325.648438 152.59375 320.347656 152.59375 314.050781 C 152.59375 306.332031 158.058594 297.539062 165.878906 292.675781 C 173.316406 288.046875 183.164062 286.390625 192.890625 288.121094 C 202.074219 289.757812 210.050781 296.191406 212.742188 304.140625 C 215.929688 313.527344 211.6875 325.511719 202.882812 332.019531 Z M 332.238281 174.046875 C 328.9375 174.164062 257.035156 177.039062 227.007812 203.664062 C 227.09375 191.480469 227.222656 179.980469 227.578125 169.769531 L 330.6875 138.335938 C 331.449219 147.753906 332.316406 160.304688 333.035156 174.113281 C 332.777344 174.054688 332.515625 174.035156 332.238281 174.046875 Z M 319.785156 292.800781 C 311.582031 298.855469 299.84375 300.722656 288.378906 297.785156 C 282.777344 296.351562 278.519531 294.074219 275.730469 291.019531 C 271.535156 286.425781 269.496094 281.128906 269.496094 274.828125 C 269.496094 267.109375 274.960938 258.320312 282.785156 253.457031 C 288.292969 250.027344 295.117188 248.230469 302.238281 248.230469 C 304.738281 248.230469 307.273438 248.449219 309.804688 248.898438 C 318.984375 250.539062 326.960938 256.96875 329.652344 264.917969 C 332.828125 274.304688 328.585938 286.292969 319.785156 292.800781 Z M 319.785156 292.800781 " fill-opacity="1" fill-rule="nonzero"/></g><g clip-path="url(#94653339a8)"><path fill="#000000" d="M 69.425781 252.457031 C 74.105469 253.652344 78.824219 254.242188 83.453125 254.242188 C 91.550781 254.242188 99.34375 252.4375 106.046875 248.972656 C 106.296875 248.917969 106.542969 248.839844 106.785156 248.726562 C 127.207031 239.34375 132.136719 213.703125 134.066406 195.230469 C 136.257812 174.28125 137.421875 153.164062 137.976562 132.066406 C 154.960938 148.941406 176.882812 159.011719 198.09375 159.375 C 198.113281 159.375 198.136719 159.375 198.15625 159.375 C 200.082031 159.375 201.6875 157.894531 201.835938 155.964844 L 203.664062 131.957031 C 204.480469 130.09375 203.636719 127.914062 201.773438 127.085938 C 185.414062 119.886719 170.773438 108.011719 159.4375 92.742188 C 148.171875 77.578125 140.703125 59.820312 137.835938 41.386719 C 137.539062 39.472656 135.808594 38.113281 133.871094 38.273438 C 131.9375 38.4375 130.460938 40.070312 130.492188 42.007812 C 131.242188 92.089844 132.019531 143.875 126.726562 194.460938 C 126.394531 197.617188 125.972656 201.011719 125.390625 204.484375 C 121.21875 192.941406 110.15625 184.019531 97.03125 181.679688 C 84.113281 179.378906 70.941406 181.648438 60.878906 187.910156 C 51.535156 193.722656 42.113281 205.535156 42.105469 218.820312 C 42.105469 227.890625 45.179688 235.855469 51.234375 242.484375 C 55.445312 247.089844 61.566406 250.445312 69.425781 252.457031 Z M 153.507812 97.144531 C 165.011719 112.628906 179.734375 124.851562 196.210938 132.652344 L 194.75 151.835938 C 174.386719 150.375 153.539062 139.234375 138.203125 121.492188 C 138.5 104.304688 138.449219 87.152344 138.265625 70.136719 C 142.179688 79.691406 147.300781 88.789062 153.507812 97.144531 Z M 64.773438 194.175781 C 73.304688 188.871094 84.585938 186.960938 95.726562 188.949219 C 106.296875 190.835938 115.488281 198.257812 118.59375 207.425781 C 122.261719 218.253906 117.390625 232.074219 107.246094 239.566406 C 97.835938 246.515625 84.382812 248.664062 71.25 245.296875 C 64.804688 243.648438 59.90625 241.019531 56.675781 237.492188 C 51.832031 232.191406 49.480469 226.078125 49.480469 218.816406 C 49.492188 209.90625 55.777344 199.78125 64.773438 194.175781 Z M 64.773438 194.175781 " fill-opacity="1" fill-rule="nonzero"/></g></svg>