<svg xmlns="http://www.w3.org/2000/svg" xmlns:xlink="http://www.w3.org/1999/xlink" width="512" zoomAndPan="magnify" viewBox="0 0 384 383.999986" height="512" preserveAspectRatio="xMidYMid meet" version="1.0"><path fill="#000000" d="M 145.625 50.074219 C 140.71875 50.5 137.628906 51.089844 133.835938 52.328125 C 119.042969 57.164062 107.105469 69.460938 102.875 84.21875 L 102.613281 85.125 L 102.027344 85.128906 C 101.648438 85.128906 101.078125 85.277344 100.4375 85.542969 L 97.75 86.65625 C 96.820312 87.039062 94.96875 87.789062 93.632812 88.316406 C 90.597656 89.519531 88.824219 90.355469 87.054688 91.410156 C 82.632812 94.039062 77.992188 98.5 74.726562 103.253906 C 71.328125 108.195312 69.15625 113.6875 68.242188 119.625 C 67.90625 121.816406 67.78125 126.320312 67.992188 128.578125 C 68.492188 133.964844 70.050781 139.367188 72.523438 144.292969 C 72.792969 144.835938 73 145.289062 72.976562 145.304688 C 72.957031 145.324219 72.207031 145.8125 71.3125 146.394531 C 59.386719 154.164062 51.101562 165.105469 48.179688 176.9375 C 47.234375 180.753906 46.9375 183.296875 46.9375 187.5 C 46.941406 193.382812 47.789062 198.269531 49.6875 203.3125 C 50.867188 206.457031 52.128906 208.886719 55.574219 214.636719 C 56.832031 216.742188 57.929688 218.605469 58.003906 218.773438 C 58.132812 219.054688 58.070312 219.199219 57.375 220.242188 C 55.515625 223.027344 54.097656 226.195312 53.246094 229.476562 C 51.386719 236.621094 51.941406 244.414062 54.8125 251.574219 C 56.480469 255.71875 59.011719 259.6875 61.886719 262.636719 C 62.925781 263.707031 64.769531 265.109375 66.964844 266.496094 C 70.046875 268.445312 72.019531 269.785156 72.183594 270.042969 C 72.308594 270.242188 72.394531 271.25 72.496094 273.8125 C 72.761719 280.558594 72.953125 282.019531 73.929688 284.9375 C 75.828125 290.617188 78.472656 295.113281 82.164062 298.957031 C 87.640625 304.65625 94.589844 308.246094 103.625 310.050781 C 105.699219 310.464844 109.203125 310.910156 109.679688 310.824219 C 110.046875 310.753906 110.082031 310.789062 110.554688 311.65625 C 117.425781 324.351562 129.347656 332.214844 144.0625 333.765625 C 146.226562 333.992188 151.027344 333.960938 153.351562 333.707031 C 167.109375 332.1875 179.222656 325.25 187.164062 314.34375 C 188.234375 312.878906 189.414062 310.992188 190.34375 309.277344 L 190.835938 308.371094 L 191.3125 309.089844 C 195.085938 314.792969 200.871094 320.699219 206.671875 324.761719 C 213.757812 329.730469 221.527344 332.839844 229.625 333.941406 C 231.621094 334.214844 236.445312 334.320312 238.453125 334.136719 C 245.316406 333.507812 251.539062 331.316406 256.875 327.644531 C 260.757812 324.972656 264.847656 320.839844 267.65625 316.75 C 268.710938 315.21875 269.976562 313.121094 270.652344 311.796875 L 271.1875 310.746094 L 271.6875 310.820312 C 272.738281 310.972656 278.910156 309.828125 282.164062 308.878906 C 295.078125 305.101562 303.097656 297.605469 307.246094 285.433594 C 308.328125 282.257812 308.523438 280.886719 308.8125 274.25 C 308.992188 270.15625 309.003906 270.0625 309.28125 269.847656 C 309.761719 269.472656 311.933594 268.03125 313.789062 266.851562 C 317.929688 264.21875 319.847656 262.523438 322.136719 259.46875 C 325.773438 254.625 327.980469 249.3125 328.941406 243.125 C 329.21875 241.320312 329.324219 236.820312 329.128906 234.929688 C 328.585938 229.582031 326.828125 224.355469 324.238281 220.375 C 323.816406 219.722656 323.441406 219.121094 323.410156 219.035156 C 323.378906 218.953125 323.773438 218.304688 324.285156 217.597656 C 336.335938 201.019531 337.617188 180.6875 327.664062 164.058594 C 323.464844 157.050781 317.117188 150.648438 309.992188 146.246094 C 309.070312 145.675781 308.746094 145.410156 308.792969 145.265625 C 308.824219 145.152344 309.160156 144.359375 309.535156 143.5 C 313.050781 135.480469 314.265625 126.589844 312.933594 118.675781 C 310.4375 103.828125 299.648438 92.238281 283.457031 87.007812 C 281.4375 86.355469 279.65625 85.875 279.25 85.875 C 278.953125 85.875 278.914062 85.792969 278.582031 84.46875 C 274.777344 69.382812 264.152344 58.019531 249.113281 52.957031 C 239.871094 49.84375 229.378906 49.566406 219.863281 52.175781 C 207.355469 55.609375 197.234375 63.757812 191.429688 75.0625 L 190.53125 76.8125 L 189.703125 75.1875 C 187.714844 71.289062 184.996094 67.539062 181.722656 64.179688 C 174.1875 56.441406 164.324219 51.574219 153.625 50.3125 C 152.027344 50.125 146.835938 49.96875 145.625 50.074219 M 144.289062 58.6875 C 142.230469 58.921875 139.671875 59.421875 137.875 59.9375 C 125.738281 63.429688 115.535156 73.078125 111.570312 84.8125 C 110.386719 88.3125 110.066406 90.222656 110.160156 93.234375 C 110.242188 95.804688 110.472656 97.0625 111.34375 99.6875 C 114.574219 109.425781 124.09375 119.105469 133.75 122.46875 C 135.578125 123.105469 135.355469 123.164062 136.238281 121.808594 C 137.464844 119.925781 138.898438 118.203125 140.863281 116.246094 C 144.523438 112.597656 146.84375 111.300781 151.0625 110.535156 C 152.46875 110.28125 155.46875 110.253906 156.75 110.484375 C 159.691406 111.011719 162.324219 112.351562 164.363281 114.363281 C 169.804688 119.726562 171.097656 129.367188 167.355469 136.652344 C 165.785156 139.707031 163.59375 141.898438 160.6875 143.320312 C 156.886719 145.179688 152.648438 145.316406 147.8125 143.738281 C 145.546875 143 143.6875 141.6875 140.742188 138.75 C 138.484375 136.503906 136.835938 134.472656 135.757812 132.617188 L 135.207031 131.671875 L 134.007812 131.386719 C 127.089844 129.726562 119.992188 125.4375 113.996094 119.296875 C 110.300781 115.511719 107.757812 112.011719 105.558594 107.6875 C 103.492188 103.628906 102.347656 100.015625 101.804688 95.863281 C 101.695312 95.011719 101.59375 94.304688 101.582031 94.292969 C 101.570312 94.285156 100.015625 94.886719 98.125 95.636719 C 92.09375 98.023438 90.113281 99.171875 86.816406 102.199219 C 80.96875 107.566406 77.339844 114.464844 76.503906 121.8125 C 76.3125 123.507812 76.34375 127.386719 76.566406 129.082031 C 77.21875 134.058594 78.882812 138.644531 81.785156 143.488281 C 83.25 145.933594 83.4375 146.980469 82.6875 148.597656 C 82.246094 149.550781 81.492188 150.203125 79.625 151.25 C 75.1875 153.734375 71.226562 156.683594 67.703125 160.121094 C 63.929688 163.8125 61.457031 167.101562 59.296875 171.3125 C 57.246094 175.3125 56.070312 179.199219 55.546875 183.707031 C 55.273438 186.058594 55.367188 190.457031 55.746094 192.9375 C 56.664062 198.957031 57.953125 202.117188 62.777344 210.1875 C 64.050781 212.320312 65.316406 214.457031 65.585938 214.9375 C 66.0625 215.792969 66.085938 215.816406 66.691406 215.914062 C 67.035156 215.972656 73.386719 216.066406 80.8125 216.121094 C 94.25 216.222656 95.078125 216.25 97.71875 216.695312 C 102.691406 217.539062 104.625 219.207031 111.558594 228.625 C 114.410156 232.5 115.523438 233.898438 116.726562 235.125 C 117.980469 236.402344 118.3125 237.101562 118.3125 238.5 C 118.3125 239.453125 118.269531 239.65625 117.902344 240.398438 C 117.433594 241.347656 116.871094 241.898438 115.878906 242.363281 C 115.304688 242.632812 115.007812 242.6875 114.125 242.6875 C 112.746094 242.6875 112.011719 242.34375 110.726562 241.089844 C 109.3125 239.71875 108.53125 238.75 104.765625 233.707031 C 101 228.664062 99.792969 227.164062 98.636719 226.09375 C 97.984375 225.488281 97.773438 225.371094 97.035156 225.207031 C 94.503906 224.632812 90.914062 224.507812 79.5 224.589844 C 71.144531 224.652344 68.042969 224.585938 65.539062 224.292969 L 64.890625 224.21875 L 64.183594 225.300781 C 61.945312 228.738281 60.625 233.4375 60.625 237.980469 C 60.625 243.84375 62.667969 250.023438 66.105469 254.5625 C 67.859375 256.882812 68.472656 257.390625 72.8125 260.179688 C 76.382812 262.472656 77.613281 263.378906 78.707031 264.535156 C 80.328125 266.253906 80.664062 267.375 80.875 271.8125 C 81.257812 279.867188 81.296875 280.28125 81.832031 281.9375 C 83.015625 285.59375 84.9375 289.203125 87.054688 291.738281 C 91.296875 296.828125 97.21875 300.101562 105.035156 301.683594 C 107.335938 302.152344 107.105469 302.335938 107.03125 300.074219 C 106.820312 293.835938 108.957031 287.230469 113.285156 280.75 C 119.808594 270.984375 130.164062 263.441406 139.636719 261.5625 L 140.714844 261.347656 L 141.195312 260.523438 C 143.738281 256.179688 149.097656 251.574219 153.125 250.273438 C 154.863281 249.710938 155.953125 249.5625 158.3125 249.566406 C 160.789062 249.566406 161.8125 249.722656 163.75 250.398438 C 168.234375 251.964844 172.003906 255.886719 173.734375 260.789062 C 174.46875 262.875 174.675781 264.167969 174.679688 266.8125 C 174.6875 269.390625 174.480469 270.738281 173.785156 272.675781 C 172.449219 276.398438 169.667969 279.546875 166.109375 281.375 C 164.476562 282.214844 162.25 282.9375 160.484375 283.195312 C 153.175781 284.277344 144.847656 279.480469 141.15625 272.0625 C 140.882812 271.511719 140.589844 270.851562 140.507812 270.59375 C 140.425781 270.335938 140.296875 270.125 140.226562 270.125 C 140.152344 270.125 139.402344 270.355469 138.558594 270.636719 C 135.984375 271.492188 132.757812 273.234375 130.136719 275.183594 C 122.902344 280.570312 117.421875 288.378906 115.867188 295.523438 C 115.714844 296.21875 115.582031 297.417969 115.539062 298.511719 C 115.410156 301.683594 115.800781 303.277344 117.535156 306.679688 C 122.265625 315.953125 130.003906 322.125 139.875 324.496094 C 146.882812 326.175781 154.757812 325.6875 161.855469 323.128906 C 166.839844 321.332031 171.308594 318.65625 175.144531 315.171875 C 179.804688 310.933594 183.609375 305.074219 185.476562 299.25 C 185.738281 298.4375 185.738281 298.359375 185.933594 259.5625 C 186.039062 238.179688 186.128906 220.203125 186.125 219.613281 L 186.125 218.539062 L 179.28125 218.453125 C 163.265625 218.253906 153.828125 217.925781 151.625 217.484375 C 149.824219 217.125 147.570312 215.667969 145.078125 213.25 C 143.027344 211.257812 141.878906 209.910156 138.140625 205.097656 C 136.609375 203.121094 134.921875 201.023438 134.394531 200.433594 C 132.34375 198.140625 132.042969 197.546875 132.15625 195.992188 C 132.265625 194.414062 133.207031 193.101562 134.707031 192.414062 C 136.089844 191.777344 137.980469 192.085938 139.179688 193.144531 C 140.070312 193.925781 141.90625 196.117188 144.671875 199.6875 C 147.914062 203.875 149.292969 205.527344 150.800781 207.027344 C 152.496094 208.71875 153.238281 209.191406 154.332031 209.296875 C 156.957031 209.542969 167.554688 209.832031 178.578125 209.957031 L 186.097656 210.039062 L 186.171875 207.738281 C 186.210938 206.472656 186.269531 198.703125 186.296875 190.46875 L 186.347656 175.5 L 175.507812 175.5 C 169.546875 175.5 158.664062 175.539062 151.332031 175.582031 L 137.996094 175.667969 L 137.160156 176.847656 C 134.882812 180.058594 130.027344 184.273438 126.984375 185.679688 C 123.738281 187.175781 118.925781 187.433594 115.4375 186.296875 C 113.488281 185.660156 112.253906 184.996094 110.5625 183.679688 C 107.332031 181.164062 105.191406 177.492188 104.292969 172.9375 C 103.960938 171.25 103.992188 167.984375 104.355469 166.285156 C 105.769531 159.683594 110.394531 155.203125 117.3125 153.726562 C 119.070312 153.355469 121.679688 153.359375 123.5 153.742188 C 127.230469 154.523438 130.699219 156.539062 133.699219 159.65625 C 134.457031 160.445312 135.488281 161.691406 135.988281 162.429688 C 136.902344 163.769531 138.152344 166.113281 138.324219 166.800781 L 138.414062 167.167969 L 155.851562 167.082031 C 165.445312 167.039062 176.230469 167 179.816406 167 L 186.34375 167 L 186.421875 157.71875 C 186.464844 152.613281 186.554688 136.429688 186.625 121.75 C 186.730469 99.074219 186.726562 94.988281 186.578125 94.5625 C 186.480469 94.289062 186.367188 93.5 186.320312 92.8125 C 185.914062 86.765625 183 79.292969 178.964844 73.945312 C 172.71875 65.671875 163.78125 60.34375 153.671875 58.867188 C 151.285156 58.515625 146.566406 58.425781 144.289062 58.6875 M 229.9375 58.953125 C 224.046875 59.550781 219.582031 60.785156 214.96875 63.09375 C 212.792969 64.179688 210.144531 65.863281 208.429688 67.246094 C 206.984375 68.410156 204.511719 70.867188 203.28125 72.355469 C 199.625 76.777344 196.839844 82.589844 195.511719 88.5625 C 195.269531 89.660156 195.257812 90.542969 195.070312 126.4375 C 194.960938 146.648438 194.875 164.015625 194.875 165.03125 L 194.875 166.875 L 204.980469 166.875 C 210.535156 166.875 221.238281 166.835938 228.761719 166.792969 L 242.4375 166.707031 L 243.125 165.59375 C 244.53125 163.320312 247.449219 160.015625 249.9375 157.878906 C 253.679688 154.667969 256.171875 153.574219 260.125 153.414062 C 267.359375 153.121094 274.21875 158.132812 276.609375 165.453125 C 278.5 171.242188 276.957031 177.308594 272.445312 181.820312 C 269.703125 184.566406 266.453125 186.226562 262.6875 186.816406 C 261.042969 187.074219 258.21875 187.015625 256.761719 186.699219 C 253.628906 186.011719 250.660156 184.449219 248.890625 182.554688 C 248.011719 181.613281 245.636719 178.605469 244.085938 176.46875 L 243.199219 175.25 L 236.757812 175.25 C 233.210938 175.25 222.34375 175.289062 212.605469 175.332031 L 194.902344 175.417969 L 194.828125 177.675781 C 194.789062 178.921875 194.734375 186.703125 194.707031 194.96875 L 194.660156 210 L 198.050781 210 C 205.5625 209.996094 222.160156 209.621094 225.921875 209.367188 C 227.765625 209.242188 227.792969 209.234375 228.484375 208.78125 C 229.390625 208.191406 231.867188 205.710938 233.386719 203.875 C 234.039062 203.085938 235.585938 201.144531 236.820312 199.5625 C 240.941406 194.277344 242.519531 192.535156 243.714844 191.929688 C 244.363281 191.601562 244.558594 191.5625 245.625 191.5625 C 246.671875 191.5625 246.886719 191.601562 247.4375 191.898438 C 248.652344 192.546875 249.363281 193.445312 249.699219 194.75 C 249.875 195.4375 249.882812 195.6875 249.757812 196.359375 C 249.554688 197.46875 249.269531 197.960938 248.152344 199.15625 C 246.847656 200.542969 245.835938 201.773438 243.121094 205.25 C 239.777344 209.535156 238.65625 210.851562 236.628906 212.875 C 234.078125 215.421875 231.824219 216.953125 229.9375 217.429688 C 228.015625 217.910156 219.113281 218.230469 201.40625 218.453125 L 194.625 218.535156 L 194.625 221.050781 C 194.625 222.429688 194.59375 226.992188 194.558594 231.1875 C 194.492188 238.898438 194.257812 286.140625 194.242188 294.984375 L 194.234375 299.78125 L 194.734375 300.007812 C 195.574219 300.382812 196.324219 301.203125 197.40625 302.921875 C 203.441406 312.535156 212.734375 320.140625 222.6875 323.617188 C 229.199219 325.890625 236.085938 326.40625 242 325.054688 C 251.0625 322.988281 258.484375 316.851562 263.449219 307.3125 C 265.003906 304.324219 265.542969 302.710938 265.738281 300.46875 C 266.179688 295.351562 263.921875 289.269531 259.535156 283.753906 C 258.378906 282.296875 255.070312 278.980469 253.625 277.828125 C 251.09375 275.804688 247.820312 273.871094 245.058594 272.773438 C 243.984375 272.34375 241.476562 271.570312 241.441406 271.660156 C 241.003906 272.847656 240.261719 274.46875 239.800781 275.242188 C 237.019531 279.917969 232.617188 283.347656 227.839844 284.558594 C 225.316406 285.199219 223.132812 285.25 220.5625 284.734375 C 212.574219 283.128906 207.128906 276.316406 207.125 267.917969 C 207.121094 260.640625 211.4375 254.546875 218.347656 252.078125 C 221.605469 250.914062 225.527344 250.929688 229.136719 252.125 C 232.273438 253.164062 234.664062 254.648438 237.070312 257.054688 C 238.816406 258.800781 239.90625 260.273438 240.71875 262 L 241.171875 262.960938 L 242.867188 263.300781 C 256.121094 265.964844 269.496094 278.539062 273.242188 291.863281 C 274.007812 294.585938 274.179688 295.902344 274.183594 299.09375 C 274.1875 300.691406 274.214844 302 274.25 302 C 274.554688 302 277.261719 301.410156 278.808594 301.007812 C 289.539062 298.214844 295.976562 292.425781 299.25 282.625 C 299.953125 280.511719 300.0625 279.746094 300.25 275.6875 C 300.628906 267.355469 300.753906 266.695312 302.277344 264.914062 C 303.488281 263.492188 304.011719 263.105469 310.585938 258.816406 C 312.433594 257.609375 313.605469 256.585938 314.773438 255.160156 C 317.921875 251.304688 320.039062 246.269531 320.636719 241.207031 C 320.824219 239.621094 320.71875 235.167969 320.460938 233.808594 C 319.847656 230.554688 318.578125 227.203125 317.089844 224.902344 L 316.523438 224.027344 L 314.722656 224.628906 C 313.730469 224.960938 312.304688 225.355469 311.554688 225.503906 C 309.589844 225.898438 306.085938 225.953125 300.125 225.691406 C 294.550781 225.445312 288.539062 225.414062 286.5625 225.621094 C 284.851562 225.796875 283.167969 226.15625 282.542969 226.480469 C 281.480469 227.023438 279.910156 228.914062 276.554688 233.6875 C 273.167969 238.5 270.992188 241.035156 269.625 241.761719 C 269.140625 242.023438 268.890625 242.0625 267.8125 242.0625 C 266.691406 242.0625 266.496094 242.027344 265.910156 241.71875 C 263.871094 240.644531 263.019531 238.242188 263.964844 236.21875 C 264.210938 235.695312 264.691406 235.046875 265.386719 234.304688 C 266.566406 233.039062 267.738281 231.5 270.378906 227.75 C 274.699219 221.617188 276.859375 219.507812 279.992188 218.367188 C 281.105469 217.960938 283.214844 217.484375 284.9375 217.246094 C 286.863281 216.980469 293.882812 216.953125 299.527344 217.1875 C 302.542969 217.3125 305.886719 217.378906 307.3125 217.34375 C 310.097656 217.277344 310.242188 217.246094 313.625 216.039062 L 315.3125 215.433594 L 316.824219 213.425781 C 321.777344 206.832031 324.6875 199.804688 325.644531 192.125 C 325.855469 190.433594 325.859375 185.457031 325.648438 183.75 C 324.703125 176.0625 321.585938 169.007812 316.402344 162.816406 C 314.195312 160.183594 310.671875 156.992188 307.539062 154.796875 C 305.96875 153.691406 302.832031 151.78125 301.519531 151.128906 C 300.015625 150.378906 299.105469 149.238281 298.871094 147.792969 C 298.6875 146.667969 298.894531 146 300.292969 143.234375 C 302.6875 138.496094 304.015625 134.441406 304.699219 129.8125 C 304.964844 127.984375 305.0625 124.230469 304.886719 122.375 C 303.691406 109.785156 295.253906 99.988281 281.566406 95.296875 C 280.675781 94.992188 279.875 94.769531 279.785156 94.804688 C 279.691406 94.839844 279.625 95.070312 279.625 95.359375 C 279.625 96.03125 279.195312 98.496094 278.820312 99.96875 C 275.226562 114.066406 261.546875 127.605469 247.046875 131.414062 L 245.460938 131.832031 L 244.9375 133.007812 C 243.953125 135.222656 242.621094 137.128906 240.75 139.003906 C 238.0625 141.695312 234.890625 143.523438 231.292969 144.457031 C 230.046875 144.78125 229.753906 144.808594 227.625 144.8125 C 225.855469 144.8125 225.0625 144.757812 224.25 144.585938 C 220.886719 143.863281 218.144531 142.394531 215.804688 140.066406 C 213.457031 137.726562 211.984375 134.957031 211.226562 131.460938 C 210.832031 129.644531 210.832031 126.257812 211.226562 124.414062 C 212.6875 117.617188 217.390625 112.859375 224.136719 111.355469 C 225.796875 110.984375 228.71875 110.949219 230.375 111.285156 C 235.011719 112.214844 239.476562 115.023438 242.574219 118.957031 C 243.445312 120.0625 244.660156 122.039062 244.882812 122.707031 C 244.957031 122.9375 245.097656 123.125 245.195312 123.125 C 245.554688 123.125 248.105469 122.207031 249.507812 121.574219 C 252.320312 120.300781 255.203125 118.523438 257.828125 116.433594 C 259.441406 115.148438 262.9375 111.65625 264.242188 110.027344 C 267.910156 105.445312 270.199219 100.671875 271 95.9375 C 271.375 93.742188 271.308594 90.9375 270.832031 88.625 C 269.542969 82.378906 267.226562 77.265625 263.667969 72.8125 C 257.699219 65.339844 248.992188 60.621094 238.5 59.179688 C 237.125 58.992188 231.121094 58.832031 229.9375 58.953125 M 152.292969 118.925781 C 150.207031 119.324219 149.296875 119.851562 147.199219 121.871094 C 145.144531 123.851562 142.75 126.933594 142.75 127.597656 C 142.75 127.902344 143.707031 129.378906 144.714844 130.625 C 145.6875 131.832031 148.359375 134.421875 149.269531 135.042969 C 150.105469 135.613281 151.019531 135.9375 152.5625 136.207031 C 156.625 136.917969 159.476562 134.945312 160.648438 130.625 C 160.890625 129.726562 160.933594 129.257812 160.933594 127.5625 C 160.933594 125.867188 160.890625 125.398438 160.648438 124.5 C 159.890625 121.699219 158.25 119.6875 156.207031 119.050781 C 155.332031 118.777344 153.394531 118.71875 152.292969 118.925781 M 225.640625 119.699219 C 223.058594 120.390625 221.402344 121.707031 220.304688 123.9375 C 218.175781 128.253906 219.765625 133.523438 223.789062 135.496094 C 225.128906 136.152344 226.195312 136.417969 227.5 136.417969 C 228.816406 136.417969 229.855469 136.15625 231.3125 135.453125 C 234.253906 134.039062 236.753906 131.308594 237.542969 128.65625 C 237.714844 128.078125 237.714844 127.917969 237.558594 127.3125 C 236.71875 124.085938 233.011719 120.695312 229.285156 119.742188 C 228.160156 119.457031 226.613281 119.4375 225.640625 119.699219 M 259.714844 163.128906 C 258.867188 163.273438 258.207031 163.625 257.035156 164.5625 C 255.34375 165.917969 251.980469 169.453125 251.664062 170.214844 C 251.609375 170.351562 253.203125 172.53125 255.179688 175.019531 C 256.472656 176.644531 257.859375 177.28125 260.125 177.289062 C 261.234375 177.292969 261.589844 177.238281 262.4375 176.949219 C 264.523438 176.234375 266.113281 174.886719 266.996094 173.089844 C 267.589844 171.886719 267.804688 170.867188 267.691406 169.8125 C 267.269531 165.867188 263.269531 162.515625 259.714844 163.128906 M 118.75 163.324219 C 115.476562 164.191406 113.75 166.425781 113.75 169.777344 C 113.75 174.273438 116.929688 177.671875 120.8125 177.324219 C 122.53125 177.167969 123.203125 176.882812 124.875 175.585938 C 126.667969 174.195312 129.054688 171.789062 129.421875 170.996094 C 129.59375 170.636719 128.4375 168.398438 127.445312 167.164062 C 125.949219 165.308594 123.789062 163.804688 121.917969 163.324219 C 120.976562 163.082031 119.667969 163.082031 118.75 163.324219 M 156.269531 258.191406 C 153.988281 258.6875 150.28125 261.878906 148.445312 264.929688 C 147.914062 265.816406 147.898438 266.082031 148.328125 267.273438 C 149.757812 271.257812 154.003906 274.605469 157.921875 274.839844 C 160.851562 275.015625 164.035156 273.3125 165.28125 270.902344 C 166.085938 269.355469 166.1875 268.890625 166.183594 266.8125 C 166.179688 265.023438 166.160156 264.882812 165.773438 263.757812 C 164.753906 260.816406 162.816406 258.851562 160.285156 258.195312 C 159.355469 257.957031 157.371094 257.953125 156.269531 258.191406 M 222.1875 259.808594 C 219.167969 260.476562 216.875 262.484375 215.980469 265.25 C 215.617188 266.367188 215.527344 268.707031 215.796875 270 C 216.4375 273.0625 218.777344 275.554688 221.75 276.339844 C 222.988281 276.667969 224.957031 276.636719 226.050781 276.269531 C 229.636719 275.078125 232.691406 271.855469 233.546875 268.367188 C 233.734375 267.617188 233.734375 267.488281 233.550781 266.867188 C 232.578125 263.523438 228.925781 260.488281 225.054688 259.816406 C 223.761719 259.589844 223.191406 259.589844 222.1875 259.808594 " fill-opacity="1" fill-rule="evenodd"/></svg>