<svg xmlns="http://www.w3.org/2000/svg" xmlns:xlink="http://www.w3.org/1999/xlink" width="512" zoomAndPan="magnify" viewBox="0 0 384 383.999986" height="512" preserveAspectRatio="xMidYMid meet" version="1.0"><defs><clipPath id="654ff82a9e"><path d="M 82.75 42 L 301 42 L 301 342 L 82.75 342 Z M 82.75 42 " clip-rule="nonzero"/></clipPath></defs><g clip-path="url(#654ff82a9e)"><path fill="#000000" d="M 152.191406 305.574219 L 152.191406 339.359375 C 152.191406 340.234375 151.734375 341.042969 150.984375 341.496094 C 150.589844 341.730469 150.148438 341.851562 149.703125 341.851562 C 149.300781 341.851562 148.898438 341.753906 148.535156 341.558594 L 133.722656 333.660156 L 118.671875 341.566406 C 117.902344 341.96875 116.976562 341.941406 116.230469 341.492188 C 115.484375 341.039062 115.027344 340.230469 115.027344 339.359375 L 115.027344 305.574219 C 115.027344 304.195312 116.140625 303.082031 117.515625 303.082031 C 118.890625 303.082031 120.003906 304.195312 120.003906 305.574219 L 120.003906 335.238281 L 132.578125 328.636719 C 133.304688 328.25 134.175781 328.253906 134.902344 328.640625 L 147.214844 335.207031 L 147.214844 305.574219 C 147.214844 304.195312 148.328125 303.082031 149.703125 303.082031 C 151.078125 303.082031 152.191406 304.195312 152.191406 305.574219 Z M 206.476562 165.539062 L 182.351562 165.539062 L 182.351562 146.839844 C 182.351562 145.460938 181.238281 144.347656 179.863281 144.347656 C 178.488281 144.347656 177.375 145.460938 177.375 146.839844 L 177.375 165.539062 L 153.476562 165.539062 C 152.101562 165.539062 150.988281 166.65625 150.988281 168.03125 C 150.988281 169.40625 152.101562 170.519531 153.476562 170.519531 L 177.375 170.519531 L 177.375 223.910156 C 177.375 225.285156 178.488281 226.402344 179.863281 226.402344 C 181.238281 226.402344 182.351562 225.285156 182.351562 223.910156 L 182.351562 170.519531 L 206.476562 170.519531 C 207.851562 170.519531 208.964844 169.40625 208.964844 168.03125 C 208.964844 166.65625 207.851562 165.539062 206.476562 165.539062 Z M 232.125 65 C 233.5 65 234.613281 63.882812 234.613281 62.507812 L 234.613281 44.492188 C 234.613281 43.117188 233.5 42 232.125 42 C 230.753906 42 229.636719 43.117188 229.636719 44.492188 L 229.636719 62.507812 C 229.636719 63.882812 230.753906 65 232.125 65 Z M 281.570312 63.71875 C 280.597656 62.746094 279.023438 62.746094 278.050781 63.71875 L 265.328125 76.457031 C 264.355469 77.429688 264.355469 79.007812 265.328125 79.980469 C 265.8125 80.464844 266.449219 80.710938 267.085938 80.710938 C 267.722656 80.710938 268.359375 80.464844 268.847656 79.980469 L 281.570312 67.242188 C 282.542969 66.269531 282.542969 64.691406 281.570312 63.71875 Z M 298.441406 112.0625 L 280.449219 112.0625 C 279.074219 112.0625 277.957031 113.175781 277.957031 114.550781 C 277.957031 115.929688 279.074219 117.042969 280.449219 117.042969 L 298.441406 117.042969 C 299.816406 117.042969 300.929688 115.929688 300.929688 114.550781 C 300.929688 113.175781 299.816406 112.0625 298.441406 112.0625 Z M 259.097656 103.152344 L 259.097656 290.898438 C 259.097656 294.765625 255.953125 297.917969 252.089844 297.917969 L 102.765625 297.917969 C 102.605469 297.917969 102.445312 297.898438 102.285156 297.867188 C 102.222656 297.855469 102.164062 297.832031 102.105469 297.816406 C 102.011719 297.789062 101.917969 297.765625 101.828125 297.730469 C 101.757812 297.703125 101.699219 297.664062 101.632812 297.628906 C 101.554688 297.589844 101.476562 297.554688 101.40625 297.507812 C 101.335938 297.460938 101.273438 297.402344 101.207031 297.351562 C 101.152344 297.308594 101.097656 297.273438 101.046875 297.226562 L 86.695312 283.496094 C 84.214844 281.125 82.792969 277.792969 82.792969 274.359375 L 82.792969 81.894531 C 82.792969 81.742188 82.808594 81.59375 82.835938 81.449219 C 82.84375 81.402344 82.855469 81.359375 82.867188 81.316406 C 82.890625 81.210938 82.921875 81.109375 82.960938 81.007812 C 82.976562 80.96875 82.988281 80.925781 83.007812 80.886719 C 83.066406 80.757812 83.132812 80.632812 83.210938 80.515625 C 83.222656 80.496094 83.238281 80.480469 83.25 80.460938 C 83.320312 80.359375 83.398438 80.265625 83.484375 80.179688 C 83.515625 80.144531 83.546875 80.117188 83.578125 80.085938 C 83.65625 80.015625 83.734375 79.945312 83.820312 79.882812 C 83.855469 79.859375 83.890625 79.832031 83.925781 79.808594 C 84.042969 79.734375 84.167969 79.664062 84.300781 79.605469 C 84.300781 79.605469 84.300781 79.605469 84.304688 79.605469 C 84.320312 79.597656 84.339844 79.59375 84.359375 79.585938 C 84.480469 79.539062 84.601562 79.5 84.726562 79.472656 C 84.769531 79.460938 84.808594 79.457031 84.851562 79.449219 C 84.972656 79.425781 85.09375 79.414062 85.214844 79.410156 C 85.234375 79.410156 85.257812 79.40625 85.28125 79.40625 L 230.628906 79.40625 C 234.183594 79.40625 237.089844 82.296875 237.113281 85.855469 L 237.175781 96.132812 L 252.089844 96.132812 C 255.953125 96.132812 259.097656 99.28125 259.097656 103.152344 Z M 100.277344 99.6875 L 87.769531 87.722656 L 87.769531 274.359375 C 87.769531 276.441406 88.628906 278.457031 90.132812 279.894531 L 100.277344 289.597656 Z M 103.765625 96.132812 L 232.199219 96.132812 L 232.136719 85.886719 C 232.132812 85.058594 231.457031 84.386719 230.628906 84.386719 L 91.484375 84.386719 Z M 254.121094 103.152344 C 254.121094 102.027344 253.210938 101.113281 252.089844 101.113281 L 105.253906 101.113281 L 105.253906 292.933594 L 252.089844 292.933594 C 253.210938 292.933594 254.121094 292.019531 254.121094 290.898438 Z M 254.121094 103.152344 " fill-opacity="1" fill-rule="nonzero"/><path fill="#000000" d="M 152.191406 305.574219 L 152.191406 339.359375 C 152.191406 340.234375 151.734375 341.042969 150.984375 341.496094 C 150.589844 341.730469 150.148438 341.851562 149.703125 341.851562 C 149.300781 341.851562 148.898438 341.753906 148.535156 341.558594 L 133.722656 333.660156 L 118.671875 341.566406 C 117.902344 341.96875 116.976562 341.941406 116.230469 341.492188 C 115.484375 341.039062 115.027344 340.230469 115.027344 339.359375 L 115.027344 305.574219 C 115.027344 304.195312 116.140625 303.082031 117.515625 303.082031 C 118.890625 303.082031 120.003906 304.195312 120.003906 305.574219 L 120.003906 335.238281 L 132.578125 328.636719 C 133.304688 328.25 134.175781 328.253906 134.902344 328.640625 L 147.214844 335.207031 L 147.214844 305.574219 C 147.214844 304.195312 148.328125 303.082031 149.703125 303.082031 C 151.078125 303.082031 152.191406 304.195312 152.191406 305.574219 Z M 206.476562 165.539062 L 182.351562 165.539062 L 182.351562 146.839844 C 182.351562 145.460938 181.238281 144.347656 179.863281 144.347656 C 178.488281 144.347656 177.375 145.460938 177.375 146.839844 L 177.375 165.539062 L 153.476562 165.539062 C 152.101562 165.539062 150.988281 166.65625 150.988281 168.03125 C 150.988281 169.40625 152.101562 170.519531 153.476562 170.519531 L 177.375 170.519531 L 177.375 223.910156 C 177.375 225.285156 178.488281 226.402344 179.863281 226.402344 C 181.238281 226.402344 182.351562 225.285156 182.351562 223.910156 L 182.351562 170.519531 L 206.476562 170.519531 C 207.851562 170.519531 208.964844 169.40625 208.964844 168.03125 C 208.964844 166.65625 207.851562 165.539062 206.476562 165.539062 Z M 232.125 65 C 233.5 65 234.613281 63.882812 234.613281 62.507812 L 234.613281 44.492188 C 234.613281 43.117188 233.5 42 232.125 42 C 230.753906 42 229.636719 43.117188 229.636719 44.492188 L 229.636719 62.507812 C 229.636719 63.882812 230.753906 65 232.125 65 Z M 281.570312 63.71875 C 280.597656 62.746094 279.023438 62.746094 278.050781 63.71875 L 265.328125 76.457031 C 264.355469 77.429688 264.355469 79.007812 265.328125 79.980469 C 265.8125 80.464844 266.449219 80.710938 267.085938 80.710938 C 267.722656 80.710938 268.359375 80.464844 268.847656 79.980469 L 281.570312 67.242188 C 282.542969 66.269531 282.542969 64.691406 281.570312 63.71875 Z M 298.441406 112.0625 L 280.449219 112.0625 C 279.074219 112.0625 277.957031 113.175781 277.957031 114.550781 C 277.957031 115.929688 279.074219 117.042969 280.449219 117.042969 L 298.441406 117.042969 C 299.816406 117.042969 300.929688 115.929688 300.929688 114.550781 C 300.929688 113.175781 299.816406 112.0625 298.441406 112.0625 Z M 259.097656 103.152344 L 259.097656 290.898438 C 259.097656 294.765625 255.953125 297.917969 252.089844 297.917969 L 102.765625 297.917969 C 102.605469 297.917969 102.445312 297.898438 102.285156 297.867188 C 102.222656 297.855469 102.164062 297.832031 102.105469 297.816406 C 102.011719 297.789062 101.917969 297.765625 101.828125 297.730469 C 101.757812 297.703125 101.699219 297.664062 101.632812 297.628906 C 101.554688 297.589844 101.476562 297.554688 101.40625 297.507812 C 101.335938 297.460938 101.273438 297.402344 101.207031 297.351562 C 101.152344 297.308594 101.097656 297.273438 101.046875 297.226562 L 86.695312 283.496094 C 84.214844 281.125 82.792969 277.792969 82.792969 274.359375 L 82.792969 81.894531 C 82.792969 81.742188 82.808594 81.59375 82.835938 81.449219 C 82.84375 81.402344 82.855469 81.359375 82.867188 81.316406 C 82.890625 81.210938 82.921875 81.109375 82.960938 81.007812 C 82.976562 80.96875 82.988281 80.925781 83.007812 80.886719 C 83.066406 80.757812 83.132812 80.632812 83.210938 80.515625 C 83.222656 80.496094 83.238281 80.480469 83.25 80.460938 C 83.320312 80.359375 83.398438 80.265625 83.484375 80.179688 C 83.515625 80.144531 83.546875 80.117188 83.578125 80.085938 C 83.65625 80.015625 83.734375 79.945312 83.820312 79.882812 C 83.855469 79.859375 83.890625 79.832031 83.925781 79.808594 C 84.042969 79.734375 84.167969 79.664062 84.300781 79.605469 C 84.300781 79.605469 84.300781 79.605469 84.304688 79.605469 C 84.320312 79.597656 84.339844 79.59375 84.359375 79.585938 C 84.480469 79.539062 84.601562 79.5 84.726562 79.472656 C 84.769531 79.460938 84.808594 79.457031 84.851562 79.449219 C 84.972656 79.425781 85.09375 79.414062 85.214844 79.410156 C 85.234375 79.410156 85.257812 79.40625 85.28125 79.40625 L 230.628906 79.40625 C 234.183594 79.40625 237.089844 82.296875 237.113281 85.855469 L 237.175781 96.132812 L 252.089844 96.132812 C 255.953125 96.132812 259.097656 99.28125 259.097656 103.152344 Z M 100.277344 99.6875 L 87.769531 87.722656 L 87.769531 274.359375 C 87.769531 276.441406 88.628906 278.457031 90.132812 279.894531 L 100.277344 289.597656 Z M 103.765625 96.132812 L 232.199219 96.132812 L 232.136719 85.886719 C 232.132812 85.058594 231.457031 84.386719 230.628906 84.386719 L 91.484375 84.386719 Z M 254.121094 103.152344 C 254.121094 102.027344 253.210938 101.113281 252.089844 101.113281 L 105.253906 101.113281 L 105.253906 292.933594 L 252.089844 292.933594 C 253.210938 292.933594 254.121094 292.019531 254.121094 290.898438 Z M 254.121094 103.152344 " fill-opacity="1" fill-rule="nonzero"/></g></svg>