<svg xmlns="http://www.w3.org/2000/svg" xmlns:xlink="http://www.w3.org/1999/xlink" width="512" zoomAndPan="magnify" viewBox="0 0 384 383.999986" height="512" preserveAspectRatio="xMidYMid meet" version="1.0"><defs><clipPath id="0f7142329c"><path d="M 42 97 L 342 97 L 342 286.75 L 42 286.75 Z M 42 97 " clip-rule="nonzero"/></clipPath></defs><g clip-path="url(#0f7142329c)"><path fill="#000000" d="M 341.851562 211.808594 C 341.027344 206.121094 335.457031 198.957031 334.824219 198.160156 C 334.339844 197.546875 333.601562 197.238281 332.859375 197.265625 C 332.972656 197.121094 333.078125 196.984375 333.171875 196.855469 C 333.660156 196.460938 333.992188 195.878906 334.054688 195.214844 C 334.183594 194.691406 334.132812 194.128906 333.902344 193.632812 C 333.574219 191.894531 332.46875 188.496094 328.773438 185.484375 C 332.367188 182.195312 333.257812 178.660156 333.472656 176.875 C 333.675781 176.335938 333.675781 175.738281 333.480469 175.199219 C 333.363281 174.625 333.035156 174.109375 332.558594 173.757812 C 331.53125 172.488281 329.460938 170.539062 325.914062 169.476562 C 327.085938 165.867188 326.605469 163 326.121094 161.417969 C 326.09375 160.863281 325.863281 160.332031 325.488281 159.921875 C 325.476562 159.90625 325.460938 159.886719 325.445312 159.871094 C 325.394531 159.800781 325.339844 159.734375 325.285156 159.671875 C 324.949219 159.25 324.480469 158.941406 323.957031 158.8125 C 322.746094 158.179688 320.703125 157.410156 317.921875 157.410156 C 317.285156 157.410156 316.636719 157.449219 315.988281 157.53125 C 315.601562 153.835938 314.046875 151.4375 312.988281 150.199219 C 312.730469 149.675781 312.285156 149.265625 311.753906 149.042969 C 311.265625 148.761719 310.6875 148.652344 310.132812 148.746094 C 309.867188 148.726562 309.59375 148.714844 309.316406 148.714844 C 307.484375 148.714844 304.238281 149.167969 300.765625 151.765625 C 298.46875 147.554688 295.300781 145.847656 293.660156 145.210938 C 293.203125 144.894531 292.640625 144.75 292.082031 144.792969 C 291.488281 144.765625 290.910156 144.949219 290.449219 145.320312 C 289.613281 145.699219 288.464844 146.355469 287.277344 147.433594 C 287.941406 146.113281 288.257812 144.949219 288.40625 144.144531 C 288.660156 143.601562 288.695312 142.984375 288.515625 142.421875 C 288.421875 141.871094 288.140625 141.359375 287.714844 140.992188 C 286.691406 139.5625 284.246094 136.925781 279.601562 135.753906 C 281.464844 131.242188 280.765625 127.65625 280.203125 125.953125 C 280.160156 125.386719 279.910156 124.851562 279.511719 124.449219 C 279.160156 123.980469 278.644531 123.648438 278.066406 123.53125 C 276.90625 122.96875 274.992188 122.300781 272.425781 122.300781 C 271.703125 122.300781 270.96875 122.355469 270.226562 122.460938 C 269.757812 118.695312 268.113281 116.296875 267.003906 115.070312 C 266.738281 114.574219 266.300781 114.1875 265.785156 113.976562 C 265.769531 113.96875 265.757812 113.960938 265.742188 113.953125 C 265.667969 113.914062 265.59375 113.878906 265.515625 113.84375 C 265.03125 113.597656 264.46875 113.511719 263.933594 113.621094 C 263.773438 113.613281 263.609375 113.609375 263.445312 113.609375 C 261.902344 113.609375 259.175781 113.941406 256.171875 115.828125 C 254.253906 112.640625 251.832031 111.125 250.34375 110.445312 C 249.894531 110.085938 249.332031 109.902344 248.75 109.925781 C 248.179688 109.871094 247.601562 110.015625 247.132812 110.34375 C 245.457031 110.988281 242.242188 112.726562 239.933594 117.03125 C 236.507812 114.507812 233.3125 114.070312 231.507812 114.070312 C 231.234375 114.070312 230.96875 114.078125 230.710938 114.097656 C 230.164062 114.003906 229.589844 114.113281 229.109375 114.390625 C 228.574219 114.609375 228.125 115.019531 227.867188 115.539062 C 227.304688 116.195312 226.59375 117.195312 225.992188 118.546875 C 226.0625 116.945312 225.835938 115.644531 225.597656 114.761719 C 225.585938 114.171875 225.355469 113.605469 224.960938 113.175781 C 224.644531 112.71875 224.167969 112.371094 223.628906 112.222656 C 222.367188 111.511719 220.199219 110.632812 217.191406 110.632812 C 217.164062 110.632812 217.136719 110.632812 217.113281 110.632812 C 217.09375 110.632812 217.078125 110.632812 217.058594 110.632812 C 216.070312 110.632812 215.0625 110.730469 214.042969 110.925781 C 213.792969 106.066406 211.640625 103.132812 210.402344 101.835938 C 210.117188 101.335938 209.652344 100.953125 209.113281 100.761719 C 208.71875 100.554688 208.277344 100.464844 207.835938 100.496094 C 207.660156 100.496094 207.488281 100.511719 207.320312 100.554688 C 207.273438 100.550781 207.21875 100.554688 207.171875 100.554688 C 207.15625 100.554688 207.140625 100.554688 207.125 100.554688 C 205.558594 100.574219 202.820312 100.929688 199.84375 102.871094 C 197.816406 99.703125 195.320312 98.253906 193.800781 97.621094 C 193.390625 97.3125 192.882812 97.152344 192.371094 97.152344 C 192.269531 97.144531 192.164062 97.140625 192.0625 97.148438 C 192.050781 97.148438 192.039062 97.148438 192.027344 97.148438 C 191.996094 97.148438 191.960938 97.148438 191.929688 97.148438 C 191.878906 97.148438 191.839844 97.148438 191.796875 97.152344 C 191.261719 97.140625 190.722656 97.296875 190.285156 97.621094 C 188.769531 98.25 186.273438 99.703125 184.242188 102.871094 C 181.148438 100.847656 178.304688 100.535156 176.773438 100.554688 C 176.59375 100.507812 176.414062 100.496094 176.230469 100.496094 C 175.800781 100.46875 175.367188 100.558594 174.980469 100.757812 C 174.4375 100.949219 173.96875 101.332031 173.683594 101.835938 C 172.449219 103.136719 170.292969 106.070312 170.046875 110.925781 C 169.023438 110.730469 168.015625 110.632812 167.027344 110.632812 C 167.007812 110.632812 166.992188 110.632812 166.976562 110.632812 C 166.949219 110.632812 166.925781 110.632812 166.898438 110.632812 C 163.886719 110.632812 161.71875 111.511719 160.460938 112.222656 C 159.914062 112.375 159.4375 112.722656 159.117188 113.1875 C 158.734375 113.613281 158.507812 114.171875 158.496094 114.746094 C 158.253906 115.632812 158.023438 116.9375 158.097656 118.546875 C 157.496094 117.199219 156.789062 116.203125 156.226562 115.546875 C 155.964844 115.019531 155.515625 114.605469 154.976562 114.386719 C 154.492188 114.113281 153.921875 114.003906 153.371094 114.097656 C 153.117188 114.078125 152.851562 114.070312 152.582031 114.070312 C 150.773438 114.070312 147.578125 114.507812 144.152344 117.03125 C 141.847656 112.730469 138.632812 110.992188 136.957031 110.347656 C 136.488281 110.015625 135.90625 109.871094 135.335938 109.925781 C 134.765625 109.902344 134.191406 110.085938 133.742188 110.445312 C 132.257812 111.121094 129.835938 112.640625 127.914062 115.828125 C 124.910156 113.941406 122.183594 113.609375 120.644531 113.609375 C 120.476562 113.609375 120.3125 113.613281 120.152344 113.621094 C 119.652344 113.519531 119.125 113.585938 118.664062 113.800781 C 118.5625 113.839844 118.464844 113.886719 118.367188 113.9375 C 118.328125 113.957031 118.292969 113.976562 118.253906 113.996094 C 117.757812 114.210938 117.339844 114.589844 117.085938 115.070312 C 115.976562 116.296875 114.328125 118.691406 113.859375 122.460938 C 113.121094 122.355469 112.386719 122.300781 111.660156 122.300781 C 109.09375 122.300781 107.171875 122.96875 106.015625 123.535156 C 105.445312 123.652344 104.933594 123.980469 104.585938 124.441406 C 104.179688 124.84375 103.925781 125.386719 103.882812 125.964844 C 103.316406 127.667969 102.625 131.246094 104.488281 135.753906 C 99.847656 136.925781 97.402344 139.558594 96.375 140.988281 C 95.945312 141.355469 95.664062 141.875 95.570312 142.429688 C 95.398438 142.988281 95.433594 143.597656 95.679688 144.132812 C 95.828125 144.941406 96.144531 146.109375 96.8125 147.433594 C 95.621094 146.355469 94.476562 145.699219 93.636719 145.320312 C 93.179688 144.949219 92.59375 144.761719 92.007812 144.792969 C 91.449219 144.75 90.886719 144.894531 90.429688 145.210938 C 88.789062 145.84375 85.621094 147.554688 83.324219 151.761719 C 79.851562 149.164062 76.605469 148.714844 74.773438 148.714844 C 74.492188 148.714844 74.21875 148.726562 73.957031 148.746094 C 73.398438 148.648438 72.820312 148.761719 72.335938 149.042969 C 71.800781 149.265625 71.355469 149.675781 71.097656 150.199219 C 70.039062 151.4375 68.488281 153.835938 68.101562 157.53125 C 67.449219 157.449219 66.804688 157.40625 66.167969 157.40625 C 63.382812 157.40625 61.335938 158.179688 60.128906 158.8125 C 59.632812 158.933594 59.1875 159.214844 58.863281 159.601562 C 58.785156 159.679688 58.714844 159.765625 58.648438 159.855469 C 58.621094 159.886719 58.597656 159.917969 58.574219 159.953125 C 58.214844 160.355469 57.996094 160.875 57.96875 161.417969 C 57.480469 162.996094 57.003906 165.863281 58.175781 169.476562 C 54.625 170.539062 52.554688 172.492188 51.527344 173.761719 C 51.050781 174.109375 50.726562 174.625 50.605469 175.199219 C 50.414062 175.734375 50.410156 176.332031 50.617188 176.871094 C 50.828125 178.652344 51.71875 182.191406 55.3125 185.484375 C 51.613281 188.5 50.511719 191.90625 50.183594 193.644531 C 49.945312 194.164062 49.902344 194.757812 50.058594 195.304688 C 50.140625 195.886719 50.433594 196.421875 50.882812 196.804688 C 50.984375 196.949219 51.105469 197.105469 51.234375 197.265625 C 50.457031 197.207031 49.675781 197.519531 49.171875 198.160156 C 48.539062 198.957031 42.96875 206.121094 42.144531 211.808594 C 41.992188 212.871094 42.566406 213.90625 43.554688 214.335938 L 181.960938 274.898438 C 181.875 275.433594 181.816406 275.976562 181.816406 276.535156 C 181.816406 282.078125 186.335938 286.589844 191.890625 286.589844 C 197.441406 286.589844 201.957031 282.078125 201.957031 276.535156 C 201.957031 276.007812 201.90625 275.496094 201.828125 274.992188 L 340.445312 214.335938 C 341.429688 213.90625 342.003906 212.871094 341.851562 211.808594 Z M 202.546875 269.464844 L 332.242188 202.691406 C 333.726562 204.789062 335.765625 208.019531 336.6875 210.769531 Z M 191.886719 281.820312 C 188.96875 281.820312 186.59375 279.449219 186.59375 276.535156 C 186.59375 273.621094 188.96875 271.253906 191.886719 271.253906 C 194.804688 271.253906 197.175781 273.621094 197.175781 276.535156 C 197.175781 279.449219 194.804688 281.820312 191.886719 281.820312 Z M 47.304688 210.769531 C 48.230469 208.023438 50.269531 204.789062 51.753906 202.691406 L 181.449219 269.464844 Z M 61.78125 173.605469 C 62.566406 173.515625 63.257812 173.046875 63.628906 172.34375 C 63.996094 171.644531 63.996094 170.808594 63.621094 170.113281 C 61.824219 166.738281 62.164062 164.152344 62.492188 162.96875 C 63.1875 162.628906 64.425781 162.183594 66.164062 162.183594 C 67.300781 162.183594 68.5 162.378906 69.726562 162.761719 C 70.480469 163 71.304688 162.847656 71.925781 162.355469 C 72.546875 161.863281 72.882812 161.097656 72.824219 160.308594 C 72.558594 156.671875 73.800781 154.480469 74.574219 153.492188 C 75.453125 153.472656 76.984375 153.613281 78.804688 154.550781 C 78.324219 154.78125 77.921875 155.160156 77.679688 155.636719 C 76.621094 156.875 75.066406 159.277344 74.675781 162.980469 C 74.023438 162.898438 73.378906 162.859375 72.742188 162.859375 C 69.945312 162.859375 67.898438 163.636719 66.691406 164.269531 C 66.210938 164.390625 65.773438 164.664062 65.449219 165.039062 C 65.371094 165.121094 65.296875 165.207031 65.226562 165.300781 C 65.191406 165.34375 65.15625 165.386719 65.121094 165.433594 C 64.789062 165.828125 64.582031 166.324219 64.546875 166.839844 C 64.0625 168.414062 63.570312 171.296875 64.746094 174.925781 C 61.167969 175.996094 59.09375 177.976562 58.074219 179.246094 C 57.648438 179.566406 57.351562 180.035156 57.214844 180.550781 C 55.957031 178.949219 55.53125 177.480469 55.394531 176.582031 C 56.222656 175.644531 58.144531 174.015625 61.78125 173.605469 Z M 94.542969 151.972656 C 93.035156 153.003906 91.304688 154.640625 89.898438 157.214844 C 88.859375 156.4375 87.84375 155.855469 86.875 155.417969 C 88.386719 151.738281 90.65625 150.300781 91.878906 149.773438 C 92.546875 150.109375 93.558594 150.765625 94.542969 151.972656 Z M 117.589844 127.359375 C 118.21875 126.882812 118.574219 126.125 118.53125 125.335938 C 118.328125 121.519531 119.730469 119.316406 120.53125 118.386719 C 121.757812 118.371094 124.359375 118.679688 127.175781 121.253906 C 127.761719 121.789062 128.570312 121.996094 129.339844 121.816406 C 130.109375 121.632812 130.742188 121.078125 131.023438 120.339844 C 132.320312 116.929688 134.378906 115.46875 135.496094 114.902344 C 136.328125 115.257812 137.648438 116.035156 138.886719 117.648438 C 138.351562 117.648438 137.820312 117.824219 137.394531 118.160156 C 135.910156 118.835938 133.484375 120.355469 131.5625 123.542969 C 128.5625 121.660156 125.835938 121.328125 124.292969 121.328125 C 124.125 121.328125 123.960938 121.332031 123.800781 121.339844 C 123.296875 121.238281 122.773438 121.308594 122.308594 121.519531 C 122.210938 121.558594 122.117188 121.601562 122.023438 121.652344 C 121.980469 121.675781 121.933594 121.695312 121.890625 121.722656 C 121.40625 121.9375 120.996094 122.308594 120.746094 122.773438 C 119.636719 123.996094 117.980469 126.398438 117.507812 130.179688 C 116.769531 130.070312 116.035156 130.015625 115.3125 130.015625 C 112.726562 130.015625 110.800781 130.695312 109.640625 131.261719 C 109.117188 131.375 108.644531 131.671875 108.304688 132.082031 C 107.839844 130.105469 108.078125 128.59375 108.335938 127.722656 C 109.011719 127.425781 110.136719 127.074219 111.660156 127.074219 C 112.851562 127.074219 114.101562 127.292969 115.382812 127.722656 C 116.132812 127.972656 116.957031 127.839844 117.589844 127.359375 Z M 253.0625 120.339844 C 253.34375 121.078125 253.976562 121.632812 254.746094 121.816406 C 255.515625 121.996094 256.324219 121.789062 256.910156 121.253906 C 259.730469 118.679688 262.339844 118.367188 263.554688 118.386719 C 264.355469 119.320312 265.757812 121.519531 265.554688 125.335938 C 265.515625 126.125 265.867188 126.882812 266.496094 127.359375 C 267.128906 127.839844 267.953125 127.972656 268.703125 127.722656 C 269.984375 127.292969 271.234375 127.074219 272.425781 127.074219 C 273.949219 127.074219 275.074219 127.425781 275.75 127.722656 C 276.007812 128.589844 276.242188 130.101562 275.78125 132.082031 C 275.4375 131.667969 274.964844 131.367188 274.433594 131.253906 C 273.273438 130.691406 271.351562 130.015625 268.773438 130.015625 C 268.050781 130.015625 267.316406 130.070312 266.578125 130.179688 C 266.105469 126.398438 264.449219 123.996094 263.339844 122.773438 C 263.097656 122.328125 262.714844 121.96875 262.257812 121.75 C 262.171875 121.699219 262.082031 121.65625 261.988281 121.617188 C 261.941406 121.59375 261.894531 121.574219 261.84375 121.554688 C 261.367188 121.3125 260.8125 121.234375 260.289062 121.339844 C 260.125 121.332031 259.960938 121.328125 259.792969 121.328125 C 258.25 121.328125 255.523438 121.660156 252.519531 123.542969 C 250.601562 120.355469 248.175781 118.839844 246.691406 118.164062 C 246.269531 117.824219 245.738281 117.648438 245.195312 117.648438 C 246.433594 116.035156 247.753906 115.257812 248.589844 114.902344 C 249.707031 115.46875 251.765625 116.929688 253.0625 120.339844 Z M 292.207031 149.773438 C 293.429688 150.300781 295.699219 151.742188 297.210938 155.417969 C 296.246094 155.855469 295.226562 156.4375 294.1875 157.214844 C 292.78125 154.640625 291.050781 153.003906 289.542969 151.972656 C 290.527344 150.765625 291.539062 150.109375 292.207031 149.773438 Z M 311.261719 160.308594 C 311.203125 161.097656 311.539062 161.863281 312.160156 162.355469 C 312.78125 162.847656 313.605469 163 314.359375 162.761719 C 315.585938 162.378906 316.785156 162.183594 317.921875 162.183594 C 319.664062 162.183594 320.925781 162.648438 321.59375 162.972656 C 321.925781 164.15625 322.261719 166.742188 320.464844 170.113281 C 320.089844 170.808594 320.089844 171.644531 320.457031 172.34375 C 320.824219 173.046875 321.519531 173.515625 322.304688 173.605469 C 325.9375 174.015625 327.863281 175.644531 328.691406 176.582031 C 328.554688 177.480469 328.128906 178.949219 326.871094 180.546875 C 326.734375 180.03125 326.433594 179.5625 326.007812 179.238281 C 324.984375 177.96875 322.914062 175.996094 319.335938 174.925781 C 320.511719 171.292969 320.023438 168.414062 319.535156 166.839844 C 319.503906 166.359375 319.324219 165.894531 319.027344 165.515625 C 318.957031 165.410156 318.878906 165.3125 318.792969 165.222656 C 318.757812 165.179688 318.726562 165.140625 318.6875 165.101562 C 318.359375 164.699219 317.90625 164.402344 317.402344 164.273438 C 316.195312 163.636719 314.144531 162.855469 311.34375 162.855469 C 310.707031 162.855469 310.058594 162.898438 309.410156 162.980469 C 309.019531 159.273438 307.460938 156.871094 306.402344 155.632812 C 306.164062 155.15625 305.757812 154.777344 305.277344 154.546875 C 307.09375 153.609375 308.628906 153.46875 309.511719 153.492188 C 310.285156 154.480469 311.527344 156.671875 311.261719 160.308594 Z M 185.609375 108.953125 C 186.382812 108.789062 187.027344 108.253906 187.324219 107.519531 C 188.777344 103.988281 190.988281 102.59375 192.109375 102.09375 C 193.226562 102.59375 195.4375 103.988281 196.886719 107.519531 C 197.1875 108.253906 197.832031 108.789062 198.605469 108.953125 C 199.378906 109.117188 200.1875 108.886719 200.757812 108.335938 C 203.355469 105.839844 205.796875 105.367188 207.128906 105.332031 C 207.734375 106.007812 208.59375 107.273438 209.023438 109.257812 C 208.53125 109.027344 207.972656 108.957031 207.441406 109.085938 C 205.859375 109.078125 203.011719 109.386719 199.882812 111.464844 C 197.84375 108.25 195.320312 106.789062 193.796875 106.152344 C 193.386719 105.851562 192.886719 105.691406 192.382812 105.6875 C 192.273438 105.679688 192.167969 105.675781 192.0625 105.683594 C 192.015625 105.683594 191.964844 105.683594 191.914062 105.6875 C 191.378906 105.667969 190.851562 105.835938 190.421875 106.152344 C 188.894531 106.785156 186.375 108.25 184.332031 111.464844 C 181.203125 109.386719 178.347656 109.078125 176.773438 109.085938 C 176.242188 108.957031 175.683594 109.027344 175.195312 109.257812 C 175.625 107.273438 176.484375 106.007812 177.085938 105.332031 C 178.417969 105.367188 180.863281 105.839844 183.457031 108.335938 C 184.027344 108.886719 184.832031 109.117188 185.609375 108.953125 Z M 70.199219 175.558594 C 68.402344 172.191406 68.738281 169.605469 69.066406 168.421875 C 69.734375 168.09375 70.996094 167.632812 72.742188 167.632812 C 73.878906 167.632812 75.078125 167.824219 76.304688 168.210938 C 77.058594 168.445312 77.882812 168.292969 78.503906 167.800781 C 79.121094 167.3125 79.460938 166.546875 79.402344 165.757812 C 79.132812 162.121094 80.378906 159.929688 81.148438 158.941406 C 82.597656 158.902344 85.726562 159.289062 89.023438 162.835938 C 89.597656 163.457031 90.460938 163.726562 91.285156 163.542969 C 92.113281 163.363281 92.78125 162.757812 93.046875 161.957031 C 94.019531 158.984375 95.484375 157.257812 96.75 156.253906 L 91.65625 172.269531 C 88.179688 170.347656 84.578125 169.261719 81.414062 169.261719 C 78.179688 169.261719 75.570312 170.347656 73.863281 172.402344 C 71.648438 175.066406 71.332031 178.894531 72.964844 183.179688 C 73.875 185.554688 75.335938 187.933594 77.226562 190.15625 L 61.957031 198.359375 C 62.621094 196.851562 64.050781 194.839844 67.136719 193.148438 C 67.878906 192.738281 68.347656 191.972656 68.375 191.125 C 68.398438 190.28125 67.976562 189.488281 67.261719 189.035156 C 63.167969 186.460938 62.195312 183.488281 61.96875 182.03125 C 62.796875 181.089844 64.722656 179.464844 68.355469 179.054688 C 69.140625 178.964844 69.835938 178.496094 70.203125 177.792969 C 70.570312 177.09375 70.570312 176.257812 70.199219 175.558594 Z M 113.808594 144.019531 C 111.195312 139.957031 111.570312 136.851562 111.984375 135.4375 C 112.660156 135.140625 113.785156 134.789062 115.3125 134.789062 C 116.5 134.789062 117.753906 135.007812 119.03125 135.4375 C 119.78125 135.6875 120.609375 135.554688 121.238281 135.078125 C 121.867188 134.597656 122.222656 133.839844 122.179688 133.050781 C 121.976562 129.238281 123.378906 127.035156 124.179688 126.101562 C 125.382812 126.066406 128.003906 126.394531 130.824219 128.96875 C 131.410156 129.503906 132.222656 129.710938 132.992188 129.53125 C 133.761719 129.347656 134.390625 128.792969 134.671875 128.054688 C 135.972656 124.644531 138.027344 123.183594 139.144531 122.617188 C 140.5 123.195312 143.140625 124.875 144.625 129.476562 C 144.886719 130.28125 145.550781 130.886719 146.375 131.074219 C 147.199219 131.257812 148.066406 130.992188 148.644531 130.375 C 150.777344 128.105469 152.839844 127.15625 154.410156 126.785156 L 143.019531 139.128906 C 139.375 134.101562 134.667969 130.96875 130.351562 130.96875 C 129.101562 130.96875 127.921875 131.226562 126.835938 131.738281 C 123.703125 133.21875 121.792969 136.550781 121.460938 141.125 C 121.277344 143.660156 121.59375 146.433594 122.367188 149.242188 L 105.054688 150.226562 C 106.292969 149.140625 108.441406 147.921875 111.957031 147.691406 C 112.800781 147.636719 113.550781 147.136719 113.933594 146.382812 C 114.3125 145.628906 114.269531 144.730469 113.808594 144.019531 Z M 235.441406 130.375 C 236.019531 130.992188 236.882812 131.257812 237.707031 131.074219 C 238.535156 130.886719 239.199219 130.28125 239.460938 129.476562 C 240.945312 124.875 243.582031 123.195312 244.941406 122.617188 C 246.058594 123.183594 248.113281 124.644531 249.414062 128.054688 C 249.695312 128.792969 250.324219 129.347656 251.09375 129.53125 C 251.863281 129.710938 252.675781 129.503906 253.257812 128.96875 C 256.078125 126.398438 258.671875 126.066406 259.90625 126.101562 C 260.703125 127.035156 262.105469 129.238281 261.90625 133.050781 C 261.863281 133.839844 262.214844 134.597656 262.847656 135.078125 C 263.476562 135.554688 264.304688 135.6875 265.054688 135.4375 C 266.332031 135.007812 267.585938 134.789062 268.773438 134.789062 C 270.296875 134.789062 271.425781 135.140625 272.101562 135.4375 C 272.515625 136.851562 272.890625 139.957031 270.277344 144.019531 C 269.816406 144.730469 269.769531 145.628906 270.152344 146.382812 C 270.53125 147.140625 271.285156 147.636719 272.128906 147.691406 C 275.644531 147.921875 277.789062 149.140625 279.03125 150.226562 L 261.71875 149.246094 C 262.492188 146.433594 262.808594 143.660156 262.625 141.125 C 262.292969 136.550781 260.382812 133.21875 257.25 131.738281 C 256.164062 131.226562 254.984375 130.96875 253.734375 130.96875 C 249.414062 130.96875 244.710938 134.105469 241.066406 139.128906 L 229.675781 126.785156 C 231.246094 127.164062 233.3125 128.109375 235.441406 130.375 Z M 291.039062 161.957031 C 291.304688 162.761719 291.972656 163.363281 292.800781 163.542969 C 293.625 163.726562 294.488281 163.457031 295.0625 162.835938 C 298.359375 159.289062 301.519531 158.902344 302.933594 158.941406 C 303.707031 159.929688 304.953125 162.121094 304.683594 165.757812 C 304.625 166.546875 304.960938 167.3125 305.582031 167.804688 C 306.203125 168.292969 307.023438 168.445312 307.78125 168.210938 C 309.007812 167.824219 310.207031 167.632812 311.34375 167.632812 C 313.089844 167.632812 314.347656 168.09375 315.019531 168.421875 C 315.347656 169.605469 315.683594 172.191406 313.886719 175.558594 C 313.515625 176.257812 313.515625 177.09375 313.882812 177.792969 C 314.25 178.492188 314.941406 178.964844 315.730469 179.054688 C 319.363281 179.464844 321.289062 181.089844 322.113281 182.03125 C 321.890625 183.488281 320.914062 186.460938 316.824219 189.035156 C 316.109375 189.488281 315.6875 190.28125 315.710938 191.125 C 315.738281 191.96875 316.207031 192.738281 316.949219 193.144531 C 320.035156 194.839844 321.464844 196.851562 322.128906 198.359375 L 306.859375 190.15625 C 308.75 187.933594 310.210938 185.554688 311.117188 183.179688 C 312.753906 178.894531 312.4375 175.066406 310.222656 172.402344 C 308.515625 170.347656 305.90625 169.261719 302.671875 169.261719 C 299.507812 169.261719 295.90625 170.34375 292.429688 172.265625 L 287.332031 156.253906 C 288.601562 157.257812 290.066406 158.984375 291.039062 161.957031 Z M 185.609375 117.484375 C 186.382812 117.324219 187.027344 116.785156 187.324219 116.054688 C 188.777344 112.519531 190.988281 111.128906 192.109375 110.625 C 193.226562 111.125 195.4375 112.519531 196.886719 116.054688 C 197.1875 116.789062 197.832031 117.324219 198.605469 117.484375 C 199.378906 117.648438 200.1875 117.417969 200.757812 116.871094 C 203.355469 114.375 205.796875 113.902344 207.128906 113.863281 C 208.109375 114.964844 209.777344 117.609375 209.148438 122.402344 C 209.039062 123.238281 209.382812 124.074219 210.050781 124.59375 C 210.71875 125.113281 211.609375 125.242188 212.398438 124.929688 C 214.066406 124.273438 215.675781 123.941406 217.1875 123.941406 C 217.929688 123.941406 218.578125 124.023438 219.144531 124.144531 L 203.574219 130.441406 C 202.082031 122.488281 197.570312 116.855469 192.097656 116.855469 C 186.550781 116.855469 181.996094 122.648438 180.566406 130.777344 L 164.507812 124.28125 C 165.1875 124.089844 166.027344 123.941406 167.027344 123.941406 C 168.539062 123.941406 170.152344 124.273438 171.820312 124.929688 C 172.605469 125.242188 173.5 125.113281 174.164062 124.59375 C 174.832031 124.074219 175.175781 123.238281 175.066406 122.402344 C 174.4375 117.609375 176.105469 114.964844 177.085938 113.863281 C 178.417969 113.902344 180.859375 114.375 183.457031 116.871094 C 184.027344 117.417969 184.832031 117.648438 185.609375 117.484375 Z M 248.78125 239.855469 L 248.222656 240.144531 C 248.21875 240.078125 248.207031 240.015625 248.203125 239.953125 C 248.167969 239.425781 248.121094 238.902344 248.050781 238.386719 C 248.046875 238.351562 248.039062 238.320312 248.035156 238.285156 C 247.96875 237.796875 247.882812 237.3125 247.789062 236.839844 C 247.765625 236.726562 247.742188 236.613281 247.71875 236.5 C 247.613281 236.007812 247.496094 235.523438 247.359375 235.046875 C 247.335938 234.96875 247.308594 234.894531 247.285156 234.816406 C 247.160156 234.390625 247.019531 233.972656 246.867188 233.558594 C 246.832031 233.46875 246.800781 233.375 246.765625 233.285156 C 246.59375 232.832031 246.402344 232.386719 246.199219 231.949219 C 246.15625 231.855469 246.109375 231.765625 246.066406 231.675781 C 245.871094 231.277344 245.667969 230.886719 245.449219 230.503906 C 245.417969 230.449219 245.386719 230.390625 245.355469 230.335938 C 245.113281 229.917969 244.851562 229.511719 244.578125 229.113281 C 244.515625 229.023438 244.449219 228.933594 244.386719 228.84375 C 244.101562 228.441406 243.808594 228.050781 243.492188 227.671875 C 243.203125 227.320312 242.894531 226.980469 242.578125 226.652344 C 242.503906 226.574219 242.433594 226.5 242.355469 226.425781 C 242.042969 226.105469 241.714844 225.792969 241.378906 225.492188 C 241.339844 225.457031 241.296875 225.425781 241.257812 225.390625 C 240.945312 225.121094 240.625 224.863281 240.296875 224.609375 C 240.214844 224.546875 240.132812 224.484375 240.050781 224.421875 C 239.691406 224.15625 239.320312 223.898438 238.9375 223.652344 C 238.871094 223.609375 238.800781 223.566406 238.730469 223.523438 C 238.386719 223.308594 238.039062 223.101562 237.679688 222.90625 C 237.597656 222.859375 237.519531 222.816406 237.4375 222.769531 C 237.035156 222.554688 236.621094 222.351562 236.195312 222.15625 C 236.105469 222.117188 236.011719 222.074219 235.917969 222.035156 C 235.53125 221.867188 235.140625 221.707031 234.746094 221.554688 C 234.675781 221.53125 234.609375 221.5 234.539062 221.476562 C 234.089844 221.3125 233.632812 221.164062 233.167969 221.023438 C 233.121094 221.007812 233.078125 220.992188 233.027344 220.976562 L 233.53125 220.335938 C 238.511719 220.964844 242.539062 222.988281 245.230469 226.230469 C 248.121094 229.710938 249.339844 234.402344 248.78125 239.855469 Z M 243.480469 242.585938 L 197.863281 266.070312 L 229.816406 225.101562 C 234.007812 225.941406 237.445312 227.867188 239.8125 230.71875 C 242.375 233.800781 243.632812 237.882812 243.480469 242.585938 Z M 139.699219 228.84375 C 139.636719 228.933594 139.570312 229.023438 139.507812 229.113281 C 139.234375 229.511719 138.976562 229.917969 138.730469 230.332031 C 138.699219 230.390625 138.667969 230.449219 138.636719 230.507812 C 138.417969 230.886719 138.214844 231.277344 138.023438 231.671875 C 137.976562 231.765625 137.933594 231.855469 137.886719 231.949219 C 137.683594 232.386719 137.496094 232.828125 137.320312 233.28125 C 137.285156 233.375 137.253906 233.472656 137.21875 233.566406 C 137.066406 233.972656 136.929688 234.386719 136.804688 234.804688 C 136.777344 234.890625 136.75 234.96875 136.726562 235.054688 C 136.589844 235.523438 136.472656 236.007812 136.367188 236.492188 C 136.34375 236.609375 136.320312 236.730469 136.296875 236.847656 C 136.203125 237.3125 136.121094 237.785156 136.054688 238.265625 C 136.046875 238.308594 136.039062 238.351562 136.035156 238.394531 C 135.964844 238.902344 135.917969 239.421875 135.882812 239.945312 C 135.878906 240.011719 135.867188 240.078125 135.863281 240.144531 L 135.304688 239.855469 C 134.746094 234.402344 135.964844 229.710938 138.855469 226.230469 C 141.550781 222.988281 145.578125 220.964844 150.558594 220.335938 L 151.058594 220.980469 C 151.011719 220.992188 150.964844 221.011719 150.917969 221.023438 C 150.453125 221.164062 149.996094 221.316406 149.550781 221.476562 C 149.480469 221.503906 149.414062 221.53125 149.34375 221.558594 C 148.945312 221.707031 148.554688 221.867188 148.167969 222.039062 C 148.074219 222.078125 147.984375 222.117188 147.894531 222.160156 C 147.46875 222.351562 147.054688 222.558594 146.644531 222.773438 C 146.566406 222.816406 146.488281 222.859375 146.410156 222.90625 C 146.050781 223.105469 145.699219 223.3125 145.351562 223.527344 C 145.285156 223.570312 145.214844 223.609375 145.148438 223.652344 C 144.765625 223.898438 144.394531 224.15625 144.03125 224.425781 C 143.953125 224.488281 143.875 224.546875 143.796875 224.609375 C 143.464844 224.863281 143.140625 225.121094 142.828125 225.394531 C 142.789062 225.429688 142.746094 225.460938 142.710938 225.496094 C 142.371094 225.792969 142.046875 226.105469 141.730469 226.425781 C 141.65625 226.5 141.582031 226.578125 141.511719 226.652344 C 141.195312 226.984375 140.886719 227.320312 140.59375 227.671875 C 140.277344 228.050781 139.984375 228.441406 139.699219 228.84375 Z M 90.878906 188.242188 C 91.425781 187.949219 91.835938 187.457031 92.027344 186.863281 L 101.425781 157.332031 L 102.898438 159.21875 L 93.371094 189.144531 L 65.683594 204.015625 L 63.554688 202.917969 Z M 87.761719 184.496094 L 84.65625 186.167969 C 84.269531 184.351562 84.476562 182.824219 85.277344 181.859375 C 86.222656 180.722656 87.832031 180.460938 89.050781 180.449219 Z M 81.597656 178.8125 C 80.078125 180.644531 79.5 183.019531 79.753906 185.628906 C 78.753906 184.253906 77.957031 182.847656 77.433594 181.480469 C 76.453125 178.914062 76.492188 176.714844 77.542969 175.453125 C 78.511719 174.28125 80.183594 174.039062 81.414062 174.039062 C 83.40625 174.039062 85.671875 174.636719 87.96875 175.726562 C 85.277344 175.960938 83.09375 177.015625 81.597656 178.8125 Z M 135.546875 153.28125 C 136.167969 153.246094 136.75 152.96875 137.167969 152.515625 L 158.195312 129.726562 L 158.730469 132.058594 L 137.425781 155.148438 L 107.121094 156.867188 L 105.644531 154.972656 Z M 126.230469 141.472656 C 126.429688 138.730469 127.394531 136.753906 128.878906 136.054688 C 129.320312 135.847656 129.816406 135.742188 130.351562 135.742188 C 132.527344 135.742188 135.527344 137.441406 138.246094 140.730469 C 137.035156 140.289062 135.828125 140.042969 134.644531 140.042969 C 133.398438 140.042969 132.21875 140.304688 131.132812 140.816406 C 128.980469 141.832031 127.449219 143.738281 126.574219 146.210938 C 126.253906 144.542969 126.121094 142.929688 126.230469 141.472656 Z M 134.308594 148.570312 L 130.789062 148.769531 C 131.207031 146.960938 132.039062 145.667969 133.175781 145.128906 C 133.613281 144.921875 134.109375 144.816406 134.644531 144.816406 C 135.410156 144.816406 136.273438 145.03125 137.195312 145.445312 Z M 246.917969 152.515625 C 247.335938 152.96875 247.917969 153.246094 248.539062 153.28125 L 278.441406 154.972656 L 276.964844 156.867188 L 246.664062 155.148438 L 225.394531 132.101562 L 225.910156 129.75 Z M 246.894531 145.445312 C 247.8125 145.03125 248.675781 144.816406 249.441406 144.816406 C 249.976562 144.816406 250.472656 144.921875 250.910156 145.128906 C 252.050781 145.667969 252.882812 146.960938 253.296875 148.769531 L 249.777344 148.570312 Z M 257.519531 146.167969 C 256.628906 143.664062 255.070312 141.816406 252.953125 140.816406 C 251.871094 140.304688 250.6875 140.042969 249.441406 140.042969 C 248.257812 140.042969 247.050781 140.289062 245.84375 140.730469 C 248.558594 137.4375 251.558594 135.742188 253.734375 135.742188 C 254.269531 135.742188 254.765625 135.847656 255.207031 136.054688 C 256.691406 136.753906 257.660156 138.730469 257.859375 141.472656 C 257.964844 142.917969 257.835938 144.515625 257.519531 146.167969 Z M 292.058594 186.863281 C 292.25 187.457031 292.660156 187.949219 293.207031 188.242188 L 320.53125 202.917969 L 318.402344 204.015625 L 290.714844 189.144531 L 281.1875 159.21875 L 282.660156 157.332031 Z M 299.429688 186.167969 L 296.324219 184.496094 L 295.035156 180.449219 C 296.253906 180.460938 297.863281 180.722656 298.808594 181.859375 C 299.609375 182.824219 299.816406 184.351562 299.429688 186.167969 Z M 302.488281 178.8125 C 300.996094 177.015625 298.808594 175.960938 296.121094 175.722656 C 298.414062 174.636719 300.683594 174.039062 302.671875 174.039062 C 303.902344 174.039062 305.574219 174.28125 306.542969 175.453125 C 307.59375 176.714844 307.632812 178.914062 306.652344 181.480469 C 306.128906 182.847656 305.332031 184.253906 304.332031 185.628906 C 304.585938 183.019531 304.007812 180.644531 302.488281 178.8125 Z M 253.683594 236.648438 C 253.683594 236.558594 253.683594 236.464844 253.679688 236.371094 C 253.667969 235.984375 253.644531 235.597656 253.613281 235.214844 C 253.605469 235.125 253.597656 235.03125 253.589844 234.941406 C 253.5625 234.648438 253.53125 234.359375 253.496094 234.074219 C 253.480469 233.949219 253.460938 233.824219 253.445312 233.703125 C 253.410156 233.441406 253.367188 233.179688 253.324219 232.921875 C 253.300781 232.804688 253.28125 232.6875 253.261719 232.570312 C 253.203125 232.261719 253.136719 231.957031 253.066406 231.65625 C 253.054688 231.597656 253.042969 231.542969 253.03125 231.484375 C 252.941406 231.128906 252.847656 230.773438 252.742188 230.421875 C 252.71875 230.335938 252.6875 230.25 252.660156 230.160156 C 252.582031 229.902344 252.496094 229.640625 252.40625 229.382812 C 252.367188 229.273438 252.328125 229.164062 252.285156 229.054688 C 252.195312 228.8125 252.101562 228.574219 252.003906 228.339844 C 251.964844 228.238281 251.921875 228.136719 251.882812 228.039062 C 251.75 227.738281 251.613281 227.4375 251.472656 227.144531 C 251.457031 227.121094 251.449219 227.09375 251.433594 227.066406 C 251.273438 226.746094 251.105469 226.433594 250.933594 226.121094 C 250.882812 226.035156 250.832031 225.953125 250.78125 225.867188 C 250.652344 225.644531 250.519531 225.421875 250.378906 225.203125 C 250.316406 225.105469 250.25 225.007812 250.183594 224.90625 C 250.046875 224.695312 249.902344 224.488281 249.753906 224.285156 C 249.691406 224.199219 249.628906 224.109375 249.566406 224.023438 C 249.355469 223.738281 249.136719 223.457031 248.90625 223.183594 C 248.578125 222.785156 248.230469 222.40625 247.871094 222.039062 C 247.789062 221.957031 247.710938 221.875 247.628906 221.792969 C 247.269531 221.4375 246.902344 221.09375 246.519531 220.769531 C 246.460938 220.71875 246.402344 220.671875 246.34375 220.625 C 245.992188 220.332031 245.632812 220.054688 245.257812 219.785156 C 245.175781 219.722656 245.09375 219.660156 245.007812 219.601562 C 244.597656 219.3125 244.171875 219.039062 243.734375 218.777344 C 243.640625 218.722656 243.546875 218.671875 243.453125 218.617188 C 243.046875 218.382812 242.632812 218.160156 242.207031 217.949219 C 242.144531 217.917969 242.082031 217.886719 242.019531 217.855469 C 241.550781 217.628906 241.066406 217.421875 240.574219 217.226562 C 240.457031 217.179688 240.34375 217.136719 240.230469 217.09375 C 239.726562 216.902344 239.214844 216.71875 238.683594 216.558594 C 238.667969 216.554688 238.648438 216.550781 238.632812 216.546875 C 238.117188 216.390625 237.589844 216.253906 237.050781 216.128906 C 236.984375 216.113281 236.917969 216.089844 236.847656 216.074219 L 251.140625 197.75 C 252.203125 202.402344 254.480469 209.136719 259.304688 214.613281 C 259.3125 214.621094 259.320312 214.625 259.328125 214.632812 C 259.335938 214.640625 259.339844 214.648438 259.34375 214.65625 C 264.167969 220.824219 270.957031 224.378906 275.355469 226.175781 L 253.695312 237.328125 C 253.695312 237.097656 253.691406 236.875 253.683594 236.648438 Z M 137.742188 220.625 C 137.683594 220.671875 137.621094 220.71875 137.566406 220.769531 C 137.183594 221.09375 136.816406 221.4375 136.457031 221.792969 C 136.375 221.875 136.296875 221.957031 136.214844 222.039062 C 135.855469 222.40625 135.507812 222.785156 135.179688 223.183594 C 134.949219 223.457031 134.734375 223.738281 134.523438 224.019531 C 134.457031 224.109375 134.394531 224.199219 134.328125 224.289062 C 134.183594 224.492188 134.042969 224.695312 133.902344 224.902344 C 133.835938 225.003906 133.769531 225.105469 133.703125 225.210938 C 133.570312 225.421875 133.4375 225.640625 133.308594 225.855469 C 133.257812 225.949219 133.203125 226.035156 133.152344 226.128906 C 132.976562 226.4375 132.8125 226.746094 132.652344 227.0625 C 132.636719 227.097656 132.621094 227.132812 132.605469 227.167969 C 132.464844 227.453125 132.335938 227.742188 132.207031 228.03125 C 132.164062 228.136719 132.121094 228.242188 132.078125 228.347656 C 131.980469 228.578125 131.890625 228.8125 131.804688 229.046875 C 131.761719 229.160156 131.71875 229.273438 131.679688 229.390625 C 131.589844 229.640625 131.507812 229.894531 131.429688 230.148438 C 131.398438 230.242188 131.367188 230.332031 131.339844 230.425781 C 131.238281 230.773438 131.144531 231.128906 131.058594 231.484375 C 131.042969 231.542969 131.03125 231.605469 131.015625 231.667969 C 130.949219 231.964844 130.882812 232.265625 130.828125 232.570312 C 130.804688 232.6875 130.785156 232.804688 130.765625 232.925781 C 130.71875 233.183594 130.675781 233.441406 130.640625 233.703125 C 130.625 233.824219 130.605469 233.949219 130.589844 234.074219 C 130.554688 234.363281 130.523438 234.65625 130.496094 234.949219 C 130.488281 235.039062 130.480469 235.125 130.472656 235.214844 C 130.441406 235.597656 130.421875 235.984375 130.40625 236.375 C 130.402344 236.460938 130.40625 236.546875 130.402344 236.632812 C 130.394531 236.863281 130.390625 237.09375 130.390625 237.328125 L 108.726562 226.175781 C 113.128906 224.378906 119.914062 220.824219 124.742188 214.660156 C 124.746094 214.652344 124.75 214.644531 124.757812 214.636719 C 124.761719 214.625 124.773438 214.621094 124.78125 214.613281 C 129.601562 209.136719 131.882812 202.402344 132.945312 197.75 L 147.234375 216.074219 C 147.167969 216.089844 147.101562 216.113281 147.035156 216.128906 C 146.496094 216.253906 145.96875 216.390625 145.449219 216.546875 C 145.433594 216.550781 145.417969 216.554688 145.402344 216.5625 C 144.871094 216.722656 144.359375 216.902344 143.851562 217.09375 C 143.738281 217.136719 143.625 217.183594 143.515625 217.226562 C 143.019531 217.421875 142.535156 217.628906 142.066406 217.855469 C 142.003906 217.886719 141.941406 217.917969 141.878906 217.949219 C 141.453125 218.160156 141.039062 218.382812 140.628906 218.617188 C 140.535156 218.671875 140.441406 218.722656 140.351562 218.777344 C 139.914062 219.039062 139.488281 219.3125 139.074219 219.601562 C 138.992188 219.664062 138.910156 219.726562 138.824219 219.785156 C 138.453125 220.054688 138.09375 220.332031 137.742188 220.625 Z M 257.207031 196.078125 C 257.4375 197.175781 258.390625 197.90625 259.515625 197.914062 C 260.65625 197.910156 261.601562 197.089844 261.847656 195.996094 C 262.058594 195.058594 263.226562 193.832031 264.453125 192.839844 C 264.933594 194.59375 264.566406 197.351562 264.003906 199.167969 C 263.695312 200.152344 264.054688 201.222656 264.894531 201.824219 C 265.308594 202.121094 265.796875 202.269531 266.28125 202.269531 C 266.777344 202.269531 267.273438 202.117188 267.695312 201.808594 C 272.363281 198.394531 275.335938 200.535156 275.839844 200.953125 C 276.160156 201.527344 277.710938 204.839844 273.492188 208.789062 C 272.742188 209.492188 272.527344 210.597656 272.960938 211.53125 C 273.394531 212.464844 274.367188 213.019531 275.402344 212.902344 C 277.296875 212.683594 280.082031 212.832031 281.722656 213.628906 C 280.515625 214.648438 279.097656 215.566406 278.136719 215.601562 C 277.03125 215.640625 276.101562 216.425781 275.878906 217.503906 C 275.65625 218.582031 276.199219 219.671875 277.195312 220.144531 C 277.210938 220.152344 278.304688 220.75 279.09375 222.484375 C 275.925781 221.371094 269.300781 218.566406 264.410156 213.246094 C 264.804688 213.285156 265.195312 213.308594 265.570312 213.308594 C 267.90625 213.308594 269.851562 212.621094 271.367188 211.265625 C 274.136719 208.78125 274.207031 205.085938 274.207031 204.675781 C 274.207031 204.007812 273.929688 203.410156 273.488281 202.976562 C 273.144531 202.464844 272.605469 202.078125 271.949219 201.953125 C 271.542969 201.875 267.894531 201.265625 264.9375 203.527344 C 263.0625 204.964844 261.980469 207.144531 261.707031 210 C 257.339844 204.21875 255.777344 197.128906 255.253906 193.785156 C 256.800781 194.875 257.195312 196.050781 257.207031 196.078125 Z M 267.023438 208.332031 C 267.234375 207.921875 267.503906 207.585938 267.828125 207.332031 C 268.144531 207.082031 268.503906 206.914062 268.867188 206.804688 C 268.691406 207.132812 268.46875 207.449219 268.175781 207.710938 C 267.863281 207.992188 267.476562 208.195312 267.023438 208.332031 Z M 122.378906 210 C 122.105469 207.144531 121.023438 204.960938 119.144531 203.527344 C 116.191406 201.265625 112.542969 201.875 112.136719 201.953125 C 111.480469 202.078125 110.941406 202.460938 110.597656 202.976562 C 110.15625 203.40625 109.878906 204.007812 109.878906 204.675781 C 109.875 205.085938 109.945312 208.78125 112.71875 211.265625 C 114.234375 212.621094 116.179688 213.304688 118.515625 213.304688 C 118.890625 213.304688 119.277344 213.28125 119.671875 213.246094 C 114.796875 218.542969 108.167969 221.359375 104.992188 222.480469 C 105.777344 220.761719 106.867188 220.15625 106.886719 220.144531 C 107.925781 219.710938 108.46875 218.640625 108.269531 217.535156 C 108.070312 216.433594 107.074219 215.640625 105.949219 215.601562 C 104.988281 215.566406 103.570312 214.648438 102.363281 213.628906 C 104.003906 212.832031 106.785156 212.683594 108.675781 212.898438 C 109.699219 213.019531 110.691406 212.472656 111.125 211.535156 C 111.558594 210.601562 111.34375 209.492188 110.59375 208.789062 C 106.375 204.84375 107.925781 201.53125 108.246094 200.957031 C 108.746094 200.539062 111.71875 198.390625 116.390625 201.808594 C 116.808594 202.117188 117.304688 202.269531 117.800781 202.269531 C 118.289062 202.269531 118.777344 202.121094 119.191406 201.824219 C 120.03125 201.222656 120.390625 200.152344 120.082031 199.171875 C 119.585938 197.578125 119.140625 194.675781 119.636719 192.835938 C 120.859375 193.828125 122.023438 195.050781 122.238281 195.996094 C 122.484375 197.085938 123.433594 197.941406 124.550781 197.941406 C 124.554688 197.941406 124.558594 197.941406 124.5625 197.941406 C 125.6875 197.933594 126.632812 197.226562 126.867188 196.128906 C 126.886719 196.066406 127.285156 194.875 128.828125 193.789062 C 128.308594 197.128906 126.746094 204.21875 122.378906 210 Z M 117.0625 208.332031 C 116.621094 208.199219 116.238281 208 115.929688 207.730469 C 115.625 207.460938 115.394531 207.140625 115.21875 206.804688 C 115.574219 206.914062 115.925781 207.078125 116.238281 207.316406 C 116.570312 207.570312 116.84375 207.914062 117.0625 208.332031 Z M 138.660156 159.859375 C 139.28125 159.824219 139.863281 159.550781 140.28125 159.09375 L 160.023438 137.703125 L 167.316406 169.542969 C 166.449219 169.65625 165.675781 169.847656 164.996094 170.082031 C 164.257812 167.652344 162.914062 165.574219 162.523438 165 C 161.988281 164.210938 161.03125 163.820312 160.097656 163.996094 C 156.898438 164.609375 155.027344 167.398438 153.957031 170.015625 C 150.429688 166.886719 146.414062 166.933594 144.375 167.605469 C 144.195312 167.667969 144.027344 167.75 143.871094 167.847656 C 143.699219 167.90625 143.527344 167.980469 143.367188 168.082031 C 141.550781 169.226562 138.964844 172.296875 139.144531 177.003906 C 136.445312 176.171875 133.097656 175.847656 130.59375 177.921875 C 129.859375 178.53125 129.558594 179.519531 129.828125 180.433594 C 130.023438 181.097656 130.777344 183.453125 132.1875 185.566406 C 131.636719 185.902344 131.066406 186.320312 130.492188 186.835938 L 110.691406 161.445312 Z M 195.59375 133.667969 L 191.652344 135.261719 L 188.378906 133.9375 C 189.535156 132.484375 190.839844 131.667969 192.097656 131.667969 C 193.273438 131.667969 194.496094 132.382812 195.59375 133.667969 Z M 190.757812 140.050781 C 191.332031 140.28125 191.976562 140.28125 192.550781 140.050781 L 221.3125 128.417969 L 220.796875 130.753906 L 191.65625 142.539062 L 163.421875 131.121094 L 162.882812 128.773438 Z M 243.804688 159.09375 C 244.222656 159.550781 244.804688 159.824219 245.425781 159.859375 L 273.394531 161.445312 L 253.59375 186.835938 C 253.019531 186.320312 252.449219 185.902344 251.898438 185.566406 C 253.308594 183.453125 254.0625 181.097656 254.257812 180.433594 C 254.527344 179.519531 254.226562 178.53125 253.496094 177.925781 C 250.988281 175.847656 247.644531 176.171875 244.941406 177.007812 C 245.121094 172.296875 242.535156 169.230469 240.71875 168.082031 C 240.558594 167.980469 240.386719 167.90625 240.210938 167.847656 C 240.058594 167.75 239.890625 167.667969 239.710938 167.609375 C 237.671875 166.933594 233.660156 166.886719 230.128906 170.015625 C 229.058594 167.402344 227.1875 164.613281 223.988281 164 C 223.054688 163.820312 222.097656 164.214844 221.5625 165.003906 C 221.171875 165.574219 219.828125 167.652344 219.089844 170.082031 C 218.507812 169.882812 217.855469 169.714844 217.132812 169.597656 L 224.140625 137.789062 Z M 137.613281 184.4375 C 136.757812 184 135.859375 182.566406 135.199219 181.132812 C 135.222656 181.132812 135.246094 181.132812 135.273438 181.132812 C 137.09375 181.132812 139.628906 182.160156 141.230469 183.140625 C 142.109375 183.683594 143.234375 183.601562 144.027344 182.941406 C 144.816406 182.277344 145.089844 181.183594 144.707031 180.226562 C 142.546875 174.835938 145.390625 172.5 145.902344 172.132812 C 146.539062 171.964844 150.136719 171.289062 152.917969 176.347656 C 153.339844 177.121094 154.148438 177.585938 155.011719 177.585938 C 155.15625 177.585938 155.300781 177.574219 155.445312 177.546875 C 156.460938 177.359375 157.238281 176.542969 157.378906 175.523438 C 157.640625 173.632812 158.476562 170.980469 159.65625 169.589844 C 160.351562 171.027344 160.878906 172.636719 160.679688 173.550781 C 160.441406 174.625 160.972656 175.722656 161.964844 176.207031 C 162.953125 176.691406 164.144531 176.433594 164.851562 175.585938 C 164.859375 175.574219 165.710938 174.664062 167.589844 174.332031 C 165.703125 177.136719 161.285156 182.90625 154.875 186.300781 C 155.835938 183.597656 155.78125 181.164062 154.6875 179.070312 C 152.96875 175.773438 149.402344 174.785156 149 174.683594 C 148.355469 174.519531 147.703125 174.636719 147.175781 174.957031 C 146.589844 175.164062 146.085938 175.589844 145.800781 176.195312 C 145.625 176.566406 144.125 179.945312 145.585938 183.367188 C 146.511719 185.539062 148.355469 187.125 151.054688 188.101562 C 144.390625 190.839844 137.1875 190.589844 133.835938 190.265625 C 135.273438 189.039062 136.515625 188.953125 136.539062 188.949219 C 137.65625 188.992188 138.609375 188.257812 138.894531 187.171875 C 139.183594 186.085938 138.617188 184.945312 137.613281 184.4375 Z M 223.410156 173.550781 C 223.203125 172.613281 223.742188 171.011719 224.429688 169.59375 C 225.609375 170.980469 226.445312 173.632812 226.707031 175.519531 C 226.84375 176.542969 227.621094 177.359375 228.636719 177.546875 C 228.78125 177.574219 228.929688 177.589844 229.074219 177.589844 C 229.933594 177.589844 230.742188 177.121094 231.167969 176.351562 C 233.949219 171.289062 237.546875 171.964844 238.183594 172.132812 C 238.695312 172.5 241.542969 174.832031 239.378906 180.226562 C 238.996094 181.183594 239.269531 182.277344 240.058594 182.941406 C 240.851562 183.601562 241.976562 183.683594 242.855469 183.140625 C 244.273438 182.265625 246.992188 181.113281 248.886719 181.136719 C 248.214844 182.585938 247.304688 184.011719 246.472656 184.4375 C 245.472656 184.945312 244.878906 186.085938 245.164062 187.167969 C 245.449219 188.253906 246.386719 188.996094 247.492188 188.949219 C 247.558594 188.953125 248.8125 189.039062 250.257812 190.269531 C 246.914062 190.597656 239.71875 190.855469 233.03125 188.101562 C 235.730469 187.125 237.578125 185.539062 238.503906 183.367188 C 239.960938 179.945312 238.460938 176.566406 238.285156 176.195312 C 238 175.589844 237.496094 175.164062 236.910156 174.957031 C 236.382812 174.636719 235.730469 174.519531 235.085938 174.683594 C 234.683594 174.785156 231.121094 175.773438 229.398438 179.070312 C 228.308594 181.164062 228.25 183.597656 229.210938 186.300781 C 222.804688 182.90625 218.386719 177.144531 216.5 174.335938 C 218.359375 174.667969 219.21875 175.570312 219.234375 175.589844 C 219.910156 176.484375 221.085938 176.746094 222.109375 176.277344 C 223.128906 175.808594 223.648438 174.648438 223.410156 173.550781 Z M 232.402344 212.304688 C 232.265625 212.066406 232.121094 211.828125 231.976562 211.597656 C 231.902344 211.480469 231.832031 211.367188 231.757812 211.253906 C 231.621094 211.042969 231.480469 210.835938 231.335938 210.632812 C 231.261719 210.527344 231.1875 210.417969 231.113281 210.3125 C 230.941406 210.078125 230.765625 209.84375 230.585938 209.617188 C 230.539062 209.554688 230.492188 209.492188 230.445312 209.429688 C 230.21875 209.148438 229.984375 208.871094 229.75 208.605469 C 229.679688 208.523438 229.605469 208.449219 229.535156 208.371094 C 229.363281 208.179688 229.183594 207.992188 229.003906 207.808594 C 228.917969 207.714844 228.824219 207.625 228.734375 207.535156 C 228.5625 207.363281 228.386719 207.199219 228.203125 207.03125 C 228.117188 206.953125 228.03125 206.871094 227.941406 206.792969 C 227.710938 206.585938 227.476562 206.386719 227.238281 206.195312 C 227.199219 206.164062 227.164062 206.132812 227.128906 206.105469 C 226.851562 205.882812 226.570312 205.671875 226.285156 205.46875 C 226.199219 205.40625 226.109375 205.347656 226.023438 205.289062 C 225.816406 205.144531 225.605469 205.003906 225.394531 204.871094 C 225.289062 204.804688 225.1875 204.738281 225.082031 204.675781 C 224.871094 204.546875 224.65625 204.421875 224.441406 204.300781 C 224.34375 204.246094 224.246094 204.191406 224.148438 204.136719 C 223.835938 203.96875 223.523438 203.808594 223.199219 203.65625 C 222.867188 203.5 222.535156 203.351562 222.195312 203.214844 C 219.777344 202.234375 217.179688 201.738281 214.449219 201.738281 C 213.746094 201.738281 213.039062 201.777344 212.324219 201.84375 C 212.316406 201.84375 212.308594 201.84375 212.300781 201.847656 C 211.945312 201.878906 211.59375 201.921875 211.242188 201.96875 C 211.179688 201.976562 211.117188 201.984375 211.054688 201.996094 C 210.738281 202.039062 210.417969 202.09375 210.097656 202.152344 C 210.050781 202.160156 210.003906 202.164062 209.957031 202.175781 L 214.816406 180.125 C 217.785156 183.84375 222.570312 188.691406 228.992188 191.496094 C 229 191.5 229.011719 191.503906 229.019531 191.507812 C 229.03125 191.511719 229.035156 191.519531 229.046875 191.523438 C 234.996094 194.542969 241.4375 195.25 246.152344 195.25 C 246.457031 195.25 246.753906 195.246094 247.042969 195.238281 L 232.957031 213.300781 C 232.828125 213.058594 232.699219 212.816406 232.566406 212.582031 C 232.511719 212.484375 232.457031 212.394531 232.402344 212.304688 Z M 229.65625 217.53125 L 229.121094 218.21875 C 229.035156 218.078125 228.953125 217.933594 228.863281 217.792969 C 228.84375 217.765625 228.824219 217.738281 228.808594 217.710938 C 228.539062 217.292969 228.257812 216.890625 227.964844 216.5 C 227.898438 216.40625 227.832031 216.316406 227.765625 216.226562 C 227.457031 215.824219 227.144531 215.433594 226.816406 215.058594 C 226.765625 215 226.710938 214.945312 226.660156 214.886719 C 226.363281 214.550781 226.054688 214.226562 225.738281 213.914062 C 225.671875 213.847656 225.605469 213.78125 225.539062 213.714844 C 225.1875 213.378906 224.824219 213.050781 224.453125 212.742188 C 224.378906 212.675781 224.300781 212.617188 224.222656 212.554688 C 223.875 212.273438 223.523438 212.003906 223.160156 211.746094 C 223.109375 211.710938 223.058594 211.671875 223.007812 211.636719 C 222.609375 211.363281 222.203125 211.105469 221.785156 210.859375 C 221.691406 210.800781 221.59375 210.746094 221.5 210.695312 C 221.070312 210.453125 220.636719 210.21875 220.191406 210.007812 C 219.875 209.859375 219.554688 209.71875 219.230469 209.585938 C 219.09375 209.53125 218.953125 209.480469 218.8125 209.429688 C 218.632812 209.359375 218.449219 209.289062 218.265625 209.222656 C 218.078125 209.160156 217.890625 209.101562 217.703125 209.039062 C 217.566406 209 217.433594 208.953125 217.296875 208.917969 C 217.078125 208.851562 216.855469 208.792969 216.632812 208.734375 C 216.53125 208.710938 216.429688 208.683594 216.328125 208.660156 C 216.078125 208.601562 215.824219 208.546875 215.570312 208.496094 C 215.503906 208.484375 215.433594 208.46875 215.367188 208.457031 C 215.085938 208.402344 214.800781 208.355469 214.511719 208.316406 C 214.488281 208.3125 214.460938 208.308594 214.4375 208.304688 C 213.457031 208.167969 212.460938 208.089844 211.441406 208.089844 C 210.511719 208.089844 209.566406 208.152344 208.613281 208.265625 L 208.816406 207.34375 C 213.296875 206.0625 217.550781 206.269531 221.15625 207.96875 C 224.90625 209.738281 227.808594 213.023438 229.65625 217.53125 Z M 174.175781 208.152344 C 173.890625 208.136719 173.613281 208.121094 173.332031 208.113281 C 173.128906 208.109375 172.929688 208.101562 172.726562 208.101562 C 172.335938 208.097656 171.945312 208.109375 171.558594 208.125 C 171.367188 208.136719 171.175781 208.152344 170.980469 208.167969 C 170.707031 208.1875 170.433594 208.214844 170.160156 208.246094 C 169.988281 208.265625 169.8125 208.28125 169.640625 208.308594 C 169.242188 208.363281 168.847656 208.433594 168.453125 208.511719 C 168.300781 208.542969 168.148438 208.574219 168 208.609375 C 167.652344 208.6875 167.3125 208.773438 166.976562 208.867188 C 166.886719 208.894531 166.792969 208.914062 166.703125 208.941406 C 166.285156 209.066406 165.871094 209.207031 165.460938 209.359375 C 165.355469 209.398438 165.25 209.4375 165.144531 209.480469 C 164.722656 209.644531 164.304688 209.816406 163.894531 210.011719 C 163.449219 210.21875 163.015625 210.453125 162.589844 210.695312 C 162.492188 210.75 162.394531 210.804688 162.296875 210.863281 C 161.882812 211.105469 161.476562 211.363281 161.078125 211.636719 C 161.023438 211.675781 160.972656 211.714844 160.917969 211.753906 C 160.558594 212.007812 160.210938 212.273438 159.867188 212.550781 C 159.789062 212.617188 159.707031 212.679688 159.628906 212.746094 C 159.257812 213.054688 158.898438 213.378906 158.546875 213.714844 C 158.480469 213.78125 158.410156 213.851562 158.34375 213.921875 C 158.03125 214.230469 157.722656 214.554688 157.425781 214.886719 C 157.375 214.945312 157.320312 215 157.265625 215.0625 C 156.941406 215.4375 156.625 215.828125 156.320312 216.230469 C 156.253906 216.316406 156.1875 216.40625 156.121094 216.496094 C 155.828125 216.894531 155.542969 217.304688 155.269531 217.726562 C 155.253906 217.75 155.238281 217.769531 155.226562 217.789062 C 155.136719 217.929688 155.050781 218.078125 154.964844 218.21875 L 154.429688 217.535156 C 156.277344 213.023438 159.179688 209.742188 162.929688 207.972656 C 166.738281 206.175781 171.269531 206.046875 176.027344 207.574219 L 176.210938 208.367188 C 176.136719 208.355469 176.066406 208.351562 175.992188 208.34375 C 175.566406 208.28125 175.140625 208.230469 174.714844 208.191406 C 174.535156 208.175781 174.355469 208.164062 174.175781 208.152344 Z M 156.140625 206.792969 C 156.054688 206.871094 155.972656 206.949219 155.886719 207.027344 C 155.703125 207.195312 155.523438 207.367188 155.347656 207.542969 C 155.257812 207.628906 155.171875 207.714844 155.085938 207.800781 C 154.902344 207.992188 154.71875 208.1875 154.539062 208.382812 C 154.472656 208.457031 154.40625 208.527344 154.34375 208.601562 C 154.101562 208.871094 153.867188 209.148438 153.636719 209.4375 C 153.597656 209.488281 153.558594 209.539062 153.519531 209.589844 C 153.332031 209.828125 153.148438 210.074219 152.96875 210.320312 C 152.898438 210.417969 152.828125 210.519531 152.757812 210.621094 C 152.609375 210.832031 152.464844 211.046875 152.320312 211.265625 C 152.253906 211.375 152.183594 211.480469 152.113281 211.589844 C 151.960938 211.832031 151.8125 212.078125 151.667969 212.332031 C 151.621094 212.410156 151.570312 212.492188 151.523438 212.570312 C 151.390625 212.808594 151.257812 213.054688 151.128906 213.300781 L 137.046875 195.238281 C 137.335938 195.246094 137.628906 195.25 137.933594 195.25 C 142.648438 195.25 149.089844 194.542969 155.042969 191.523438 C 155.050781 191.515625 155.058594 191.511719 155.066406 191.503906 C 155.078125 191.5 155.085938 191.5 155.09375 191.496094 C 161.785156 188.574219 166.703125 183.433594 169.636719 179.664062 L 174.824219 202.308594 C 172.226562 201.746094 169.679688 201.605469 167.246094 201.875 C 167.226562 201.878906 167.207031 201.882812 167.1875 201.882812 C 166.851562 201.921875 166.523438 201.96875 166.191406 202.019531 C 166.152344 202.027344 166.113281 202.03125 166.070312 202.039062 C 165.375 202.15625 164.6875 202.308594 164.011719 202.496094 C 163.949219 202.511719 163.890625 202.53125 163.832031 202.550781 C 163.570312 202.625 163.3125 202.703125 163.054688 202.789062 C 162.957031 202.824219 162.859375 202.855469 162.761719 202.890625 C 162.535156 202.972656 162.308594 203.054688 162.082031 203.144531 C 161.988281 203.179688 161.894531 203.214844 161.800781 203.253906 C 161.492188 203.378906 161.1875 203.511719 160.886719 203.65625 C 160.566406 203.808594 160.25 203.96875 159.9375 204.136719 C 159.839844 204.191406 159.742188 204.246094 159.648438 204.300781 C 159.429688 204.421875 159.214844 204.546875 159.003906 204.675781 C 158.898438 204.738281 158.796875 204.804688 158.691406 204.871094 C 158.480469 205.003906 158.269531 205.148438 158.058594 205.289062 C 157.972656 205.351562 157.886719 205.40625 157.800781 205.46875 C 157.515625 205.671875 157.230469 205.882812 156.953125 206.105469 C 156.921875 206.128906 156.894531 206.15625 156.863281 206.183594 C 156.621094 206.378906 156.378906 206.585938 156.140625 206.792969 Z M 150.449219 181.277344 C 150.640625 181.648438 150.742188 182.074219 150.761719 182.546875 C 150.417969 182.238281 150.15625 181.894531 149.992188 181.519531 C 149.832031 181.148438 149.757812 180.761719 149.738281 180.382812 C 150.015625 180.632812 150.265625 180.925781 150.449219 181.277344 Z M 190.859375 203.480469 C 190.632812 203.492188 190.402344 203.511719 190.175781 203.535156 C 190.070312 203.546875 189.964844 203.554688 189.859375 203.566406 C 189.621094 203.59375 189.378906 203.628906 189.140625 203.664062 C 189.058594 203.675781 188.980469 203.6875 188.902344 203.699219 C 188.585938 203.753906 188.269531 203.8125 187.957031 203.878906 C 187.890625 203.894531 187.828125 203.910156 187.761719 203.925781 C 187.511719 203.980469 187.261719 204.042969 187.015625 204.109375 C 186.914062 204.132812 186.8125 204.164062 186.710938 204.191406 C 186.488281 204.253906 186.269531 204.320312 186.050781 204.390625 C 185.953125 204.421875 185.855469 204.453125 185.757812 204.484375 C 185.488281 204.574219 185.21875 204.671875 184.949219 204.773438 C 184.910156 204.785156 184.875 204.800781 184.835938 204.8125 C 184.53125 204.933594 184.226562 205.058594 183.925781 205.191406 C 183.839844 205.230469 183.753906 205.269531 183.667969 205.308594 C 183.449219 205.410156 183.230469 205.511719 183.011719 205.621094 C 182.914062 205.667969 182.8125 205.71875 182.710938 205.769531 C 182.496094 205.882812 182.28125 205.996094 182.066406 206.117188 C 181.980469 206.164062 181.898438 206.207031 181.8125 206.253906 C 181.519531 206.421875 181.226562 206.59375 180.9375 206.777344 C 180.894531 206.804688 180.851562 206.835938 180.808594 206.863281 C 180.796875 206.871094 180.785156 206.878906 180.773438 206.882812 L 180.570312 205.992188 C 184.113281 202.835938 188.058594 201.179688 192.117188 201.179688 C 196.335938 201.179688 200.464844 202.984375 204.128906 206.410156 L 203.953125 207.207031 C 203.914062 207.179688 203.867188 207.15625 203.828125 207.128906 C 203.425781 206.859375 203.015625 206.605469 202.605469 206.367188 C 202.539062 206.328125 202.476562 206.296875 202.414062 206.257812 C 202.042969 206.046875 201.667969 205.847656 201.292969 205.660156 C 201.203125 205.617188 201.113281 205.570312 201.023438 205.527344 C 200.601562 205.324219 200.179688 205.136719 199.753906 204.960938 C 199.671875 204.925781 199.585938 204.898438 199.5 204.863281 C 199.117188 204.714844 198.734375 204.574219 198.351562 204.449219 C 198.273438 204.425781 198.195312 204.394531 198.121094 204.371094 C 197.6875 204.234375 197.25 204.113281 196.8125 204.007812 C 196.714844 203.984375 196.617188 203.964844 196.519531 203.941406 C 196.113281 203.847656 195.707031 203.765625 195.296875 203.699219 C 195.246094 203.691406 195.195312 203.679688 195.144531 203.671875 C 194.699219 203.601562 194.25 203.550781 193.800781 203.511719 C 193.695312 203.503906 193.589844 203.496094 193.484375 203.488281 C 193.027344 203.457031 192.574219 203.433594 192.117188 203.433594 C 191.792969 203.433594 191.472656 203.445312 191.152344 203.460938 C 191.054688 203.464844 190.957031 203.472656 190.859375 203.480469 Z M 179.285156 172.121094 C 180.007812 171.261719 179.984375 169.988281 179.296875 169.101562 C 178.707031 168.339844 178.511719 166.660156 178.527344 165.085938 C 180.1875 165.839844 182.074219 167.878906 183.117188 169.472656 C 183.679688 170.339844 184.734375 170.746094 185.730469 170.484375 C 186.730469 170.222656 187.449219 169.347656 187.511719 168.320312 C 187.863281 162.527344 191.429688 161.628906 192.050781 161.515625 C 192.671875 161.628906 196.242188 162.527344 196.59375 168.320312 C 196.65625 169.347656 197.371094 170.214844 198.367188 170.480469 C 199.359375 170.746094 200.417969 170.339844 200.980469 169.476562 C 202.023438 167.878906 203.914062 165.835938 205.574219 165.085938 C 205.589844 166.660156 205.394531 168.339844 204.804688 169.101562 C 204.121094 169.988281 204.070312 171.273438 204.792969 172.128906 C 205.515625 172.988281 206.664062 173.265625 207.660156 172.746094 C 207.722656 172.71875 208.890625 172.265625 210.71875 172.757812 C 207.8125 174.492188 201.351562 177.820312 194.101562 178.152344 C 196.128906 176.117188 197.121094 173.894531 197.027344 171.53125 C 196.882812 167.816406 194.082031 165.402344 193.765625 165.140625 C 193.253906 164.71875 192.617188 164.550781 192.007812 164.613281 C 191.390625 164.542969 190.742188 164.714844 190.226562 165.140625 C 189.90625 165.402344 187.105469 167.816406 186.960938 171.53125 C 186.871094 173.890625 187.859375 176.113281 189.882812 178.148438 C 182.679688 177.785156 176.273438 174.484375 173.386719 172.757812 C 175.210938 172.261719 176.371094 172.710938 176.394531 172.722656 C 177.390625 173.246094 178.5625 172.980469 179.285156 172.121094 Z M 191.734375 171.746094 C 191.746094 171.339844 191.847656 170.953125 191.992188 170.605469 C 192.140625 170.953125 192.238281 171.339844 192.253906 171.746094 C 192.265625 172.15625 192.175781 172.578125 191.992188 173.003906 C 191.8125 172.578125 191.722656 172.15625 191.734375 171.746094 Z M 190.71875 196.460938 C 190.472656 196.480469 190.222656 196.5 189.976562 196.527344 C 189.855469 196.539062 189.734375 196.554688 189.613281 196.570312 C 189.359375 196.601562 189.109375 196.636719 188.859375 196.679688 C 188.757812 196.695312 188.65625 196.710938 188.550781 196.730469 C 188.203125 196.792969 187.859375 196.863281 187.511719 196.945312 C 187.472656 196.957031 187.433594 196.964844 187.394531 196.976562 C 187.089844 197.050781 186.785156 197.132812 186.484375 197.222656 C 186.371094 197.253906 186.261719 197.289062 186.152344 197.324219 C 185.914062 197.398438 185.679688 197.472656 185.445312 197.558594 C 185.328125 197.597656 185.210938 197.640625 185.09375 197.683594 C 184.847656 197.773438 184.605469 197.871094 184.359375 197.972656 C 184.265625 198.011719 184.171875 198.046875 184.082031 198.085938 C 183.75 198.230469 183.417969 198.378906 183.089844 198.539062 C 183.027344 198.570312 182.96875 198.605469 182.90625 198.632812 C 182.636719 198.769531 182.371094 198.90625 182.105469 199.054688 C 182 199.113281 181.890625 199.175781 181.785156 199.238281 C 181.558594 199.367188 181.335938 199.496094 181.117188 199.632812 C 181.007812 199.699219 180.898438 199.769531 180.792969 199.835938 C 180.550781 199.992188 180.308594 200.152344 180.070312 200.316406 C 179.992188 200.371094 179.914062 200.421875 179.835938 200.476562 C 179.683594 200.582031 179.53125 200.695312 179.382812 200.808594 L 174.320312 178.703125 C 178.417969 180.714844 184.484375 182.957031 191.164062 182.957031 C 191.449219 182.957031 191.734375 182.953125 192.019531 182.941406 C 192.03125 182.941406 192.039062 182.941406 192.050781 182.941406 C 192.058594 182.941406 192.070312 182.941406 192.078125 182.941406 C 192.367188 182.953125 192.648438 182.957031 192.933594 182.957031 C 199.898438 182.957031 206.191406 180.523438 210.289062 178.449219 L 205.292969 201.136719 C 205.160156 201.035156 205.023438 200.941406 204.890625 200.839844 C 204.804688 200.777344 204.722656 200.714844 204.636719 200.652344 C 204.339844 200.4375 204.039062 200.230469 203.738281 200.03125 C 203.71875 200.019531 203.699219 200.007812 203.675781 199.992188 C 203.398438 199.8125 203.117188 199.636719 202.832031 199.46875 C 202.734375 199.410156 202.640625 199.355469 202.546875 199.300781 C 202.328125 199.175781 202.113281 199.054688 201.894531 198.941406 C 201.792969 198.882812 201.6875 198.828125 201.582031 198.773438 C 201.351562 198.652344 201.121094 198.539062 200.886719 198.429688 C 200.804688 198.390625 200.722656 198.351562 200.640625 198.3125 C 200.332031 198.167969 200.015625 198.03125 199.703125 197.90625 C 199.632812 197.878906 199.5625 197.851562 199.492188 197.824219 C 199.242188 197.726562 198.996094 197.636719 198.742188 197.546875 C 198.632812 197.507812 198.527344 197.472656 198.417969 197.4375 C 198.195312 197.363281 197.976562 197.296875 197.75 197.230469 C 197.644531 197.199219 197.535156 197.164062 197.429688 197.136719 C 197.164062 197.0625 196.898438 196.996094 196.632812 196.933594 C 196.570312 196.917969 196.511719 196.902344 196.449219 196.890625 C 196.125 196.816406 195.796875 196.753906 195.472656 196.695312 C 195.378906 196.679688 195.289062 196.667969 195.195312 196.65625 C 194.957031 196.617188 194.714844 196.582031 194.472656 196.554688 C 194.359375 196.539062 194.246094 196.527344 194.132812 196.515625 C 193.898438 196.492188 193.664062 196.472656 193.429688 196.457031 C 193.324219 196.449219 193.222656 196.441406 193.117188 196.4375 C 192.785156 196.421875 192.449219 196.410156 192.117188 196.410156 C 191.757812 196.410156 191.402344 196.421875 191.050781 196.441406 C 190.9375 196.445312 190.832031 196.453125 190.71875 196.460938 Z M 219.550781 136.410156 L 212.523438 168.3125 C 211.691406 168.042969 210.910156 167.882812 210.195312 167.808594 C 210.566406 165.292969 210.238281 162.84375 210.132812 162.160156 C 209.984375 161.21875 209.292969 160.453125 208.367188 160.214844 C 205.214844 159.40625 202.328125 161.128906 200.242188 163.035156 C 198.386719 158.703125 194.738281 157.03125 192.605469 156.769531 C 192.417969 156.75 192.234375 156.753906 192.050781 156.773438 C 191.871094 156.753906 191.683594 156.746094 191.492188 156.769531 C 189.359375 157.03125 185.710938 158.703125 183.855469 163.035156 C 181.769531 161.128906 178.882812 159.40625 175.734375 160.214844 C 174.808594 160.453125 174.113281 161.21875 173.964844 162.160156 C 173.859375 162.84375 173.535156 165.292969 173.90625 167.808594 C 173.289062 167.875 172.621094 168.003906 171.914062 168.207031 L 164.71875 136.796875 L 190.757812 147.328125 C 191.332031 147.558594 191.972656 147.558594 192.550781 147.328125 Z M 234.34375 180.382812 C 234.328125 180.75 234.257812 181.132812 234.105469 181.496094 C 233.941406 181.882812 233.675781 182.230469 233.324219 182.546875 C 233.339844 182.082031 233.441406 181.664062 233.628906 181.296875 C 233.8125 180.9375 234.066406 180.632812 234.34375 180.382812 Z M 165.9375 214.324219 C 169.296875 212.738281 173.21875 212.445312 177.375 213.457031 L 188.242188 260.890625 L 158.15625 222.308594 C 160.003906 218.609375 162.65625 215.871094 165.9375 214.324219 Z M 181.921875 211.902344 C 185.109375 209.476562 188.585938 208.207031 192.117188 208.207031 C 195.824219 208.207031 199.503906 209.621094 202.828125 212.308594 L 192.625 258.625 Z M 207.503906 213.296875 C 211.367188 212.503906 215.003906 212.839844 218.148438 214.324219 C 221.425781 215.871094 224.082031 218.609375 225.929688 222.308594 L 197.484375 258.792969 Z M 198.554688 129.859375 C 196.703125 127.980469 194.492188 126.894531 192.097656 126.894531 C 189.703125 126.894531 187.492188 127.980469 185.640625 129.859375 C 186.921875 124.808594 189.613281 121.628906 192.097656 121.628906 C 194.585938 121.628906 197.273438 124.808594 198.554688 129.859375 Z M 70.835938 206.667969 L 96.488281 192.890625 C 96.625 192.816406 96.753906 192.730469 96.871094 192.632812 C 97.226562 192.34375 97.492188 191.953125 97.632812 191.511719 L 106.460938 163.785156 L 126.558594 189.558594 C 125.816406 190.023438 125.195312 190.523438 124.683594 191.027344 C 122.980469 189.136719 120.886719 187.820312 120.289062 187.464844 C 119.46875 186.976562 118.4375 187.023438 117.664062 187.582031 C 115.027344 189.488281 114.511719 192.808594 114.648438 195.625 C 110.125 194.285156 106.511719 196.023438 104.949219 197.496094 C 104.808594 197.625 104.695312 197.773438 104.59375 197.925781 C 104.460938 198.050781 104.339844 198.191406 104.234375 198.351562 C 103.074219 200.15625 102.03125 204.03125 104.1875 208.222656 C 101.386719 208.609375 98.21875 209.726562 96.828125 212.667969 C 96.421875 213.527344 96.566406 214.550781 97.199219 215.265625 C 97.65625 215.78125 99.335938 217.597656 101.511719 218.917969 C 101 219.6875 100.523438 220.628906 100.148438 221.757812 Z M 282.574219 218.917969 C 284.75 217.597656 286.429688 215.785156 286.886719 215.265625 C 287.519531 214.550781 287.664062 213.53125 287.257812 212.667969 C 285.867188 209.726562 282.699219 208.609375 279.898438 208.222656 C 282.054688 204.03125 281.011719 200.160156 279.851562 198.351562 C 279.746094 198.191406 279.625 198.050781 279.492188 197.925781 C 279.390625 197.773438 279.277344 197.625 279.136719 197.496094 C 277.578125 196.023438 273.957031 194.289062 269.4375 195.628906 C 269.574219 192.808594 269.058594 189.488281 266.421875 187.582031 C 265.648438 187.023438 264.617188 186.976562 263.796875 187.464844 C 263.203125 187.820312 261.105469 189.136719 259.402344 191.027344 C 258.890625 190.527344 258.269531 190.027344 257.527344 189.558594 L 277.628906 163.789062 L 286.453125 191.511719 C 286.640625 192.101562 287.050781 192.597656 287.597656 192.890625 L 313.25 206.671875 L 283.933594 221.761719 C 283.5625 220.628906 283.085938 219.6875 282.574219 218.917969 Z M 144.273438 230.71875 C 146.640625 227.867188 150.078125 225.941406 154.269531 225.101562 L 186.222656 266.070312 L 140.605469 242.582031 C 140.453125 237.882812 141.710938 233.800781 144.273438 230.71875 Z M 170.171875 119.484375 C 169.105469 119.273438 168.058594 119.167969 167.027344 119.167969 C 165.53125 119.167969 164.238281 119.394531 163.167969 119.703125 C 162.871094 118.179688 163.003906 116.984375 163.171875 116.261719 C 163.894531 115.898438 165.207031 115.40625 167.027344 115.40625 C 168.203125 115.40625 169.441406 115.617188 170.71875 116.015625 C 170.4375 117.039062 170.238281 118.191406 170.171875 119.484375 Z M 326.5 196.464844 C 325.765625 194.792969 324.476562 192.789062 322.199219 190.933594 C 323.152344 190.058594 323.910156 189.167969 324.523438 188.296875 C 327.863281 190.457031 328.863281 192.957031 329.15625 194.257812 C 328.691406 194.867188 327.855469 195.730469 326.5 196.464844 Z M 221.046875 119.699219 C 219.976562 119.394531 218.6875 119.167969 217.1875 119.167969 C 216.160156 119.167969 215.109375 119.273438 214.042969 119.480469 C 213.980469 118.191406 213.777344 117.039062 213.496094 116.015625 C 214.773438 115.613281 216.011719 115.40625 217.1875 115.40625 C 219.007812 115.40625 220.320312 115.894531 221.042969 116.257812 C 221.210938 116.984375 221.347656 118.179688 221.046875 119.699219 Z M 59.5625 188.296875 C 60.175781 189.167969 60.933594 190.058594 61.886719 190.933594 C 59.609375 192.789062 58.320312 194.792969 57.585938 196.464844 C 56.230469 195.730469 55.394531 194.867188 54.929688 194.257812 C 55.222656 192.957031 56.21875 190.460938 59.5625 188.296875 Z M 282.203125 146.675781 C 280.828125 145.46875 278.804688 144.191406 275.949219 143.46875 C 276.441406 142.273438 276.753906 141.144531 276.9375 140.097656 C 280.886719 140.644531 282.847656 142.488281 283.660156 143.542969 C 283.5 144.292969 283.113281 145.429688 282.203125 146.675781 Z M 238.261719 121.84375 C 237.570312 122.652344 236.894531 123.609375 236.28125 124.75 C 233.898438 122.996094 231.628906 122.25 229.859375 121.957031 C 230.242188 120.453125 230.875 119.429688 231.332031 118.847656 C 232.621094 118.816406 235.328125 119.148438 238.261719 121.84375 Z M 154.226562 121.957031 C 152.457031 122.246094 150.183594 122.992188 147.804688 124.75 C 147.191406 123.609375 146.519531 122.652344 145.824219 121.84375 C 148.753906 119.152344 151.441406 118.816406 152.753906 118.847656 C 153.210938 119.429688 153.84375 120.453125 154.226562 121.957031 Z M 107.148438 140.097656 C 107.332031 141.144531 107.644531 142.273438 108.136719 143.46875 C 105.277344 144.191406 103.257812 145.464844 101.882812 146.675781 C 100.972656 145.429688 100.585938 144.292969 100.425781 143.539062 C 101.238281 142.488281 103.203125 140.644531 107.148438 140.097656 Z M 107.148438 140.097656 " fill-opacity="1" fill-rule="nonzero"/></g></svg>