<svg xmlns="http://www.w3.org/2000/svg" xmlns:xlink="http://www.w3.org/1999/xlink" width="512" zoomAndPan="magnify" viewBox="0 0 384 383.999986" height="512" preserveAspectRatio="xMidYMid meet" version="1.0"><path fill="#000000" d="M 102.1875 59.214844 C 91.902344 60.191406 82.785156 64.03125 75.242188 70.554688 C 71.683594 73.632812 68.785156 76.96875 66.292969 80.851562 C 60.390625 90.054688 57.457031 98.640625 56.632812 109.132812 C 56.464844 111.269531 56.460938 116 56.625 118.101562 C 57.554688 129.925781 61.292969 140.914062 67.628906 150.445312 C 68.535156 151.8125 68.851562 152.269531 69.308594 152.886719 C 74.554688 159.933594 80.757812 165.378906 87.78125 169.105469 C 94.488281 172.660156 101.941406 174.59375 108.953125 174.601562 C 110.214844 174.601562 110.753906 174.644531 110.839844 174.757812 C 110.910156 174.84375 111.113281 175.789062 111.296875 176.855469 C 111.503906 178.066406 111.714844 179.273438 111.929688 180.484375 L 112.808594 185.429688 L 113.824219 191.125 C 114.0625 192.464844 114.429688 194.53125 114.636719 195.710938 L 115.015625 197.855469 L 114.558594 198.964844 C 111.703125 205.863281 110.304688 214.015625 110.726562 221.277344 C 111.242188 230.117188 113.371094 237.78125 117.359375 245.1875 C 117.925781 246.242188 118.367188 247.125 118.339844 247.152344 C 118.308594 247.179688 117.589844 247.035156 116.738281 246.828125 C 109.449219 245.070312 101.675781 245.433594 95 247.847656 C 82.535156 252.355469 73.410156 263.875 71.230469 277.863281 C 70.980469 279.445312 70.945312 280.152344 70.945312 283.371094 C 70.945312 286.566406 70.984375 287.300781 71.222656 288.816406 C 72.976562 299.964844 79.277344 308.972656 89.542969 315.023438 C 96.398438 319.058594 104.578125 320.746094 112.375 319.730469 C 123.042969 318.339844 132.902344 312.066406 139.027344 302.773438 C 142.558594 297.414062 144.5625 291.445312 145.03125 284.917969 C 145.371094 280.125 144.425781 274.378906 142.5 269.519531 C 142.15625 268.648438 141.894531 267.914062 141.917969 267.890625 C 141.945312 267.863281 142.351562 268.019531 142.824219 268.234375 C 144.980469 269.203125 147.847656 270.199219 150.5 270.898438 C 153.753906 271.757812 156.769531 272.21875 161.421875 272.574219 L 162.65625 272.667969 L 160.628906 274.671875 C 158.332031 276.941406 156 279.320312 154.980469 280.429688 C 151.484375 284.242188 149.226562 288.40625 148.621094 292.160156 C 148.375 293.691406 148.527344 296.875 148.925781 298.578125 C 149.398438 300.574219 149.558594 301.027344 150.449219 302.835938 C 152.023438 306.027344 154.363281 308.566406 157.414062 310.40625 C 158.25 310.910156 160.824219 312.398438 162.125 313.125 C 167.375 316.070312 174.261719 319.378906 180.3125 321.859375 C 191.402344 326.40625 201.652344 329.167969 213.5 330.800781 C 216.523438 331.21875 222.148438 331.558594 226 331.558594 C 236.203125 331.558594 246.179688 329.910156 255.375 326.699219 C 258.136719 325.738281 259.117188 325.359375 262.75 323.863281 C 264.523438 323.132812 269.238281 320.855469 271.488281 319.644531 C 278.652344 315.78125 283.421875 312.660156 290.945312 306.902344 C 296.230469 302.855469 304.078125 295.628906 309.5 289.816406 C 313.550781 285.472656 314.191406 284.652344 315.25 282.4375 C 315.96875 280.929688 316.175781 280.339844 316.582031 278.613281 C 316.964844 276.984375 317.109375 273.992188 316.886719 272.3125 C 316.339844 268.234375 314.613281 264.53125 311.945312 261.734375 C 310.660156 260.382812 309.351562 259.449219 306.574219 257.898438 C 305.710938 257.417969 305.003906 256.984375 305.003906 256.9375 C 305 256.890625 305.4375 256.5 305.96875 256.066406 C 319.605469 245.039062 328.515625 229.550781 331.5625 211.589844 C 332.410156 206.570312 332.6875 202.671875 332.585938 197.085938 C 332.496094 192.0625 332.324219 190.148438 331.550781 185.492188 C 328.933594 169.695312 321.382812 155.359375 310.1875 144.9375 C 302.867188 138.117188 295.039062 133.113281 286.3125 129.660156 C 279.972656 127.15625 272.5 125.476562 265.179688 124.917969 C 260.898438 124.59375 254.671875 124.796875 249.921875 125.414062 C 230.625 127.933594 212.671875 138.09375 201.042969 153.074219 C 196.714844 158.652344 193.039062 165.164062 190.691406 171.410156 C 190.511719 171.890625 190.316406 172.335938 190.253906 172.394531 C 190.195312 172.453125 189.210938 172.03125 188.042969 171.445312 C 183.597656 169.222656 179.632812 167.859375 174.875 166.914062 C 168.84375 165.71875 163.351562 165.542969 157.042969 166.347656 C 146.097656 167.738281 135.234375 172.808594 127.597656 180.09375 C 126.96875 180.691406 126.609375 180.953125 126.574219 180.84375 C 126.515625 180.660156 125.820312 176.867188 125.691406 176.042969 C 125.648438 175.765625 125.472656 174.785156 125.296875 173.867188 C 125.125 172.945312 125.027344 172.148438 125.085938 172.09375 C 125.140625 172.042969 125.863281 171.707031 126.6875 171.351562 C 135.488281 167.554688 143.066406 161.316406 148.53125 153.378906 C 154.21875 145.117188 157.703125 135.210938 158.675781 124.535156 C 159.542969 115.054688 158.355469 105.351562 155.257812 96.5625 C 151.910156 87.0625 146.445312 78.808594 139.3125 72.480469 C 134.792969 68.46875 130.761719 65.71875 126.3125 63.617188 C 121.109375 61.15625 115.890625 59.757812 109.8125 59.199219 C 108.203125 59.050781 103.804688 59.058594 102.1875 59.214844 M 101.757812 64.71875 C 99.847656 64.890625 96.464844 65.550781 94.386719 66.15625 C 93.324219 66.46875 92.359375 66.773438 92.242188 66.835938 C 92.125 66.898438 91.753906 67.042969 91.421875 67.15625 C 91.085938 67.269531 90.585938 67.464844 90.3125 67.589844 C 90.039062 67.714844 89.363281 68.019531 88.8125 68.269531 C 86.53125 69.304688 83.210938 71.390625 80.808594 73.296875 C 79.117188 74.644531 75.265625 78.480469 73.917969 80.164062 C 67.972656 87.585938 64.152344 96.34375 62.640625 106.011719 C 62.128906 109.296875 62.003906 110.929688 62.003906 114.335938 C 62.003906 117.726562 62.132812 119.417969 62.625 122.46875 C 63.820312 129.867188 66.792969 138.339844 70.402344 144.644531 C 71.207031 146.046875 73.761719 149.890625 74.554688 150.882812 C 74.9375 151.363281 75.515625 152.09375 75.84375 152.507812 C 76.71875 153.609375 79.875 156.824219 81.3125 158.074219 C 91.039062 166.542969 103.546875 170.238281 116.0625 168.335938 C 119.210938 167.859375 122.980469 166.789062 126 165.519531 C 132.871094 162.628906 139.046875 157.765625 143.644531 151.632812 C 151.773438 140.785156 154.996094 125.960938 152.800781 109.515625 C 152.695312 108.722656 152.417969 107.175781 152.179688 106.074219 C 148.765625 90.140625 138.0625 75.886719 124.40625 69.09375 C 121.210938 67.503906 118.242188 66.417969 114.875 65.605469 C 113.703125 65.324219 110.46875 64.824219 109.042969 64.707031 C 107.308594 64.5625 103.441406 64.570312 101.757812 64.71875 M 105 68.050781 C 92.710938 68.425781 80.996094 75.144531 73.167969 86.296875 C 67.132812 94.894531 63.921875 106.171875 64.496094 116.753906 C 64.734375 121.144531 65.578125 126.425781 66.636719 130.167969 C 69.046875 138.660156 73.65625 146.316406 80.203125 152.699219 C 88.710938 160.988281 99.316406 165.59375 109.875 165.589844 C 115.953125 165.585938 121.683594 164.113281 127.453125 161.074219 C 131.28125 159.058594 134.578125 156.628906 137.59375 153.597656 C 144.738281 146.417969 149.265625 136.597656 150.644531 125.269531 C 150.886719 123.296875 150.925781 122.363281 150.925781 118.714844 C 150.921875 115.09375 150.882812 114.117188 150.644531 112.144531 C 149.457031 102.308594 145.914062 93.257812 140.410156 86.007812 C 135.039062 78.9375 126.976562 73.066406 118.644531 70.164062 C 115.582031 69.09375 111.472656 68.265625 108.625 68.140625 C 107.835938 68.105469 106.90625 68.066406 106.5625 68.050781 C 106.21875 68.035156 105.515625 68.035156 105 68.050781 M 102.9375 73.808594 C 99.648438 74.257812 97.019531 74.875 94.96875 75.679688 C 94.066406 76.035156 94.070312 76.023438 94.25 76.796875 C 94.363281 77.285156 94.5 78.050781 95.558594 84.167969 C 95.796875 85.546875 96.058594 86.945312 96.136719 87.28125 L 96.28125 87.886719 L 96.734375 87.8125 C 96.984375 87.769531 98.285156 87.546875 99.625 87.3125 C 105.691406 86.25 108.816406 85.691406 108.847656 85.667969 C 108.890625 85.636719 108.503906 83.289062 108.0625 80.914062 C 107.894531 80.019531 107.558594 78.132812 107.308594 76.722656 C 107.0625 75.3125 106.832031 74.058594 106.796875 73.9375 C 106.738281 73.742188 106.554688 73.71875 105.023438 73.738281 C 104.082031 73.746094 103.144531 73.777344 102.9375 73.808594 M 112.625 74.644531 C 112.625 74.742188 112.710938 75.265625 112.816406 75.804688 C 113 76.738281 113.660156 80.5 114.109375 83.167969 C 114.226562 83.855469 114.359375 84.480469 114.40625 84.554688 C 114.464844 84.648438 114.875 84.621094 115.777344 84.457031 C 121.050781 83.503906 122.710938 83.203125 124.6875 82.847656 C 125.925781 82.628906 126.960938 82.425781 126.988281 82.402344 C 127.015625 82.375 126.96875 81.960938 126.882812 81.476562 L 126.726562 80.597656 L 125.957031 80.054688 C 122.894531 77.886719 118.636719 75.917969 114.859375 74.917969 C 112.992188 74.425781 112.625 74.378906 112.625 74.644531 M 87.640625 79.414062 C 84.386719 81.566406 81.386719 84.433594 78.78125 87.886719 C 78.023438 88.890625 77.75 89.351562 77.796875 89.539062 C 77.828125 89.683594 77.894531 90.070312 77.941406 90.398438 C 77.992188 90.726562 78.078125 91.023438 78.136719 91.058594 C 78.238281 91.121094 79.265625 90.953125 85 89.9375 C 86.339844 89.699219 88.15625 89.378906 89.03125 89.222656 C 90.46875 88.96875 90.625 88.917969 90.625 88.683594 C 90.625 88.542969 90.460938 87.523438 90.265625 86.421875 C 90.066406 85.320312 89.695312 83.207031 89.441406 81.726562 C 88.929688 78.75 88.921875 78.722656 88.785156 78.726562 C 88.730469 78.726562 88.21875 79.035156 87.640625 79.414062 M 133.5 87.007812 C 133.5 87.050781 134.035156 90.117188 134.632812 93.492188 C 134.835938 94.628906 135.15625 96.457031 135.347656 97.554688 C 135.542969 98.660156 135.761719 99.570312 135.84375 99.59375 C 135.921875 99.621094 136.765625 99.5 137.710938 99.328125 C 138.660156 99.152344 139.816406 98.945312 140.28125 98.867188 C 140.746094 98.789062 141.152344 98.683594 141.179688 98.636719 C 141.265625 98.496094 139.382812 94.824219 138.445312 93.304688 C 136.894531 90.792969 134.101562 87.105469 133.675781 87.007812 C 133.578125 86.984375 133.5 86.984375 133.5 87.007812 M 127.4375 88.058594 C 127.367188 88.085938 126.160156 88.304688 124.75 88.546875 C 118.046875 89.695312 115.539062 90.160156 115.417969 90.277344 C 115.378906 90.320312 115.460938 90.992188 115.609375 91.769531 C 115.925781 93.464844 116.367188 95.949219 116.9375 99.25 C 117.363281 101.707031 117.566406 102.738281 117.644531 102.820312 C 117.667969 102.84375 119.742188 102.5 122.25 102.058594 C 128.617188 100.941406 130.132812 100.660156 130.199219 100.597656 C 130.230469 100.566406 130.199219 100.265625 130.132812 99.925781 C 130.0625 99.589844 129.722656 97.679688 129.375 95.683594 C 128.527344 90.839844 128.128906 88.609375 128.054688 88.269531 C 128 88.007812 127.761719 87.925781 127.4375 88.058594 M 108.125 91.503906 C 106.980469 91.742188 105.691406 91.96875 100.0625 92.9375 C 98.617188 93.183594 97.390625 93.433594 97.328125 93.492188 C 97.269531 93.550781 97.285156 93.972656 97.363281 94.453125 C 97.550781 95.5625 98.183594 99.101562 98.582031 101.253906 C 98.753906 102.183594 99.003906 103.621094 99.140625 104.445312 C 99.273438 105.269531 99.425781 105.984375 99.472656 106.03125 C 99.523438 106.082031 101.617188 105.753906 104.125 105.308594 C 106.632812 104.863281 109.433594 104.367188 110.347656 104.207031 C 111.261719 104.046875 112.03125 103.890625 112.058594 103.867188 C 112.085938 103.839844 111.945312 102.945312 111.75 101.878906 C 111.550781 100.8125 111.105469 98.277344 110.753906 96.246094 C 109.839844 90.957031 109.90625 91.238281 109.585938 91.25 C 109.433594 91.257812 108.777344 91.371094 108.125 91.503906 M 89.4375 94.804688 C 88.542969 94.964844 86.519531 95.328125 84.9375 95.613281 C 82.15625 96.109375 80.394531 96.421875 79.515625 96.570312 L 79.09375 96.640625 L 79.167969 97.226562 C 79.210938 97.546875 79.445312 98.910156 79.6875 100.253906 C 79.929688 101.59375 80.320312 103.820312 80.558594 105.195312 C 80.796875 106.574219 81.0625 108.058594 81.144531 108.496094 L 81.300781 109.292969 L 81.867188 109.21875 C 82.179688 109.179688 83.703125 108.921875 85.25 108.644531 C 86.796875 108.367188 89.351562 107.914062 90.929688 107.636719 C 92.507812 107.359375 93.824219 107.101562 93.859375 107.070312 C 93.917969 107.011719 93.503906 104.5625 92.5 99.0625 C 92.226562 97.550781 91.933594 95.902344 91.851562 95.402344 C 91.679688 94.328125 91.855469 94.371094 89.4375 94.804688 M 73.179688 98.089844 C 72.59375 99.464844 71.554688 103.054688 71.054688 105.414062 C 70.769531 106.777344 70.246094 111.0625 70.355469 111.171875 C 70.460938 111.277344 75.5 110.40625 75.675781 110.253906 C 75.738281 110.195312 75.617188 109.191406 75.378906 107.863281 C 75.066406 106.097656 74.75 104.332031 74.4375 102.570312 C 74.140625 100.917969 73.832031 99.15625 73.75 98.65625 C 73.667969 98.160156 73.554688 97.71875 73.492188 97.683594 C 73.433594 97.644531 73.292969 97.828125 73.179688 98.089844 M 141.75 104.277344 L 138.6875 104.832031 C 137.726562 105.003906 136.898438 105.1875 136.847656 105.238281 C 136.796875 105.289062 136.863281 105.917969 136.992188 106.640625 C 137.671875 110.378906 138.023438 112.351562 138.25 113.707031 C 138.5625 115.601562 138.960938 117.65625 139.027344 117.71875 C 139.109375 117.800781 145.367188 116.699219 145.484375 116.582031 C 145.578125 116.484375 145.261719 112.941406 144.988281 111.070312 C 144.632812 108.621094 143.46875 104.117188 143.175781 104.0625 C 143.113281 104.050781 142.472656 104.148438 141.75 104.277344 M 129.25 106.515625 C 127.953125 106.777344 124.113281 107.460938 120.898438 108.003906 C 119.777344 108.195312 118.804688 108.410156 118.730469 108.480469 C 118.640625 108.570312 118.707031 109.164062 118.9375 110.410156 C 119.300781 112.34375 119.742188 114.847656 120.375 118.527344 C 120.59375 119.800781 120.8125 120.886719 120.863281 120.9375 C 120.953125 121.035156 133.238281 118.925781 133.394531 118.789062 C 133.492188 118.703125 133.480469 118.636719 132.5625 113.519531 C 132.175781 111.351562 131.730469 108.847656 131.582031 107.949219 L 131.304688 106.324219 L 130.871094 106.300781 C 130.632812 106.289062 129.902344 106.386719 129.25 106.515625 M 110.125 109.910156 C 108.648438 110.175781 106.480469 110.5625 105.3125 110.761719 C 102.214844 111.296875 100.621094 111.605469 100.546875 111.679688 C 100.507812 111.71875 100.683594 112.921875 100.9375 114.355469 C 101.214844 115.914062 101.484375 117.46875 101.75 119.027344 C 102.132812 121.28125 102.613281 123.886719 102.6875 124.113281 C 102.71875 124.222656 102.96875 124.214844 103.648438 124.089844 C 104.152344 124 106.023438 123.664062 107.8125 123.347656 C 113.945312 122.261719 115.128906 122.042969 115.238281 121.976562 C 115.296875 121.941406 115.292969 121.644531 115.230469 121.316406 C 115.097656 120.609375 114.386719 116.597656 113.867188 113.582031 C 113.28125 110.214844 113.101562 109.390625 112.953125 109.40625 C 112.875 109.414062 111.601562 109.640625 110.125 109.910156 M 93.625 112.847656 C 93.179688 112.949219 91.855469 113.195312 90.6875 113.398438 C 86.183594 114.175781 82.804688 114.78125 82.59375 114.847656 C 82.304688 114.9375 82.316406 115.210938 82.683594 117.117188 C 82.855469 117.996094 83.136719 119.53125 83.308594 120.53125 L 84.050781 124.8125 C 84.289062 126.167969 84.507812 127.328125 84.546875 127.386719 C 84.613281 127.492188 84.988281 127.433594 91.0625 126.347656 C 92.851562 126.03125 94.925781 125.660156 95.671875 125.53125 C 96.421875 125.402344 97.058594 125.269531 97.089844 125.238281 C 97.121094 125.207031 96.917969 123.925781 96.640625 122.386719 C 96.175781 119.796875 95.480469 115.871094 95.097656 113.644531 C 94.910156 112.5625 94.90625 112.558594 93.625 112.847656 M 74.1875 116.289062 C 73.085938 116.488281 71.765625 116.726562 71.25 116.8125 L 70.3125 116.96875 L 70.332031 118.277344 C 70.371094 120.894531 71.089844 125.011719 72.089844 128.335938 C 72.273438 128.945312 72.496094 129.46875 72.582031 129.503906 C 72.769531 129.578125 78.769531 128.558594 78.902344 128.429688 C 78.953125 128.382812 78.886719 127.753906 78.753906 127.035156 C 78.617188 126.3125 78.25 124.261719 77.9375 122.46875 C 77.199219 118.28125 76.886719 116.53125 76.808594 116.179688 C 76.730469 115.828125 76.699219 115.828125 74.1875 116.289062 M 143.0625 122.726562 C 141.894531 122.960938 140.789062 123.152344 140.609375 123.15625 C 140.015625 123.160156 139.972656 123.371094 140.257812 124.863281 C 140.402344 125.613281 140.679688 127.15625 140.875 128.289062 C 141.601562 132.503906 142.132812 135.492188 142.199219 135.707031 C 142.238281 135.828125 142.3125 135.925781 142.367188 135.925781 C 142.425781 135.925781 142.5 135.828125 142.539062 135.707031 C 142.574219 135.585938 142.863281 134.742188 143.175781 133.832031 C 144.191406 130.875 144.867188 127.878906 145.316406 124.3125 C 145.515625 122.738281 145.507812 122.269531 145.285156 122.292969 C 145.230469 122.296875 144.230469 122.492188 143.0625 122.726562 M 133.75 124.40625 C 133.261719 124.511719 129.328125 125.210938 125.625 125.851562 C 122.164062 126.449219 121.875 126.519531 121.875 126.765625 C 121.875 126.882812 122.074219 128.101562 122.316406 129.480469 C 122.558594 130.855469 122.890625 132.769531 123.054688 133.734375 C 123.21875 134.699219 123.5 136.265625 123.675781 137.214844 C 123.855469 138.167969 124 139.003906 124 139.078125 C 124 139.234375 124.222656 139.203125 128.1875 138.492188 C 129.835938 138.199219 132.417969 137.738281 133.921875 137.476562 L 136.652344 136.996094 L 136.578125 136.429688 C 136.539062 136.117188 136.3125 134.765625 136.074219 133.421875 C 135.835938 132.078125 135.441406 129.855469 135.199219 128.476562 C 134.585938 124.980469 134.457031 124.371094 134.3125 124.339844 C 134.242188 124.328125 133.992188 124.355469 133.75 124.40625 M 114.8125 127.808594 C 113.472656 128.058594 109.84375 128.699219 106.160156 129.335938 C 104.910156 129.554688 103.832031 129.785156 103.761719 129.855469 C 103.679688 129.9375 103.722656 130.402344 103.882812 131.230469 C 104.125 132.464844 104.632812 135.347656 105.421875 139.957031 C 105.644531 141.246094 105.859375 142.335938 105.90625 142.382812 C 105.953125 142.429688 108.117188 142.089844 110.714844 141.625 C 113.3125 141.164062 116.125 140.667969 116.96875 140.527344 C 117.871094 140.371094 118.5 140.207031 118.5 140.125 C 118.5 139.980469 117.621094 134.917969 116.785156 130.265625 C 116.53125 128.835938 116.261719 127.648438 116.191406 127.625 C 116.121094 127.601562 115.5 127.683594 114.8125 127.808594 M 253.875 130.503906 C 250.476562 130.785156 244.621094 131.824219 241.285156 132.738281 C 235.570312 134.308594 229.597656 136.8125 224.8125 139.65625 C 222.621094 140.957031 219.421875 143.085938 218.3125 143.984375 L 217.9375 144.289062 L 218.984375 145.265625 C 221.664062 147.761719 225.15625 151.792969 227.71875 155.347656 C 235.8125 166.570312 240.5 179.605469 241.503906 193.691406 C 241.578125 194.722656 241.660156 195.636719 241.691406 195.722656 C 241.730469 195.847656 243.277344 195.875 249.089844 195.847656 L 256.4375 195.816406 L 256.4375 130.480469 L 255.4375 130.46875 C 254.886719 130.460938 254.183594 130.476562 253.875 130.503906 M 262.066406 130.554688 C 262.027344 130.652344 262.011719 145.375 262.03125 163.273438 L 262.0625 195.816406 L 269.367188 195.847656 C 273.386719 195.867188 276.71875 195.835938 276.773438 195.78125 C 276.828125 195.726562 276.933594 194.699219 277.007812 193.5 C 277.160156 191.050781 277.9375 185.554688 278.496094 182.988281 C 279.484375 178.421875 280.976562 173.78125 282.960938 169.09375 C 283.59375 167.605469 285.714844 163.3125 286.238281 162.460938 C 286.429688 162.152344 286.917969 161.339844 287.324219 160.65625 C 289.210938 157.484375 290.582031 155.503906 292.917969 152.574219 C 294.777344 150.246094 296.363281 148.476562 298.542969 146.3125 C 299.617188 145.246094 300.496094 144.34375 300.5 144.308594 C 300.503906 144.105469 296.574219 141.410156 294.125 139.933594 C 292.132812 138.730469 287.285156 136.296875 285.25 135.476562 C 280.597656 133.605469 276.441406 132.378906 271.4375 131.410156 C 270.039062 131.136719 265.15625 130.542969 263.695312 130.464844 C 262.414062 130.394531 262.121094 130.410156 262.066406 130.554688 M 95.3125 131.246094 C 94.007812 131.484375 91.980469 131.84375 90.8125 132.042969 C 89.644531 132.246094 88.292969 132.492188 87.8125 132.589844 C 87.332031 132.691406 86.640625 132.8125 86.28125 132.859375 C 85.921875 132.90625 85.605469 132.980469 85.578125 133.027344 C 85.550781 133.070312 85.71875 134.207031 85.953125 135.550781 C 86.1875 136.890625 86.542969 138.949219 86.742188 140.117188 C 86.945312 141.289062 87.191406 142.640625 87.292969 143.121094 C 87.394531 143.605469 87.515625 144.3125 87.5625 144.699219 C 87.609375 145.085938 87.6875 145.464844 87.738281 145.542969 C 87.800781 145.644531 88.179688 145.617188 89.128906 145.441406 C 90.582031 145.171875 95.210938 144.347656 98 143.863281 C 98.996094 143.691406 99.929688 143.5 100.074219 143.441406 L 100.335938 143.332031 L 100.050781 141.726562 C 99.890625 140.839844 99.503906 138.652344 99.1875 136.863281 C 98.113281 130.765625 98.117188 130.792969 97.894531 130.804688 C 97.78125 130.8125 96.617188 131.011719 95.3125 131.246094 M 77.5 134.386719 C 74.484375 134.933594 74.625 134.898438 74.625 135.125 C 74.625 135.472656 76.390625 138.90625 77.355469 140.429688 C 79.035156 143.09375 81.785156 146.691406 82.140625 146.691406 C 82.207031 146.691406 82.230469 146.507812 82.191406 146.28125 C 82.152344 146.058594 81.875 144.496094 81.574219 142.808594 C 81.230469 140.871094 80.890625 138.929688 80.554688 136.988281 C 80.292969 135.476562 80.019531 134.175781 79.945312 134.101562 C 79.851562 134.003906 79.15625 134.085938 77.5 134.386719 M 135.3125 142.882812 C 133.800781 143.160156 132.855469 143.328125 127.394531 144.296875 C 126.273438 144.496094 125.300781 144.710938 125.234375 144.777344 C 125.121094 144.894531 125.210938 145.484375 126.125 150.570312 C 126.328125 151.707031 126.582031 153.136719 126.683594 153.746094 C 126.785156 154.359375 126.898438 154.890625 126.933594 154.925781 C 127.027344 155.019531 129.195312 153.535156 130.5 152.488281 C 132.804688 150.640625 135.539062 147.746094 137.363281 145.230469 L 138.039062 144.296875 L 137.882812 143.429688 C 137.726562 142.566406 137.726562 142.558594 137.332031 142.570312 C 137.117188 142.578125 136.207031 142.71875 135.3125 142.882812 M 116.4375 146.316406 C 113.988281 146.757812 111.089844 147.277344 108.21875 147.78125 C 106.773438 148.039062 106.851562 147.8125 107.316406 150.386719 C 107.546875 151.65625 107.769531 152.925781 107.992188 154.199219 C 108.679688 158.121094 109.007812 159.765625 109.128906 159.886719 C 109.328125 160.085938 113.726562 159.757812 115.648438 159.398438 C 117.289062 159.09375 121.308594 157.933594 121.554688 157.695312 C 121.632812 157.621094 121.574219 157.011719 121.398438 156.046875 C 121.246094 155.203125 120.867188 153.078125 120.554688 151.320312 C 119.558594 145.726562 119.59375 145.878906 119.3125 145.859375 C 119.175781 145.847656 117.882812 146.054688 116.4375 146.316406 M 211.367188 149.976562 C 206.328125 154.953125 201.984375 160.898438 198.082031 168.15625 C 196.394531 171.296875 194.875 174.714844 194.875 175.363281 C 194.875 175.492188 195.328125 175.933594 195.96875 176.429688 C 199.714844 179.328125 203.886719 183.480469 206.355469 186.769531 C 206.628906 187.132812 207.371094 188.332031 208.003906 189.433594 C 209.789062 192.542969 210.878906 194.375 211.402344 195.160156 L 211.882812 195.878906 L 223.871094 195.878906 C 231.980469 195.878906 235.886719 195.839844 235.941406 195.75 C 235.984375 195.679688 235.957031 194.792969 235.878906 193.78125 C 234.714844 178.773438 229.078125 165.101562 219.445312 153.925781 C 217.882812 152.113281 213.773438 147.941406 213.550781 147.941406 C 213.484375 147.941406 212.5 148.855469 211.367188 149.976562 M 302.515625 150.289062 C 300.046875 152.765625 298.605469 154.382812 296.863281 156.640625 C 292.464844 162.328125 289.320312 167.929688 286.820312 174.539062 C 284.417969 180.894531 282.804688 188.601562 282.601562 194.691406 L 282.5625 195.816406 L 327.4375 195.816406 L 327.402344 194.753906 C 327.335938 192.894531 327.121094 190.886719 326.683594 188.121094 C 325.570312 181.039062 323.589844 174.808594 320.378906 168.28125 C 317.804688 163.054688 314.785156 158.460938 310.960938 153.960938 C 309.667969 152.441406 305.210938 147.941406 304.996094 147.941406 C 304.917969 147.941406 303.804688 148.996094 302.515625 150.289062 M 99.6875 149.203125 C 99 149.335938 97.3125 149.640625 95.9375 149.882812 C 94.5625 150.125 92.488281 150.488281 91.324219 150.691406 C 88.5625 151.179688 88.726562 151.117188 88.820312 151.675781 C 89.019531 152.847656 89.117188 153.046875 89.722656 153.472656 C 91.375 154.652344 94.007812 156.125 96 156.992188 C 98.261719 157.972656 102.859375 159.386719 103.078125 159.167969 C 103.121094 159.125 102.980469 158.117188 102.769531 156.925781 C 102.253906 154.046875 101.375 149.042969 101.375 148.988281 C 101.375 148.910156 100.96875 148.960938 99.6875 149.203125 M 161.171875 171.351562 C 159.632812 171.441406 155.34375 171.996094 154.546875 172.207031 L 154.1875 172.304688 L 154.1875 178.523438 L 155.1875 179.109375 C 159.867188 181.851562 163.65625 184.019531 163.84375 184.070312 C 163.980469 184.105469 164.949219 183.617188 166.316406 182.820312 C 167.550781 182.101562 169.714844 180.839844 171.125 180.019531 C 173.0625 178.894531 173.730469 178.441406 173.863281 178.167969 C 174.007812 177.867188 174.011719 177.496094 173.890625 175.910156 C 173.667969 173 173.433594 172.347656 172.511719 172.101562 C 171.632812 171.863281 168.453125 171.46875 166.460938 171.347656 C 164.25 171.214844 163.625 171.214844 161.171875 171.351562 M 117.8125 173.933594 C 117.261719 174.03125 116.761719 174.164062 116.703125 174.222656 C 116.554688 174.371094 116.863281 176.382812 118.074219 183.113281 C 118.308594 184.417969 118.535156 185.722656 118.757812 187.03125 C 118.964844 188.253906 119.179688 189.375 119.230469 189.515625 C 119.316406 189.738281 119.433594 189.625 120.148438 188.664062 C 121.609375 186.691406 121.765625 186.386719 121.679688 185.742188 C 121.503906 184.441406 120.847656 180.644531 120.453125 178.605469 C 120.214844 177.402344 119.925781 175.8125 119.804688 175.070312 L 119.589844 173.726562 L 119.199219 173.738281 C 118.988281 173.746094 118.363281 173.835938 117.8125 173.933594 M 147 174.371094 C 141.539062 176.523438 136.980469 179.242188 132.9375 182.765625 C 132.179688 183.425781 131.234375 184.300781 130.828125 184.714844 L 130.097656 185.464844 L 130.703125 185.808594 C 132.007812 186.542969 132.992188 187.25 133.328125 187.691406 C 133.671875 188.140625 133.683594 188.207031 133.785156 190.359375 C 133.925781 193.277344 133.8125 202.523438 133.628906 203.265625 C 133.304688 204.554688 132.625 205.652344 131.378906 206.894531 C 130.0625 208.210938 129.511719 208.597656 126.101562 210.628906 C 120.945312 213.695312 119.148438 214.273438 116.871094 213.585938 C 116.703125 213.535156 116.683594 214.253906 116.71875 220.070312 C 116.75 225.148438 116.800781 226.871094 116.945312 227.78125 C 117.398438 230.585938 118.699219 234.964844 119.960938 237.925781 C 120.675781 239.601562 121.601562 241.441406 121.71875 241.429688 C 121.769531 241.425781 122.132812 241.214844 122.527344 240.960938 C 127.503906 237.757812 129.03125 237.070312 131.222656 237.039062 C 132.785156 237.019531 133.945312 237.34375 136.101562 238.394531 C 137.359375 239.003906 138.898438 239.988281 142.875 242.707031 C 143.320312 243.011719 144.125 243.53125 144.65625 243.863281 C 145.671875 244.492188 146.121094 244.96875 146.359375 245.683594 C 146.457031 245.984375 146.5 248.429688 146.496094 254.007812 C 146.496094 261.457031 146.480469 261.933594 146.261719 262.421875 C 146.132812 262.707031 145.964844 262.976562 145.886719 263.023438 C 145.480469 263.273438 145.875 263.503906 148.03125 264.269531 C 151.175781 265.382812 154.972656 266.277344 158.25 266.667969 C 160.53125 266.941406 164.828125 267.035156 167.183594 266.859375 L 169.175781 266.710938 L 169.996094 266.027344 C 173.566406 263.03125 176.726562 260.59375 180.46875 257.953125 L 182.25 256.699219 L 182.25 245.746094 L 182.613281 245.171875 C 183.015625 244.535156 183.441406 244.21875 185.375 243.105469 C 186.097656 242.691406 188.882812 241.0625 191.5625 239.488281 L 196.4375 236.621094 L 198.5625 236.621094 L 202.351562 238.84375 C 204.433594 240.066406 206.21875 241.066406 206.316406 241.066406 C 206.984375 241.066406 208.277344 236.996094 209.820312 230.050781 C 210.734375 225.945312 210.824219 225.160156 211 219.535156 C 211.070312 217.367188 211.160156 215.222656 211.199219 214.765625 L 211.273438 213.941406 L 210.355469 213.953125 C 209.335938 213.96875 209.429688 214.011719 205.3125 211.628906 C 202.675781 210.101562 200.042969 208.578125 197.40625 207.058594 C 195.9375 206.210938 195.390625 205.761719 195.027344 205.097656 C 194.832031 204.738281 194.808594 203.996094 194.777344 196.757812 C 194.738281 187.808594 194.703125 188.164062 195.667969 187.273438 C 195.960938 187.003906 196.613281 186.539062 197.117188 186.238281 L 198.03125 185.695312 L 196.890625 184.59375 C 193.296875 181.148438 188.820312 178.054688 184.3125 175.90625 C 182.582031 175.085938 179.859375 173.976562 179.570312 173.976562 C 179.425781 173.976562 179.390625 174.5625 179.351562 177.324219 C 179.3125 180.421875 179.289062 180.714844 179.046875 181.234375 C 178.746094 181.878906 178.304688 182.3125 177.5 182.761719 C 176.753906 183.175781 175.863281 183.695312 173.3125 185.203125 C 167.117188 188.855469 164.511719 190.246094 163.867188 190.246094 C 163.253906 190.246094 160.082031 188.523438 153.25 184.488281 C 152.046875 183.773438 150.714844 183.003906 150.289062 182.773438 C 149.863281 182.542969 149.363281 182.171875 149.175781 181.949219 C 148.527344 181.179688 148.5 181 148.5 177.359375 L 148.5 173.976562 L 148.21875 173.988281 C 148.0625 173.996094 147.515625 174.167969 147 174.371094 M 125.589844 190.648438 C 123.480469 193.460938 121.378906 197.09375 119.992188 200.324219 C 119.289062 201.964844 117.820312 206.28125 117.691406 207.082031 C 117.621094 207.539062 117.644531 207.601562 117.96875 207.792969 L 118.324219 208.003906 L 122.628906 205.5 C 125 204.125 127.203125 202.851562 127.53125 202.675781 L 128.125 202.347656 L 128.125 190.769531 L 127.28125 190.289062 C 126.816406 190.023438 126.402344 189.792969 126.355469 189.773438 C 126.3125 189.75 125.964844 190.144531 125.589844 190.648438 M 201.03125 190.476562 L 200.5 190.808594 L 200.5 202.324219 L 202.53125 203.484375 C 203.792969 204.207031 205.054688 204.933594 206.3125 205.664062 C 207.273438 206.222656 208.535156 206.953125 209.113281 207.289062 C 209.691406 207.625 210.195312 207.867188 210.230469 207.832031 C 210.316406 207.746094 209.585938 205.203125 208.96875 203.453125 C 207.550781 199.40625 205.808594 195.875 203.558594 192.484375 C 202.371094 190.695312 201.917969 190.117188 201.707031 190.132812 C 201.628906 190.136719 201.324219 190.292969 201.03125 190.476562 M 214.4375 201.515625 C 214.390625 201.585938 214.5 202.078125 214.675781 202.609375 C 215.722656 205.785156 216.632812 210.222656 217.023438 214.027344 C 217.257812 216.324219 217.222656 222.386719 216.960938 224.75 C 216.332031 230.371094 214.746094 236.410156 212.699219 240.972656 C 212.320312 241.816406 212.335938 241.824219 213.613281 241.445312 C 214.066406 241.3125 215.386719 241.054688 216.542969 240.875 C 218.902344 240.511719 220.636719 240.101562 221.609375 239.683594 C 223.292969 238.957031 226.292969 234.78125 228.535156 230.050781 C 230.96875 224.902344 231.234375 224.25 232.003906 221.449219 L 232.941406 218.035156 C 233.515625 215.9375 234.992188 209.664062 235.484375 207.207031 C 236.242188 203.445312 236.414062 201.851562 236.101562 201.539062 C 235.902344 201.339844 214.558594 201.316406 214.4375 201.515625 M 241.710938 201.480469 C 241.679688 201.53125 241.613281 202.167969 241.566406 202.890625 C 241.132812 209.519531 240.0625 215.320312 238.171875 221.289062 C 236.484375 226.601562 234.34375 231.367188 231.347656 236.476562 C 230.871094 237.289062 230.507812 237.984375 230.546875 238.023438 C 230.582031 238.058594 231.585938 238.011719 232.773438 237.917969 C 235.554688 237.699219 243.242188 237.695312 246.0625 237.914062 C 249.269531 238.160156 252.875 238.539062 254.648438 238.816406 C 255.519531 238.949219 256.292969 239.0625 256.367188 239.0625 C 256.460938 239.0625 256.492188 233.550781 256.46875 220.257812 L 256.4375 201.449219 L 249.101562 201.417969 C 245.066406 201.398438 241.742188 201.429688 241.710938 201.480469 M 262.058594 201.542969 C 262.023438 201.628906 262.011719 210.34375 262.03125 220.90625 L 262.0625 240.109375 L 264 240.585938 C 275.925781 243.519531 285.726562 247.136719 297.433594 252.925781 L 299.429688 253.914062 L 299.964844 253.535156 C 300.257812 253.328125 300.5 253.09375 300.5 253.015625 C 300.5 252.933594 299.992188 252.398438 299.367188 251.816406 C 298.035156 250.578125 295.328125 247.664062 293.832031 245.855469 C 286.335938 236.796875 281.082031 226.027344 278.550781 214.53125 C 277.949219 211.792969 277.167969 206.347656 277.007812 203.78125 C 276.933594 202.585938 276.839844 201.558594 276.804688 201.5 C 276.765625 201.4375 273.558594 201.386719 269.425781 201.386719 C 263.695312 201.386719 262.105469 201.421875 262.058594 201.542969 M 282.582031 201.472656 C 282.535156 201.519531 282.523438 201.898438 282.558594 202.316406 C 282.59375 202.734375 282.683594 203.835938 282.757812 204.765625 C 282.941406 207.070312 283.546875 211.054688 284.074219 213.402344 C 286.597656 224.667969 291.480469 234.417969 299.050781 243.316406 C 300.40625 244.910156 304.78125 249.324219 305.003906 249.324219 C 305.273438 249.324219 310.003906 244.472656 311.46875 242.691406 C 314.007812 239.601562 315.785156 237.007812 318.035156 233.113281 C 318.671875 232.011719 320.898438 227.460938 321.433594 226.171875 C 322.46875 223.671875 323.226562 221.621094 324.003906 219.222656 C 326.023438 212.957031 328.046875 202.886719 327.550781 201.585938 C 327.480469 201.40625 325.382812 201.386719 305.070312 201.386719 C 292.75 201.386719 282.628906 201.425781 282.582031 201.472656 M 163.109375 201.804688 C 162.792969 201.894531 162.257812 202.136719 161.921875 202.347656 C 161.585938 202.558594 159.90625 203.535156 158.1875 204.519531 C 156.46875 205.503906 154.386719 206.699219 153.5625 207.179688 C 150.90625 208.722656 150.320312 209.0625 149.9375 209.285156 C 149.398438 209.601562 148.917969 210.140625 148.695312 210.675781 C 148.527344 211.082031 148.5 212.195312 148.5 219.160156 C 148.5 226.8125 148.511719 227.203125 148.738281 227.644531 C 149.0625 228.273438 149.648438 228.796875 150.640625 229.339844 C 151.09375 229.589844 152.074219 230.160156 152.8125 230.609375 C 153.550781 231.058594 154.179688 231.425781 154.207031 231.425781 C 154.234375 231.425781 154.492188 231.578125 154.785156 231.761719 C 155.074219 231.949219 155.636719 232.285156 156.03125 232.515625 C 156.425781 232.742188 157.101562 233.132812 157.53125 233.382812 C 159.785156 234.691406 161.730469 235.753906 162.789062 236.253906 C 163.71875 236.695312 163.789062 236.710938 164.289062 236.5625 C 165.273438 236.265625 169.09375 234.167969 174.3125 231.054688 C 175.550781 230.316406 176.964844 229.476562 177.460938 229.191406 C 178.554688 228.558594 179.074219 227.960938 179.253906 227.117188 C 179.347656 226.683594 179.378906 224.015625 179.351562 218.722656 C 179.3125 211.019531 179.308594 210.957031 179.039062 210.453125 C 178.683594 209.78125 178.398438 209.578125 175.4375 207.871094 C 174.0625 207.074219 172.375 206.101562 171.6875 205.703125 C 171 205.304688 169.707031 204.554688 168.8125 204.039062 C 167.917969 203.523438 166.851562 202.90625 166.4375 202.664062 C 164.777344 201.691406 164.121094 201.523438 163.109375 201.804688 M 163 208.257812 C 159.957031 210.035156 155.839844 212.414062 155 212.878906 C 153.902344 213.492188 154 212.878906 154 219.148438 C 154.003906 222.21875 154.046875 224.789062 154.09375 224.863281 C 154.144531 224.9375 155.398438 225.691406 156.875 226.542969 C 158.351562 227.390625 159.871094 228.265625 160.25 228.488281 C 160.972656 228.90625 161.699219 229.324219 162.425781 229.742188 L 163.914062 230.597656 L 164.488281 230.289062 C 164.804688 230.117188 165.820312 229.53125 166.75 228.992188 C 167.679688 228.449219 168.761719 227.820312 169.15625 227.589844 C 170.269531 226.941406 171.386719 226.292969 172.5 225.644531 L 173.6875 224.953125 L 173.6875 213.371094 L 172.875 212.90625 C 172.429688 212.652344 171.386719 212.046875 170.5625 211.566406 C 165.074219 208.363281 164.03125 207.769531 163.917969 207.777344 C 163.859375 207.78125 163.445312 207.996094 163 208.257812 M 129.5625 243.265625 C 128.804688 243.710938 127.386719 244.535156 126.40625 245.097656 C 125.425781 245.660156 124.625 246.1875 124.625 246.269531 C 124.625 246.476562 125.820312 248.125 127.082031 249.667969 C 128.429688 251.308594 131.457031 254.359375 133.0625 255.695312 C 134.609375 256.984375 136.589844 258.429688 138.3125 259.527344 L 139.621094 260.363281 L 140.214844 259.996094 L 140.8125 259.628906 L 140.84375 253.878906 L 140.878906 248.125 L 139.96875 247.613281 C 139.472656 247.332031 138.386719 246.707031 137.5625 246.230469 C 132.640625 243.367188 131.027344 242.441406 130.980469 242.449219 C 130.957031 242.449219 130.320312 242.816406 129.5625 243.265625 M 195.125 243.890625 C 193.785156 244.675781 192.40625 245.476562 192.0625 245.671875 C 190.34375 246.648438 188.042969 247.996094 187.90625 248.105469 C 187.792969 248.195312 187.75 248.851562 187.75 250.59375 C 187.75 251.890625 187.78125 252.957031 187.820312 252.957031 C 187.859375 252.957031 188.03125 252.789062 188.199219 252.589844 C 189.101562 251.515625 192.636719 249.714844 199.875 246.632812 C 201.847656 245.792969 202.5 245.476562 202.5 245.347656 C 202.5 245.300781 202.148438 245.054688 201.71875 244.808594 C 200.90625 244.339844 200.09375 243.871094 199.285156 243.402344 C 198.375 242.875 197.617188 242.445312 197.597656 242.453125 C 197.578125 242.457031 196.464844 243.105469 195.125 243.890625 M 235.9375 243.515625 C 235.664062 243.542969 234.566406 243.625 233.5 243.695312 C 225.507812 244.25 216.929688 246.089844 209.566406 248.824219 C 202.269531 251.535156 194.917969 254.800781 192.59375 256.363281 C 191.441406 257.136719 191.429688 257.167969 191.738281 259.054688 C 191.878906 259.933594 192.25 262.34375 192.5625 264.410156 C 192.871094 266.472656 193.296875 269.261719 193.503906 270.605469 C 193.710938 271.945312 193.933594 273.410156 194 273.859375 C 194.066406 274.304688 194.261719 275.574219 194.429688 276.675781 C 194.917969 279.839844 195.570312 284.121094 196.1875 288.191406 C 196.496094 290.253906 196.863281 292.648438 197 293.507812 C 197.238281 294.996094 197.441406 296.324219 198.441406 302.929688 L 199.308594 308.625 C 199.542969 310.1875 199.96875 312.964844 200.246094 314.789062 C 200.527344 316.613281 200.894531 319.089844 201.070312 320.292969 C 201.242188 321.5 201.429688 322.5625 201.480469 322.660156 C 201.613281 322.90625 202.296875 323.09375 205.4375 323.730469 C 213.316406 325.332031 220.328125 326.015625 227.558594 325.890625 C 239.566406 325.683594 249.386719 323.457031 261.90625 318.109375 C 263.679688 317.351562 269.289062 314.527344 271.25 313.40625 C 272.007812 312.972656 272.769531 312.539062 273.53125 312.109375 C 274.058594 311.8125 274.101562 311.589844 273.871094 310.390625 C 273.753906 309.792969 273.394531 307.460938 272.617188 302.207031 C 272.484375 301.3125 272.210938 299.511719 272.003906 298.203125 C 271.800781 296.894531 271.433594 294.53125 271.191406 292.945312 C 270.941406 291.296875 270.6875 289.648438 270.433594 288.003906 C 270.195312 286.460938 269.964844 284.914062 269.742188 283.371094 C 269.535156 281.960938 269.34375 280.71875 269.3125 280.617188 C 269.28125 280.515625 269.167969 279.78125 269.0625 278.988281 C 268.953125 278.199219 268.703125 276.507812 268.5 275.234375 C 268.007812 272.105469 267.546875 269.085938 267.183594 266.597656 C 267.015625 265.460938 266.765625 263.828125 266.628906 262.96875 C 266.265625 260.742188 265.789062 257.617188 265.429688 255.144531 C 265.261719 253.976562 265.039062 252.539062 264.9375 251.953125 C 264.835938 251.367188 264.667969 250.242188 264.558594 249.449219 C 264.453125 248.660156 264.304688 247.660156 264.230469 247.230469 L 264.097656 246.445312 L 263.457031 246.261719 C 262.332031 245.9375 258.269531 245.105469 255.875 244.710938 C 250.582031 243.835938 247.152344 243.554688 241.1875 243.507812 C 238.574219 243.488281 236.210938 243.492188 235.9375 243.515625 M 269.921875 248.292969 C 269.957031 248.414062 270.046875 248.960938 270.125 249.511719 C 270.199219 250.0625 270.398438 251.386719 270.566406 252.453125 C 270.734375 253.523438 271.351562 257.550781 271.9375 261.402344 C 272.523438 265.257812 273.144531 269.316406 273.316406 270.417969 C 273.488281 271.519531 273.65625 272.617188 273.6875 272.855469 C 273.71875 273.097656 273.886719 274.195312 274.058594 275.296875 C 274.230469 276.398438 274.679688 279.355469 275.0625 281.867188 C 275.441406 284.382812 275.863281 287.140625 276 288.003906 C 276.21875 289.371094 277.125 295.304688 278.570312 304.835938 C 279.085938 308.253906 279.09375 308.277344 279.261719 308.277344 C 279.457031 308.277344 282.507812 306.179688 284.5625 304.640625 C 287.59375 302.363281 287.75 302.230469 287.75 301.925781 C 287.75 301.601562 287.511719 299.933594 287.066406 297.140625 C 286.664062 294.605469 286.199219 291.546875 285.742188 288.441406 C 285.542969 287.0625 285.324219 285.65625 285.253906 285.3125 C 285.1875 284.964844 285.015625 283.839844 284.871094 282.808594 C 284.730469 281.773438 284.53125 280.480469 284.433594 279.929688 C 284.332031 279.378906 284.167969 278.308594 284.066406 277.550781 C 283.886719 276.253906 283.519531 273.84375 282.8125 269.351562 C 282.640625 268.285156 282.359375 266.398438 282.183594 265.160156 C 282.007812 263.921875 281.839844 262.820312 281.804688 262.710938 C 281.773438 262.605469 281.546875 261.167969 281.304688 259.519531 C 281.058594 257.871094 280.691406 255.394531 280.484375 254.019531 C 280.28125 252.644531 280.074219 251.476562 280.023438 251.429688 C 279.710938 251.125 270.570312 248.074219 269.960938 248.074219 C 269.90625 248.074219 269.886719 248.171875 269.921875 248.292969 M 105.625 251.320312 C 104.117188 251.480469 103.4375 251.589844 103.269531 251.691406 C 103.148438 251.765625 103.246094 252.230469 103.675781 253.65625 C 105.546875 259.855469 105.613281 266.609375 103.867188 273.105469 C 102.296875 278.949219 99.820312 283.660156 95.75 288.5625 C 95.578125 288.769531 94.707031 289.671875 93.8125 290.570312 C 90.464844 293.941406 86.1875 296.746094 82.0625 298.285156 C 81.511719 298.488281 81.015625 298.703125 80.957031 298.761719 C 80.804688 298.910156 81.589844 300.203125 82.851562 301.894531 C 84.101562 303.566406 86.425781 305.945312 88.125 307.292969 C 92.449219 310.722656 97.855469 313.113281 103.109375 313.921875 C 105.472656 314.285156 109.066406 314.371094 111.109375 314.113281 C 111.960938 314.007812 112.679688 313.898438 112.707031 313.871094 C 112.730469 313.847656 112.667969 313.617188 112.558594 313.363281 C 111.855469 311.671875 110.996094 307.71875 110.742188 304.984375 C 110.539062 302.816406 110.65625 298.957031 110.992188 296.699219 C 111.921875 290.449219 114.5 284.234375 118.195312 279.316406 C 118.601562 278.773438 119.128906 278.066406 119.363281 277.75 C 119.996094 276.902344 123.402344 273.539062 124.625 272.558594 C 127.199219 270.5 130.695312 268.476562 133.65625 267.332031 L 135.003906 266.8125 L 134.671875 266.238281 C 132.679688 262.777344 128.40625 258.480469 124.601562 256.109375 C 119.722656 253.070312 114.230469 251.394531 108.75 251.269531 C 107.546875 251.242188 106.140625 251.265625 105.625 251.320312 M 95.9375 253.617188 C 92.203125 255.0625 88.417969 257.617188 85.5625 260.609375 C 80.894531 265.503906 77.972656 271.289062 76.792969 277.988281 C 76.480469 279.753906 76.449219 280.214844 76.445312 283.058594 C 76.441406 285.941406 76.46875 286.335938 76.785156 288.066406 C 77.121094 289.914062 77.855469 292.605469 78.210938 293.300781 C 78.425781 293.71875 78.503906 293.710938 80.0625 293.097656 C 85.503906 290.953125 90.566406 286.75 94.09375 281.445312 C 99.484375 273.332031 101.003906 263.03125 98.089844 254.394531 C 97.839844 253.664062 97.589844 253.132812 97.488281 253.113281 C 97.390625 253.097656 96.695312 253.328125 95.9375 253.617188 M 286.191406 254.179688 C 286.277344 254.671875 286.992188 259.320312 287.0625 259.839844 C 287.09375 260.082031 287.261719 261.179688 287.433594 262.28125 C 287.605469 263.382812 287.941406 265.578125 288.179688 267.160156 C 288.421875 268.746094 289.097656 273.195312 289.6875 277.050781 C 290.277344 280.90625 290.953125 285.355469 291.195312 286.9375 C 291.433594 288.523438 291.769531 290.71875 291.941406 291.820312 C 292.109375 292.921875 292.386719 294.714844 292.550781 295.800781 C 292.714844 296.890625 292.882812 297.8125 292.921875 297.851562 C 292.960938 297.890625 293.652344 297.339844 294.460938 296.625 C 299.765625 291.925781 307.472656 284.117188 309.25 281.632812 C 312.324219 277.335938 312.175781 272.402344 308.832031 267.476562 C 308.003906 266.257812 305.691406 263.945312 304.5 263.140625 C 300.96875 260.757812 296.671875 258.5 290.125 255.582031 C 285.683594 253.605469 286.121094 253.761719 286.191406 254.179688 M 185.0625 261.605469 C 182.542969 263.316406 178.242188 266.496094 177.851562 266.933594 C 177.683594 267.121094 177.667969 267.28125 177.761719 267.851562 C 177.875 268.542969 179.023438 276.027344 179.8125 281.242188 C 180.703125 287.125 181.601562 293.007812 182.507812 298.890625 C 182.714844 300.234375 183.078125 302.597656 183.3125 304.148438 C 183.546875 305.699219 183.96875 308.457031 184.246094 310.28125 C 184.523438 312.074219 184.796875 313.863281 185.066406 315.65625 C 185.238281 316.789062 185.402344 317.734375 185.429688 317.761719 C 185.523438 317.859375 188.1875 318.820312 190.875 319.730469 C 193.710938 320.691406 195.324219 321.136719 195.464844 320.996094 C 195.511719 320.953125 195.390625 319.886719 195.199219 318.632812 C 194.980469 317.207031 194.765625 315.777344 194.550781 314.347656 C 194.371094 313.160156 194.191406 311.972656 194.003906 310.78125 C 193.714844 308.957031 193.109375 304.984375 192.316406 299.707031 C 192.003906 297.640625 191.640625 295.273438 191.503906 294.449219 C 191.371094 293.621094 191.171875 292.328125 191.0625 291.570312 C 190.953125 290.8125 190.726562 289.320312 190.558594 288.253906 C 190.390625 287.183594 190.027344 284.820312 189.753906 282.996094 C 189.359375 280.386719 188.957031 277.78125 188.558594 275.171875 C 187.9375 271.136719 187.648438 269.242188 186.757812 263.34375 C 186.394531 260.953125 186.375 260.839844 186.273438 260.839844 C 186.226562 260.839844 185.679688 261.183594 185.0625 261.605469 M 254.148438 270.667969 C 253.195312 271.082031 252.582031 271.828125 252.328125 272.878906 C 252.265625 273.152344 252.550781 275.269531 253.058594 278.261719 C 253.101562 278.515625 253.054688 278.621094 252.875 278.675781 C 252.746094 278.71875 251.363281 278.9375 249.804688 279.160156 C 246.984375 279.5625 246.972656 279.5625 246.878906 279.308594 C 246.828125 279.167969 246.632812 278.039062 246.445312 276.800781 C 246.046875 274.136719 245.992188 273.933594 245.488281 273.320312 C 244.316406 271.898438 242.070312 272.003906 241.035156 273.53125 C 240.707031 274.019531 240.6875 274.113281 240.703125 275.359375 C 240.714844 276.140625 240.851562 277.414062 241.042969 278.488281 C 241.21875 279.488281 241.316406 280.347656 241.261719 280.402344 C 241.15625 280.511719 235.230469 281.390625 235.152344 281.3125 C 235.125 281.28125 234.933594 280.144531 234.730469 278.78125 C 234.304688 275.886719 234.03125 275.160156 233.15625 274.554688 C 232.089844 273.816406 230.457031 274.007812 229.585938 274.976562 C 228.753906 275.898438 228.710938 276.675781 229.292969 280.347656 L 229.578125 282.144531 L 229.320312 282.253906 C 228.976562 282.398438 223.496094 283.160156 223.410156 283.074219 C 223.375 283.039062 223.210938 282.144531 223.050781 281.09375 C 222.582031 278.042969 222.492188 277.652344 222.125 277.070312 C 221.691406 276.382812 220.71875 275.859375 219.882812 275.863281 C 219.121094 275.863281 218.121094 276.34375 217.683594 276.917969 C 217.007812 277.804688 216.96875 278.3125 217.382812 280.957031 C 217.769531 283.460938 217.8125 283.945312 217.644531 284.046875 C 217.460938 284.160156 211.75 284.914062 211.667969 284.832031 C 211.625 284.792969 211.40625 283.605469 211.183594 282.195312 C 210.957031 280.785156 210.734375 279.511719 210.6875 279.359375 C 210.519531 278.832031 209.746094 278.132812 209.046875 277.867188 C 208.222656 277.558594 207.972656 277.554688 207.191406 277.820312 C 206.355469 278.105469 205.683594 278.808594 205.4375 279.664062 C 205.242188 280.332031 205.25 280.429688 205.664062 283.019531 C 205.898438 284.484375 206.054688 285.730469 206.007812 285.78125 C 205.960938 285.835938 204.890625 286.019531 203.628906 286.195312 C 201.222656 286.53125 200.699219 286.699219 200.101562 287.332031 C 198.882812 288.617188 199.246094 290.90625 200.796875 291.714844 C 201.433594 292.050781 202.785156 292.0625 204.5625 291.75 C 205.457031 291.589844 206.355469 291.457031 206.5625 291.453125 L 206.9375 291.445312 L 207.285156 293.632812 C 207.828125 297.015625 207.835938 297.046875 208.339844 297.636719 C 209.570312 299.078125 211.820312 298.9375 212.792969 297.363281 C 212.992188 297.039062 213.179688 296.53125 213.214844 296.238281 C 213.246094 295.9375 213.09375 294.566406 212.875 293.15625 C 212.652344 291.757812 212.5 290.585938 212.535156 290.554688 C 212.589844 290.5 216.554688 289.875 218.132812 289.671875 L 218.699219 289.601562 L 218.976562 291.335938 C 219.125 292.289062 219.3125 293.511719 219.390625 294.050781 C 219.652344 295.863281 220.648438 296.828125 222.25 296.820312 C 223.460938 296.816406 224.257812 296.304688 224.765625 295.199219 C 225.082031 294.507812 225.058594 293.933594 224.613281 291.210938 C 224.402344 289.914062 224.273438 288.808594 224.332031 288.757812 C 224.390625 288.707031 225.308594 288.542969 226.375 288.394531 C 227.441406 288.246094 228.777344 288.046875 229.347656 287.953125 C 229.914062 287.859375 230.40625 287.828125 230.4375 287.878906 C 230.46875 287.929688 230.667969 289.117188 230.882812 290.519531 C 231.34375 293.578125 231.550781 294.074219 232.617188 294.679688 C 234.492188 295.738281 236.746094 294.433594 236.75 292.292969 C 236.75 292.070312 236.582031 290.808594 236.375 289.484375 C 236.167969 288.160156 236.042969 287.035156 236.09375 286.988281 C 236.234375 286.855469 242.050781 286.003906 242.148438 286.101562 C 242.195312 286.148438 242.382812 287.144531 242.5625 288.316406 C 243.082031 291.667969 243.171875 291.957031 243.886719 292.558594 C 245.753906 294.132812 248.5 292.898438 248.5 290.484375 C 248.5 290.246094 248.332031 288.964844 248.121094 287.632812 C 247.914062 286.300781 247.761719 285.195312 247.785156 285.171875 C 247.847656 285.109375 253.886719 284.21875 253.925781 284.265625 C 253.949219 284.289062 254.167969 285.546875 254.417969 287.0625 C 254.8125 289.476562 254.914062 289.875 255.222656 290.316406 C 255.683594 290.972656 256.453125 291.390625 257.347656 291.464844 C 258.308594 291.546875 259.265625 291.074219 259.8125 290.253906 C 260.164062 289.730469 260.1875 289.617188 260.175781 288.566406 C 260.167969 287.945312 260.015625 286.542969 259.835938 285.445312 C 259.652344 284.347656 259.53125 283.425781 259.5625 283.390625 C 259.59375 283.359375 260.648438 283.179688 261.90625 282.992188 C 264.417969 282.617188 264.636719 282.554688 265.242188 282.042969 C 265.820312 281.554688 266.121094 280.835938 266.121094 279.929688 C 266.121094 279.007812 265.828125 278.316406 265.207031 277.773438 C 264.414062 277.074219 264.019531 277.039062 261.210938 277.421875 C 259.847656 277.609375 258.710938 277.738281 258.683594 277.714844 C 258.660156 277.691406 258.445312 276.476562 258.207031 275.023438 C 257.734375 272.113281 257.539062 271.578125 256.757812 271.066406 C 255.851562 270.46875 254.929688 270.328125 254.148438 270.667969 M 171.917969 271.828125 C 171.609375 272.105469 171.296875 272.386719 170.980469 272.660156 C 166.039062 277.003906 158.328125 284.789062 156.414062 287.375 C 154.851562 289.480469 154.125 291.789062 154.125 294.636719 C 154.125 296.347656 154.320312 297.503906 154.878906 299.074219 C 155.804688 301.691406 157.527344 303.890625 159.6875 305.222656 C 160.960938 306.003906 162.46875 306.894531 163.625 307.535156 C 164.277344 307.898438 165.261719 308.449219 165.8125 308.757812 C 169.347656 310.734375 179.132812 315.449219 179.320312 315.261719 C 179.351562 315.226562 179.242188 314.304688 179.066406 313.210938 C 178.894531 312.117188 178.273438 308.066406 177.691406 304.210938 C 177.105469 300.355469 176.511719 296.496094 176.375 295.636719 C 176.238281 294.777344 175.988281 293.144531 175.816406 292.007812 C 175.53125 290.074219 175.144531 287.539062 174.046875 280.367188 C 173.800781 278.75 173.394531 276.078125 173.144531 274.429688 C 172.890625 272.785156 172.632812 271.421875 172.5625 271.398438 C 172.492188 271.375 172.203125 271.570312 171.917969 271.828125 M 135.96875 272.417969 C 127.328125 275.804688 120.355469 283.472656 117.523438 292.695312 C 116.605469 295.683594 116.246094 298.34375 116.246094 302.113281 C 116.246094 307.882812 117.039062 311.144531 118.648438 311.984375 C 119.042969 312.1875 120.304688 312.214844 121.238281 312.035156 C 124.597656 311.398438 129.175781 307.378906 133.152344 301.574219 C 135.710938 297.839844 137.304688 294.402344 138.3125 290.445312 C 139.46875 285.890625 139.582031 280.558594 138.621094 275.960938 C 138.207031 273.984375 137.53125 271.980469 137.277344 271.984375 C 137.160156 271.988281 136.570312 272.183594 135.96875 272.417969 " fill-opacity="1" fill-rule="evenodd"/></svg>